M48
METRIC,LZ,000.000
;FILE_FORMAT=3:3
;TYPE=PLATED
;Layer: PTH_Through
;EasyEDA v6.5.42, 2024-04-09 21:11:16
;8ce7d1ffee1c46cb85fdaf2a2eaa2a6a,39b48822c415407c9d70bdcb49bf9cf0,10
;Gerber Generator version 0.2
;Holesize 1 = 0.915 mm
T01C0.915
;Holesize 2 = 3.000 mm
T02C3.000
%
G05
G90
T01
X043180Y076200
X045720Y076200
X048260Y076200
X050800Y076200
X033020Y043180
X033020Y073660
X033020Y055880
X033020Y058420
X033020Y053340
X033020Y045720
X033020Y048260
X033020Y050800
X033020Y068580
X033020Y060960
X033020Y040640
X033020Y071120
X033020Y066040
X033020Y038100
X033020Y063500
X005080Y038100
X005080Y040640
X005080Y043180
X005080Y045720
X005080Y055880
X005080Y058420
X005080Y060960
X005080Y063500
X005080Y066040
X005080Y068580
X005080Y073660
X005080Y050800
X005080Y048260
X005080Y071120
X005080Y053340
X005080Y020320
X005080Y015240
X005080Y017780
X005080Y012700
X005080Y010160
X010160Y076200
X017780Y076200
X015240Y076200
X012700Y076200
T02
X005995Y006636
X036983Y006636
X043968Y006636
X043942Y024003
X005969Y029972
X005969Y024257
X032004Y029972
X006096Y081915
X032004Y081915
X036957Y081915
X036957Y073025
X013970Y029972
X043942Y029972
M30
