G04 Layer: BottomLayer*
G04 EasyEDA v6.5.42, 2024-04-09 21:11:16*
G04 8ce7d1ffee1c46cb85fdaf2a2eaa2a6a,39b48822c415407c9d70bdcb49bf9cf0,10*
G04 Gerber Generator version 0.2*
G04 Scale: 100 percent, Rotated: No, Reflected: No *
G04 Dimensions in millimeters *
G04 leading zeros omitted , absolute positions ,4 integer and 5 decimal *
%FSLAX45Y45*%
%MOMM*%

%ADD10C,0.2540*%
%ADD11C,1.5240*%
%ADD12C,4.0000*%

%LPD*%
G36*
X4740402Y259079D02*
G01*
X4715764Y256286D01*
X4716424Y254558D01*
X4717694Y252933D01*
X4719777Y251561D01*
X4722876Y250698D01*
X4722876Y232714D01*
X4722114Y214884D01*
X4687570Y214884D01*
X4676902Y228600D01*
X4669485Y223062D01*
X4662881Y217779D01*
X4656582Y212344D01*
X4657242Y210870D01*
X4658410Y209854D01*
X4659985Y209245D01*
X4661916Y209042D01*
X4721860Y209042D01*
X4720539Y195529D01*
X4718659Y182372D01*
X4716221Y169621D01*
X4713122Y157378D01*
X4709312Y145745D01*
X4707128Y140208D01*
X4702200Y129743D01*
X4699406Y124815D01*
X4696409Y120142D01*
X4693158Y115671D01*
X4689703Y111506D01*
X4686046Y107594D01*
X4682083Y103936D01*
X4675886Y98907D01*
X4674209Y98501D01*
X4672787Y99314D01*
X4671314Y101346D01*
X4666437Y112115D01*
X4661408Y124968D01*
X4659122Y124460D01*
X4662932Y92710D01*
X4659274Y86614D01*
X4657394Y82194D01*
X4657039Y79044D01*
X4658106Y76962D01*
X4664049Y73863D01*
X4671669Y74777D01*
X4679797Y78587D01*
X4687316Y84074D01*
X4695190Y91186D01*
X4702251Y98958D01*
X4705553Y103124D01*
X4711547Y111963D01*
X4716830Y121361D01*
X4721504Y131419D01*
X4725568Y142036D01*
X4729022Y153162D01*
X4731969Y164795D01*
X4734356Y176936D01*
X4736287Y189484D01*
X4738370Y209042D01*
X4840224Y209042D01*
X4842002Y214884D01*
X4738878Y214884D01*
X4739640Y225653D01*
X4740351Y247751D01*
G37*
G36*
X4594098Y259079D02*
G01*
X4572000Y256794D01*
X4572660Y254863D01*
X4573930Y253288D01*
X4576013Y252120D01*
X4579112Y251460D01*
X4579112Y198882D01*
X4576572Y198882D01*
X4568444Y210566D01*
X4563160Y205638D01*
X4553712Y196088D01*
X4554372Y194767D01*
X4555540Y193802D01*
X4557115Y193243D01*
X4559046Y193040D01*
X4614164Y193040D01*
X4614164Y160528D01*
X4592828Y160528D01*
X4584446Y169672D01*
X4566920Y155702D01*
X4568342Y154533D01*
X4570272Y153365D01*
X4572711Y152400D01*
X4575556Y151638D01*
X4575556Y80772D01*
X4576927Y79248D01*
X4580077Y77419D01*
X4584141Y75844D01*
X4588256Y75184D01*
X4590796Y75184D01*
X4590796Y154432D01*
X4614164Y154432D01*
X4614621Y142189D01*
X4615637Y130505D01*
X4617313Y119430D01*
X4618431Y114096D01*
X4621326Y103835D01*
X4623104Y98958D01*
X4625136Y94132D01*
X4627422Y89509D01*
X4629962Y84988D01*
X4632756Y80568D01*
X4635906Y76301D01*
X4639310Y72136D01*
X4642358Y74168D01*
X4639818Y80010D01*
X4637582Y85953D01*
X4635703Y92049D01*
X4634077Y98247D01*
X4631639Y111302D01*
X4630775Y118160D01*
X4629658Y132588D01*
X4629200Y148183D01*
X4629150Y253492D01*
X4607052Y250952D01*
X4607661Y249021D01*
X4608880Y247396D01*
X4610963Y246176D01*
X4614164Y245364D01*
X4614164Y198882D01*
X4594098Y198882D01*
G37*
G36*
X4470908Y259079D02*
G01*
X4456684Y241808D01*
X4458258Y240893D01*
X4460036Y240588D01*
X4462018Y240842D01*
X4464304Y241808D01*
X4475632Y239928D01*
X4487722Y238302D01*
X4500168Y236931D01*
X4512513Y235915D01*
X4524197Y235254D01*
X4534916Y234950D01*
X4534916Y195834D01*
X4481576Y195834D01*
X4472178Y204978D01*
X4456176Y190246D01*
X4456753Y189738D01*
X4523740Y189738D01*
X4521403Y178460D01*
X4518507Y167741D01*
X4515053Y157581D01*
X4511090Y148082D01*
X4506620Y139141D01*
X4501642Y130810D01*
X4497984Y137668D01*
X4494631Y144678D01*
X4491583Y151892D01*
X4488840Y159207D01*
X4486402Y166674D01*
X4484268Y174294D01*
X4482388Y181965D01*
X4480814Y189738D01*
X4456753Y189738D01*
X4457446Y189128D01*
X4459122Y188366D01*
X4464558Y187452D01*
X4467656Y175361D01*
X4471314Y163576D01*
X4475683Y152044D01*
X4480814Y140919D01*
X4486706Y130149D01*
X4493514Y119887D01*
X4488992Y114604D01*
X4484166Y109626D01*
X4479036Y105003D01*
X4473651Y100634D01*
X4467961Y96621D01*
X4462068Y92862D01*
X4455922Y89458D01*
X4449572Y86360D01*
X4449826Y84328D01*
X4454652Y83413D01*
X4458868Y81076D01*
X4462272Y77419D01*
X4464812Y72644D01*
X4470450Y76403D01*
X4475835Y80365D01*
X4480864Y84582D01*
X4485690Y89052D01*
X4490161Y93726D01*
X4494428Y98653D01*
X4498390Y103835D01*
X4502150Y109220D01*
X4509058Y101904D01*
X4516678Y94945D01*
X4525010Y88392D01*
X4534103Y82245D01*
X4544009Y76555D01*
X4554728Y71374D01*
X4556760Y74168D01*
X4546854Y80467D01*
X4537760Y87325D01*
X4529378Y94742D01*
X4521657Y102666D01*
X4514646Y111048D01*
X4508246Y119887D01*
X4512818Y129743D01*
X4516882Y140258D01*
X4520387Y151485D01*
X4523435Y163423D01*
X4525873Y176174D01*
X4527804Y189738D01*
X4534916Y189738D01*
X4534966Y172720D01*
X4535220Y161848D01*
X4535932Y150723D01*
X4537252Y139446D01*
X4539386Y128219D01*
X4542434Y117094D01*
X4544415Y111607D01*
X4546650Y106222D01*
X4549241Y100939D01*
X4552188Y95758D01*
X4555439Y90728D01*
X4559147Y85801D01*
X4563262Y81076D01*
X4567783Y76504D01*
X4572762Y72136D01*
X4575556Y74168D01*
X4571542Y79756D01*
X4567986Y85547D01*
X4564837Y91490D01*
X4562043Y97586D01*
X4559655Y103784D01*
X4557572Y110134D01*
X4555845Y116585D01*
X4554372Y123139D01*
X4552238Y136550D01*
X4551476Y143357D01*
X4550562Y157124D01*
X4550206Y171043D01*
X4550156Y245871D01*
X4535932Y239775D01*
X4515256Y245059D01*
X4492955Y251612D01*
X4481779Y255219D01*
G37*
G36*
X4887468Y255270D02*
G01*
X4866132Y238252D01*
X4866944Y236778D01*
X4868164Y235762D01*
X4869789Y235153D01*
X4871720Y234950D01*
X4942332Y234950D01*
X4942332Y169926D01*
X4907280Y169926D01*
X4896104Y184150D01*
X4888738Y178460D01*
X4875276Y167386D01*
X4876139Y165912D01*
X4877409Y164896D01*
X4879136Y164287D01*
X4881118Y164084D01*
X4942332Y164084D01*
X4942332Y88392D01*
X4892040Y88392D01*
X4880356Y103124D01*
X4865674Y91643D01*
X4859020Y85852D01*
X4859629Y84378D01*
X4860696Y83362D01*
X4862220Y82753D01*
X4864100Y82550D01*
X5044948Y82550D01*
X5046472Y88392D01*
X5015738Y88392D01*
X5015738Y192532D01*
X4991100Y189992D01*
X4991912Y188061D01*
X4993284Y186436D01*
X4995468Y185216D01*
X4998720Y184404D01*
X4998720Y88392D01*
X4959604Y88392D01*
X4959604Y234950D01*
X5036312Y234950D01*
X5037836Y240792D01*
X4899406Y240792D01*
G37*
G36*
X4709160Y253746D02*
G01*
X4701184Y252933D01*
X4694377Y251561D01*
X4688687Y249732D01*
X4684064Y247548D01*
X4680458Y245059D01*
X4677765Y242468D01*
X4675936Y239775D01*
X4674920Y237134D01*
X4674616Y234594D01*
X4674971Y232308D01*
X4675936Y230276D01*
X4677410Y228701D01*
X4679340Y227634D01*
X4681677Y227126D01*
X4684369Y227329D01*
X4687316Y228346D01*
X4691532Y234696D01*
X4697526Y241096D01*
X4704283Y247040D01*
X4710938Y251967D01*
G37*
G36*
X4047490Y240792D02*
G01*
X4040632Y240436D01*
X4034434Y239471D01*
X4028897Y237896D01*
X4024020Y235712D01*
X4019702Y233019D01*
X4016044Y229768D01*
X4012946Y226060D01*
X4010456Y221894D01*
X4008526Y217322D01*
X4007154Y212344D01*
X4006342Y207060D01*
X4006087Y201422D01*
X4006342Y196697D01*
X4007104Y192074D01*
X4008374Y187502D01*
X4010304Y182880D01*
X4012793Y178104D01*
X4015943Y173075D01*
X4019804Y167741D01*
X4029760Y155752D01*
X4042918Y141376D01*
X4076954Y106172D01*
X3999737Y106172D01*
X3999737Y88900D01*
X4091178Y88900D01*
X4091178Y102616D01*
X4057396Y140970D01*
X4047540Y152704D01*
X4039565Y163372D01*
X4036263Y168402D01*
X4033418Y173278D01*
X4031030Y177952D01*
X4029100Y182575D01*
X4027576Y187096D01*
X4026509Y191516D01*
X4025849Y195986D01*
X4025646Y200406D01*
X4026103Y207264D01*
X4027525Y213410D01*
X4029811Y218846D01*
X4032961Y223418D01*
X4036872Y227126D01*
X4041495Y229870D01*
X4046829Y231597D01*
X4052824Y232156D01*
X4058310Y231800D01*
X4064762Y230632D01*
X4069334Y214375D01*
X4071467Y207924D01*
X4074210Y203555D01*
X4077512Y201168D01*
X4081526Y200406D01*
X4084777Y200914D01*
X4087723Y202336D01*
X4090212Y204470D01*
X4092194Y207264D01*
X4091076Y212598D01*
X4089349Y217525D01*
X4087012Y221945D01*
X4084167Y225907D01*
X4080814Y229362D01*
X4077004Y232410D01*
X4072788Y234950D01*
X4068216Y237083D01*
X4063390Y238709D01*
X4058259Y239877D01*
X4052976Y240538D01*
G37*
G36*
X3895851Y240792D02*
G01*
X3894836Y234950D01*
X3902557Y232917D01*
X3909720Y230581D01*
X3916426Y227939D01*
X3922623Y224993D01*
X3928364Y221742D01*
X3933596Y218135D01*
X3938371Y214274D01*
X3942740Y210058D01*
X3946601Y205536D01*
X3950004Y200710D01*
X3953001Y195580D01*
X3955542Y190144D01*
X3957675Y184404D01*
X3959402Y178358D01*
X3960723Y172008D01*
X3961637Y165354D01*
X3958031Y168656D01*
X3954170Y171602D01*
X3950208Y174040D01*
X3946042Y176123D01*
X3941775Y177749D01*
X3937406Y178866D01*
X3932885Y179578D01*
X3928364Y179832D01*
X3922522Y179476D01*
X3916984Y178409D01*
X3911854Y176682D01*
X3907180Y174345D01*
X3902913Y171348D01*
X3899103Y167792D01*
X3895851Y163626D01*
X3893108Y158902D01*
X3890873Y153670D01*
X3889298Y147980D01*
X3888333Y141782D01*
X3887978Y135128D01*
X3888142Y132080D01*
X3907028Y132080D01*
X3907536Y140716D01*
X3908958Y148082D01*
X3911244Y154228D01*
X3914343Y159207D01*
X3918153Y163068D01*
X3922674Y165760D01*
X3927805Y167386D01*
X3933444Y167894D01*
X3940810Y167335D01*
X3948176Y165506D01*
X3955389Y162204D01*
X3962146Y157226D01*
X3961942Y143408D01*
X3961231Y134924D01*
X3960164Y127254D01*
X3958640Y120396D01*
X3956710Y114350D01*
X3954373Y109118D01*
X3951681Y104648D01*
X3948633Y100990D01*
X3945229Y98145D01*
X3941470Y96113D01*
X3937355Y94894D01*
X3932936Y94488D01*
X3927449Y95046D01*
X3922471Y96824D01*
X3918051Y99771D01*
X3914241Y103835D01*
X3911193Y109118D01*
X3908907Y115620D01*
X3907536Y123240D01*
X3907028Y132080D01*
X3888142Y132080D01*
X3888384Y127609D01*
X3889501Y120650D01*
X3891330Y114300D01*
X3893820Y108508D01*
X3896969Y103378D01*
X3900728Y98907D01*
X3904996Y95046D01*
X3909822Y91897D01*
X3915105Y89357D01*
X3920794Y87579D01*
X3926941Y86461D01*
X3933444Y86106D01*
X3938879Y86360D01*
X3944061Y87223D01*
X3948937Y88544D01*
X3953510Y90424D01*
X3957828Y92811D01*
X3961790Y95707D01*
X3965397Y99060D01*
X3968699Y102920D01*
X3971696Y107238D01*
X3974287Y112064D01*
X3976471Y117297D01*
X3978351Y122986D01*
X3979773Y129082D01*
X3980840Y135585D01*
X3981500Y142544D01*
X3981704Y149860D01*
X3981551Y155549D01*
X3981043Y161188D01*
X3980281Y166725D01*
X3979164Y172110D01*
X3977741Y177393D01*
X3976065Y182575D01*
X3974033Y187604D01*
X3971696Y192481D01*
X3969054Y197154D01*
X3966159Y201676D01*
X3962958Y206044D01*
X3959453Y210210D01*
X3955643Y214121D01*
X3951579Y217830D01*
X3947261Y221335D01*
X3942587Y224586D01*
X3937711Y227634D01*
X3932529Y230378D01*
X3927043Y232867D01*
X3921353Y235051D01*
X3915359Y236931D01*
X3909110Y238556D01*
X3902608Y239826D01*
G37*
G36*
X4179062Y237744D02*
G01*
X4179062Y226821D01*
X4231640Y88900D01*
X4248658Y88900D01*
X4250690Y90932D01*
X4191508Y220471D01*
X4269486Y220471D01*
X4269486Y237744D01*
G37*
G36*
X4282694Y194310D02*
G01*
X4282694Y186944D01*
X4295140Y184150D01*
X4331716Y87376D01*
X4340860Y87376D01*
X4380738Y185166D01*
X4393438Y186944D01*
X4393438Y194310D01*
X4340098Y194310D01*
X4340098Y186944D01*
X4359402Y184912D01*
X4331208Y109728D01*
X4305300Y184150D01*
X4323588Y186944D01*
X4323588Y194310D01*
G37*
G36*
X4758436Y186436D02*
G01*
X4751781Y181051D01*
X4739640Y170688D01*
X4740300Y169367D01*
X4741468Y168402D01*
X4743145Y167843D01*
X4745228Y167640D01*
X4780534Y167640D01*
X4780534Y108712D01*
X4735322Y119633D01*
X4734560Y116332D01*
X4772050Y101142D01*
X4795977Y91846D01*
X4823968Y81534D01*
X4824730Y79908D01*
X4825796Y78587D01*
X4827066Y77571D01*
X4828540Y76962D01*
X4839716Y95504D01*
X4797044Y104648D01*
X4797044Y167640D01*
X4832604Y167640D01*
X4834128Y173482D01*
X4768850Y173482D01*
G37*
G36*
X4135628Y116332D02*
G01*
X4129735Y115112D01*
X4124858Y111810D01*
X4121607Y106883D01*
X4120387Y100838D01*
X4121607Y95199D01*
X4124858Y90525D01*
X4129735Y87325D01*
X4135628Y86106D01*
X4141520Y87325D01*
X4146397Y90525D01*
X4149648Y95199D01*
X4150868Y100838D01*
X4149648Y106883D01*
X4146397Y111810D01*
X4141520Y115112D01*
G37*
D10*
X3301994Y6350002D02*
G01*
X4571994Y7620002D01*
X507994Y1016002D02*
G01*
X827501Y1335509D01*
X827501Y3177009D01*
X399079Y3605430D01*
X399079Y4971087D01*
X507994Y5080002D01*
X507994Y1778002D02*
G01*
X358287Y1927710D01*
X358287Y5692294D01*
X507994Y5842002D01*
X507994Y3810002D02*
G01*
X2920994Y6223002D01*
X3428994Y6223002D01*
X4825994Y7620002D01*
X1269994Y7620002D02*
G01*
X1015994Y7366002D01*
X507994Y7366002D01*
X1015994Y7620002D02*
G01*
X605530Y7620002D01*
X395701Y7410173D01*
X395701Y7224295D01*
X507994Y7112002D01*
X507994Y6350002D02*
G01*
X2014291Y6350002D01*
X3397981Y7733692D01*
X4966304Y7733692D01*
X5079994Y7620002D01*
D11*
G01*
X4318000Y7620000D03*
G01*
X4572000Y7620000D03*
G01*
X4826000Y7620000D03*
G01*
X5080000Y7620000D03*
G01*
X3302000Y4318000D03*
G01*
X3302000Y7366000D03*
G01*
X3302000Y5588000D03*
G01*
X3302000Y5842000D03*
G01*
X3302000Y5334000D03*
G01*
X3302000Y4572000D03*
G01*
X3302000Y4826000D03*
G01*
X3302000Y5080000D03*
G01*
X3302000Y6858000D03*
G01*
X3302000Y6096000D03*
G01*
X3302000Y4064000D03*
G01*
X3302000Y7112000D03*
G01*
X3302000Y6604000D03*
G01*
X3302000Y3810000D03*
G01*
X3302000Y6350000D03*
G01*
X508000Y3810000D03*
G01*
X508000Y4064000D03*
G01*
X508000Y4318000D03*
G01*
X508000Y4572000D03*
G01*
X508000Y5588000D03*
G01*
X508000Y5842000D03*
G01*
X508000Y6096000D03*
G01*
X508000Y6350000D03*
G01*
X508000Y6604000D03*
G01*
X508000Y6858000D03*
G01*
X508000Y7366000D03*
G01*
X508000Y5080000D03*
G01*
X508000Y4826000D03*
G01*
X508000Y7112000D03*
G01*
X508000Y5334000D03*
G01*
X508000Y2032000D03*
G01*
X508000Y1524000D03*
G01*
X508000Y1778000D03*
G01*
X508000Y1270000D03*
G01*
X508000Y1016000D03*
G01*
X1016000Y7620000D03*
G01*
X1778000Y7620000D03*
G01*
X1524000Y7620000D03*
G01*
X1270000Y7620000D03*
D12*
G01*
X599465Y663575D03*
G01*
X3698265Y663575D03*
G01*
X4396765Y663575D03*
G01*
X4394200Y2400300D03*
G01*
X596900Y2997200D03*
G01*
X596900Y2425700D03*
G01*
X3200400Y2997200D03*
G01*
X609600Y8191500D03*
G01*
X3200400Y8191500D03*
G01*
X3695700Y8191500D03*
G01*
X3695700Y7302500D03*
G01*
X1397000Y2997200D03*
G01*
X4394200Y2997200D03*
M02*
