G04 Layer: TopSolderMaskLayer*
G04 EasyEDA v6.5.42, 2024-04-09 21:11:16*
G04 8ce7d1ffee1c46cb85fdaf2a2eaa2a6a,39b48822c415407c9d70bdcb49bf9cf0,10*
G04 Gerber Generator version 0.2*
G04 Scale: 100 percent, Rotated: No, Reflected: No *
G04 Dimensions in millimeters *
G04 leading zeros omitted , absolute positions ,4 integer and 5 decimal *
%FSLAX45Y45*%
%MOMM*%

%ADD10C,2.0240*%
%ADD11C,4.1016*%

%LPD*%
D10*
G01*
X4318000Y7620000D03*
G01*
X4572000Y7620000D03*
G01*
X4826000Y7620000D03*
G01*
X5080000Y7620000D03*
G01*
X3302000Y4318000D03*
G01*
X3302000Y7366000D03*
G01*
X3302000Y5588000D03*
G01*
X3302000Y5842000D03*
G01*
X3302000Y5334000D03*
G01*
X3302000Y4572000D03*
G01*
X3302000Y4826000D03*
G01*
X3302000Y5080000D03*
G01*
X3302000Y6858000D03*
G01*
X3302000Y6096000D03*
G01*
X3302000Y4064000D03*
G01*
X3302000Y7112000D03*
G01*
X3302000Y6604000D03*
G01*
X3302000Y3810000D03*
G01*
X3302000Y6350000D03*
G01*
X508000Y3810000D03*
G01*
X508000Y4064000D03*
G01*
X508000Y4318000D03*
G01*
X508000Y4572000D03*
G01*
X508000Y5588000D03*
G01*
X508000Y5842000D03*
G01*
X508000Y6096000D03*
G01*
X508000Y6350000D03*
G01*
X508000Y6604000D03*
G01*
X508000Y6858000D03*
G01*
X508000Y7366000D03*
G01*
X508000Y5080000D03*
G01*
X508000Y4826000D03*
G01*
X508000Y7112000D03*
G01*
X508000Y5334000D03*
G01*
X508000Y2032000D03*
G01*
X508000Y1524000D03*
G01*
X508000Y1778000D03*
G01*
X508000Y1270000D03*
G01*
X508000Y1016000D03*
G01*
X1016000Y7620000D03*
G01*
X1778000Y7620000D03*
G01*
X1524000Y7620000D03*
G01*
X1270000Y7620000D03*
D11*
G01*
X599465Y663575D03*
G01*
X3698265Y663575D03*
G01*
X4396765Y663575D03*
G01*
X4394200Y2400300D03*
G01*
X596900Y2997200D03*
G01*
X596900Y2425700D03*
G01*
X3200400Y2997200D03*
G01*
X609600Y8191500D03*
G01*
X3200400Y8191500D03*
G01*
X3695700Y8191500D03*
G01*
X3695700Y7302500D03*
G01*
X1397000Y2997200D03*
G01*
X4394200Y2997200D03*
M02*
