G04 Layer: BottomSilkscreenLayer*
G04 EasyEDA v6.5.42, 2024-04-09 21:11:16*
G04 8ce7d1ffee1c46cb85fdaf2a2eaa2a6a,39b48822c415407c9d70bdcb49bf9cf0,10*
G04 Gerber Generator version 0.2*
G04 Scale: 100 percent, Rotated: No, Reflected: No *
G04 Dimensions in millimeters *
G04 leading zeros omitted , absolute positions ,4 integer and 5 decimal *
%FSLAX45Y45*%
%MOMM*%

%ADD10C,0.1524*%

%LPD*%
G36*
X2001672Y2456942D02*
G01*
X2001672Y2209596D01*
X2038299Y2209596D01*
X2038654Y2419908D01*
X2195068Y2420162D01*
X2232660Y2420010D01*
X2245969Y2419705D01*
X2248611Y2419299D01*
X2248865Y2372512D01*
X2248611Y2209952D01*
X2001672Y2209596D01*
X2001672Y2172970D01*
X2285644Y2172970D01*
X2285644Y2456942D01*
G37*
G36*
X1832203Y2456942D02*
G01*
X1832203Y2420264D01*
X1868830Y2420264D01*
X1868830Y2456942D01*
G37*
G36*
X1708505Y2456942D02*
G01*
X1708505Y2420264D01*
X1745183Y2420264D01*
X1745183Y2456942D01*
G37*
G36*
X1456639Y2456942D02*
G01*
X1456232Y2416098D01*
X1415389Y2415692D01*
X1415389Y2337866D01*
X1456232Y2337460D01*
X1456639Y2214168D01*
X1502054Y2213813D01*
X1502054Y2127504D01*
X1452016Y2127148D01*
X1452016Y2209596D01*
X1415389Y2209596D01*
X1415034Y2127504D01*
X1332941Y2127148D01*
X1332744Y1998929D01*
X1369568Y1998929D01*
X1369974Y2044344D01*
X1410766Y2044750D01*
X1411173Y2085543D01*
X1581200Y2085797D01*
X1609648Y2085644D01*
X1623060Y2085339D01*
X1625752Y2084984D01*
X1625955Y2077872D01*
X1625701Y2040483D01*
X1543659Y2040128D01*
X1543253Y1999284D01*
X1456639Y1998878D01*
X1456232Y1958086D01*
X1410817Y1957679D01*
X1410817Y1998929D01*
X1332744Y1998929D01*
X1332585Y1916836D01*
X1291742Y1916430D01*
X1291742Y1838604D01*
X1328369Y1838604D01*
X1328775Y1879447D01*
X1415034Y1879447D01*
X1415034Y1793189D01*
X1291742Y1792782D01*
X1291742Y1756206D01*
X1332585Y1755800D01*
X1332992Y1714957D01*
X1373784Y1714550D01*
X1373784Y1623720D01*
X1250543Y1623314D01*
X1250137Y1541272D01*
X1209294Y1540865D01*
X1209294Y1463040D01*
X1250137Y1462633D01*
X1250137Y1458417D01*
X1287119Y1458417D01*
X1287526Y1586331D01*
X1401876Y1586484D01*
X1413713Y1586077D01*
X1415034Y1585722D01*
X1415186Y1576628D01*
X1415034Y1458823D01*
X1250137Y1458417D01*
X1250137Y1376375D01*
X1209294Y1375968D01*
X1209294Y1339392D01*
X1250137Y1338986D01*
X1250137Y1293926D01*
X1209294Y1293520D01*
X1287119Y1293520D01*
X1287526Y1338986D01*
X1328369Y1339392D01*
X1328369Y1376019D01*
X1287119Y1376019D01*
X1287526Y1421434D01*
X1382318Y1421688D01*
X1406194Y1421536D01*
X1412036Y1421333D01*
X1415034Y1420876D01*
X1415237Y1407718D01*
X1415034Y1335176D01*
X1332992Y1334770D01*
X1332585Y1293926D01*
X1287119Y1293520D01*
X1209294Y1293520D01*
X1209294Y1256944D01*
X1497787Y1256944D01*
X1498244Y1297736D01*
X1543253Y1297736D01*
X1543659Y1256944D01*
X1662734Y1256944D01*
X1662734Y1293571D01*
X1621485Y1293571D01*
X1621485Y1334770D01*
X1452016Y1334770D01*
X1452422Y1380185D01*
X1497838Y1380591D01*
X1497838Y1417218D01*
X1452016Y1417218D01*
X1452422Y1503883D01*
X1497838Y1504289D01*
X1498244Y1627530D01*
X1543253Y1627530D01*
X1543659Y1545488D01*
X1584452Y1545082D01*
X1584858Y1504238D01*
X1621485Y1504238D01*
X1621891Y1545082D01*
X1662734Y1545488D01*
X1662734Y1623314D01*
X1621485Y1623314D01*
X1621485Y1669135D01*
X1539036Y1669135D01*
X1539036Y1710334D01*
X1502460Y1710334D01*
X1502054Y1669491D01*
X1456639Y1669135D01*
X1456232Y1623720D01*
X1410817Y1623314D01*
X1411173Y1714550D01*
X1452016Y1714957D01*
X1452422Y1755800D01*
X1497838Y1756156D01*
X1497838Y1834032D01*
X1452016Y1834032D01*
X1452422Y1920646D01*
X1497787Y1921052D01*
X1498244Y1961896D01*
X1543253Y1961896D01*
X1543253Y1916836D01*
X1502410Y1916430D01*
X1502410Y1879854D01*
X1543253Y1879447D01*
X1543659Y1756156D01*
X1580286Y1756156D01*
X1580642Y1838198D01*
X1662734Y1838604D01*
X1662734Y1875231D01*
X1580235Y1875231D01*
X1580642Y1920646D01*
X1745183Y1921052D01*
X1745183Y1957679D01*
X1621485Y1957679D01*
X1621891Y2003094D01*
X1703933Y2003501D01*
X1703933Y2040128D01*
X1662684Y2040128D01*
X1663090Y2085543D01*
X1703933Y2085949D01*
X1703933Y2127148D01*
X1580286Y2127148D01*
X1580286Y2168347D01*
X1539036Y2168347D01*
X1539443Y2213813D01*
X1584452Y2213813D01*
X1584858Y2172970D01*
X1621485Y2172970D01*
X1621485Y2292045D01*
X1539036Y2292045D01*
X1539036Y2333244D01*
X1497838Y2333244D01*
X1498244Y2378659D01*
X1539036Y2379065D01*
X1539443Y2419908D01*
X1580286Y2420315D01*
X1580286Y2456942D01*
G37*
G36*
X1085646Y2456942D02*
G01*
X1085646Y2209596D01*
X1122273Y2209596D01*
X1122629Y2419908D01*
X1279042Y2420162D01*
X1316634Y2420010D01*
X1329944Y2419705D01*
X1332585Y2419299D01*
X1332839Y2363825D01*
X1332585Y2209952D01*
X1085646Y2209596D01*
X1085646Y2172970D01*
X1369568Y2172970D01*
X1369568Y2456942D01*
G37*
G36*
X1873402Y2415692D02*
G01*
X1873402Y2379065D01*
X1910029Y2379065D01*
X1910029Y2415692D01*
G37*
G36*
X1626057Y2415692D02*
G01*
X1626057Y2379065D01*
X1662734Y2379065D01*
X1662734Y2415692D01*
G37*
G36*
X2084120Y2374493D02*
G01*
X2084120Y2255418D01*
X2203196Y2255418D01*
X2203196Y2374493D01*
G37*
G36*
X1914652Y2374493D02*
G01*
X1914652Y2337816D01*
X1955850Y2337816D01*
X1955850Y2374493D01*
G37*
G36*
X1790954Y2374493D02*
G01*
X1790954Y2337816D01*
X1827580Y2337816D01*
X1827580Y2374493D01*
G37*
G36*
X1667306Y2374493D02*
G01*
X1667306Y2337866D01*
X1708150Y2337460D01*
X1708556Y2296617D01*
X1749348Y2296210D01*
X1749755Y2172970D01*
X1786382Y2172970D01*
X1786788Y2213813D01*
X1831797Y2213813D01*
X1832203Y2172970D01*
X1868830Y2172970D01*
X1868830Y2250795D01*
X1786382Y2250795D01*
X1786382Y2333244D01*
X1745183Y2333244D01*
X1745183Y2374493D01*
G37*
G36*
X1168044Y2374493D02*
G01*
X1168044Y2255418D01*
X1287170Y2255418D01*
X1287170Y2374493D01*
G37*
G36*
X1873402Y2333244D02*
G01*
X1873402Y2255418D01*
X1910029Y2255418D01*
X1910029Y2333244D01*
G37*
G36*
X1667306Y2292045D02*
G01*
X1667306Y2255418D01*
X1703933Y2255418D01*
X1703933Y2292045D01*
G37*
G36*
X1914652Y2209596D02*
G01*
X1914245Y2081733D01*
X1873402Y2081326D01*
X1873402Y2044700D01*
X1955850Y2044700D01*
X1956206Y2085543D01*
X2042464Y2085543D01*
X2042922Y2044700D01*
X2120747Y2044700D01*
X2120747Y2127148D01*
X1955850Y2127148D01*
X1955850Y2209596D01*
G37*
G36*
X1667306Y2209596D02*
G01*
X1667306Y2172970D01*
X1703933Y2172970D01*
X1703933Y2209596D01*
G37*
G36*
X1790954Y2168347D02*
G01*
X1790954Y2131720D01*
X1827580Y2131720D01*
X1827580Y2168347D01*
G37*
G36*
X2166518Y2127148D02*
G01*
X2166518Y2044700D01*
X2203145Y2044700D01*
X2203551Y2085543D01*
X2285644Y2085949D01*
X2285644Y2127148D01*
G37*
G36*
X1749755Y2127148D02*
G01*
X1749348Y2081733D01*
X1708505Y2081326D01*
X1708505Y2044750D01*
X1749348Y2044344D01*
X1749755Y1962251D01*
X1786382Y1962251D01*
X1786788Y2003094D01*
X1831797Y2003094D01*
X1831797Y1958086D01*
X1790954Y1957679D01*
X1790954Y1879854D01*
X1873046Y1879447D01*
X1873046Y1834388D01*
X1790954Y1833981D01*
X1790954Y1797405D01*
X1831797Y1796999D01*
X1831797Y1751939D01*
X1786382Y1751533D01*
X1786382Y1792782D01*
X1749755Y1792782D01*
X1749348Y1751939D01*
X1708505Y1751533D01*
X1708505Y1673758D01*
X1749348Y1673352D01*
X1749348Y1623720D01*
X1708505Y1623314D01*
X1786382Y1623314D01*
X1786788Y1673352D01*
X1901139Y1673504D01*
X1912924Y1673098D01*
X1914296Y1672742D01*
X1914448Y1663344D01*
X1914245Y1541272D01*
X1868830Y1540865D01*
X1868830Y1623314D01*
X1708505Y1623314D01*
X1708505Y1586687D01*
X1790598Y1586331D01*
X1791004Y1545488D01*
X1831797Y1545082D01*
X1831797Y1500073D01*
X1790954Y1499666D01*
X1790954Y1463040D01*
X1831797Y1462633D01*
X1831839Y1458417D01*
X1868779Y1458417D01*
X1869186Y1503883D01*
X1902460Y1504137D01*
X1909419Y1504035D01*
X1913077Y1503781D01*
X1914296Y1503273D01*
X1914499Y1496212D01*
X1914245Y1458823D01*
X1868779Y1458417D01*
X1831839Y1458417D01*
X1832203Y1421841D01*
X1873046Y1421434D01*
X1873453Y1380591D01*
X1910029Y1380591D01*
X1910435Y1421434D01*
X1955850Y1421841D01*
X1956206Y1627530D01*
X1997049Y1627936D01*
X1997049Y1669135D01*
X1955850Y1669135D01*
X1956206Y1714550D01*
X1997049Y1714957D01*
X1997456Y1755800D01*
X2038299Y1756206D01*
X2038299Y1792782D01*
X1955850Y1792782D01*
X1955850Y1834032D01*
X1910029Y1834032D01*
X1910435Y1879447D01*
X1955850Y1879854D01*
X1955850Y1916480D01*
X1868779Y1916480D01*
X1869186Y1961896D01*
X1910029Y1962302D01*
X1910029Y1998929D01*
X1868830Y1998929D01*
X1868830Y2040128D01*
X1827580Y2040128D01*
X1827580Y2081326D01*
X1786382Y2081326D01*
X1786382Y2127148D01*
G37*
G36*
X1168044Y2127148D02*
G01*
X1168044Y2085949D01*
X1204722Y2085949D01*
X1204722Y2127148D01*
G37*
G36*
X1209294Y2081326D02*
G01*
X1209294Y2044700D01*
X1245920Y2044700D01*
X1245920Y2081326D01*
G37*
G36*
X1085646Y2081326D02*
G01*
X1085646Y2003501D01*
X1126439Y2003094D01*
X1126439Y1958086D01*
X1085646Y1957679D01*
X1085646Y1838604D01*
X1126439Y1838198D01*
X1126439Y1793189D01*
X1085646Y1792782D01*
X1085646Y1673758D01*
X1126439Y1673352D01*
X1126845Y1627886D01*
X1163472Y1627886D01*
X1163472Y1710334D01*
X1122222Y1710334D01*
X1122629Y1755800D01*
X1163472Y1756206D01*
X1163472Y1875231D01*
X1122222Y1875231D01*
X1122629Y1920646D01*
X1163472Y1921052D01*
X1163878Y2003094D01*
X1204722Y2003501D01*
X1204722Y2040128D01*
X1122273Y2040128D01*
X1122273Y2081326D01*
G37*
G36*
X2207768Y2040128D02*
G01*
X2207768Y2003501D01*
X2248611Y2003094D01*
X2249017Y1962251D01*
X2285644Y1962251D01*
X2285644Y2040128D01*
G37*
G36*
X2001672Y2040128D02*
G01*
X2001672Y2003501D01*
X2038299Y2003501D01*
X2038299Y2040128D01*
G37*
G36*
X2166518Y1998929D02*
G01*
X2166518Y1962251D01*
X2203196Y1962251D01*
X2203196Y1998929D01*
G37*
G36*
X2042871Y1998929D02*
G01*
X2042871Y1962251D01*
X2079498Y1962251D01*
X2079498Y1998929D01*
G37*
G36*
X1960422Y1998929D02*
G01*
X1960422Y1921052D01*
X2038299Y1921052D01*
X2038299Y1957679D01*
X1997049Y1957679D01*
X1997049Y1998929D01*
G37*
G36*
X1250492Y1998929D02*
G01*
X1250492Y1962251D01*
X1287170Y1962251D01*
X1287170Y1998929D01*
G37*
G36*
X2207768Y1957679D02*
G01*
X2207361Y1916836D01*
X2166518Y1916430D01*
X2166518Y1838604D01*
X2207361Y1838198D01*
X2207361Y1793189D01*
X2161946Y1792782D01*
X2161946Y1834032D01*
X2042871Y1834032D01*
X2042871Y1797405D01*
X2124913Y1796999D01*
X2124913Y1751939D01*
X2042871Y1751584D01*
X2042871Y1714957D01*
X2083714Y1714550D01*
X2083714Y1669491D01*
X2042922Y1669084D01*
X2042464Y1623720D01*
X2001672Y1623314D01*
X2001672Y1586687D01*
X2161946Y1586687D01*
X2162352Y1714550D01*
X2244394Y1714957D01*
X2244801Y1755800D01*
X2285644Y1756206D01*
X2285644Y1834032D01*
X2244394Y1834032D01*
X2244801Y1879447D01*
X2285644Y1879854D01*
X2285644Y1916480D01*
X2244394Y1916480D01*
X2244394Y1957679D01*
G37*
G36*
X2084120Y1957679D02*
G01*
X2084120Y1921052D01*
X2161946Y1921052D01*
X2161946Y1957679D01*
G37*
G36*
X1209294Y1957679D02*
G01*
X1208887Y1751939D01*
X1168044Y1751533D01*
X1168044Y1714957D01*
X1245920Y1714957D01*
X1245920Y1957679D01*
G37*
G36*
X1960422Y1875231D02*
G01*
X1960422Y1838604D01*
X2038299Y1838604D01*
X2038299Y1875231D01*
G37*
G36*
X1708556Y1875231D02*
G01*
X1708150Y1834388D01*
X1667306Y1833981D01*
X1666900Y1793189D01*
X1626057Y1792782D01*
X1626057Y1673707D01*
X1662684Y1673707D01*
X1663090Y1755800D01*
X1703933Y1756206D01*
X1704339Y1796999D01*
X1745183Y1797405D01*
X1745183Y1875231D01*
G37*
G36*
X2248966Y1710334D02*
G01*
X2248966Y1673707D01*
X2285644Y1673707D01*
X2285644Y1710334D01*
G37*
G36*
X2001672Y1710334D02*
G01*
X2001672Y1673707D01*
X2038299Y1673707D01*
X2038299Y1710334D01*
G37*
G36*
X1291742Y1710334D02*
G01*
X1291742Y1673707D01*
X1328369Y1673707D01*
X1328369Y1710334D01*
G37*
G36*
X2207768Y1669135D02*
G01*
X2207768Y1627886D01*
X2244394Y1627886D01*
X2244394Y1669135D01*
G37*
G36*
X1209294Y1669135D02*
G01*
X1209294Y1627886D01*
X1245920Y1627886D01*
X1245920Y1669135D01*
G37*
G36*
X2248966Y1623314D02*
G01*
X2248966Y1586687D01*
X2285644Y1586687D01*
X2285644Y1623314D01*
G37*
G36*
X1085646Y1582115D02*
G01*
X1085646Y1463040D01*
X1126439Y1462633D01*
X1126845Y1421790D01*
X1163472Y1421790D01*
X1163878Y1545082D01*
X1204722Y1545488D01*
X1204722Y1582115D01*
G37*
G36*
X2001672Y1540865D02*
G01*
X2001672Y1293571D01*
X2038299Y1293571D01*
X2038654Y1503883D01*
X2195068Y1504137D01*
X2227224Y1504035D01*
X2247442Y1503578D01*
X2248611Y1503273D01*
X2248865Y1456436D01*
X2248611Y1293926D01*
X2001672Y1293571D01*
X2001672Y1256944D01*
X2285644Y1256944D01*
X2285644Y1540865D01*
G37*
G36*
X1749755Y1540865D02*
G01*
X1749755Y1504238D01*
X1786382Y1504238D01*
X1786382Y1540865D01*
G37*
G36*
X1332941Y1540865D02*
G01*
X1332941Y1504238D01*
X1369568Y1504238D01*
X1369568Y1540865D01*
G37*
G36*
X1626057Y1499666D02*
G01*
X1626057Y1463040D01*
X1666900Y1462633D01*
X1667306Y1421790D01*
X1703933Y1421790D01*
X1704339Y1462633D01*
X1745183Y1463040D01*
X1745183Y1499666D01*
G37*
G36*
X1543659Y1499666D02*
G01*
X1543659Y1380591D01*
X1580235Y1380591D01*
X1580642Y1421434D01*
X1621485Y1421841D01*
X1621485Y1458468D01*
X1580286Y1458468D01*
X1580286Y1499666D01*
G37*
G36*
X2084120Y1458468D02*
G01*
X2084120Y1339342D01*
X2203196Y1339342D01*
X2203196Y1458468D01*
G37*
G36*
X1749755Y1458468D02*
G01*
X1749348Y1417624D01*
X1708505Y1417218D01*
X1708505Y1339342D01*
X1745132Y1339342D01*
X1745538Y1380185D01*
X1786382Y1380591D01*
X1786382Y1458468D01*
G37*
G36*
X1168044Y1417218D02*
G01*
X1168044Y1380591D01*
X1204722Y1380591D01*
X1204722Y1417218D01*
G37*
G36*
X1914652Y1376019D02*
G01*
X1914245Y1293926D01*
X1873402Y1293520D01*
X1873402Y1256944D01*
X1955850Y1256944D01*
X1955850Y1376019D01*
G37*
G36*
X1791004Y1376019D02*
G01*
X1790598Y1335176D01*
X1749755Y1334770D01*
X1749348Y1293926D01*
X1708505Y1293520D01*
X1708505Y1256944D01*
X1786382Y1256944D01*
X1786788Y1297736D01*
X1827580Y1298143D01*
X1827987Y1338986D01*
X1868830Y1339392D01*
X1868830Y1376019D01*
G37*
G36*
X1085646Y1376019D02*
G01*
X1085646Y1339342D01*
X1122273Y1339342D01*
X1122273Y1376019D01*
G37*
G36*
X1126845Y1334770D02*
G01*
X1126439Y1293926D01*
X1085646Y1293520D01*
X1085646Y1256944D01*
X1163472Y1256944D01*
X1163472Y1334770D01*
G37*
G36*
X4269232Y1184402D02*
G01*
X4269232Y929386D01*
X4279493Y929386D01*
X4279493Y1184402D01*
G37*
G36*
X4256887Y1184402D02*
G01*
X4256887Y929386D01*
X4261002Y929386D01*
X4261002Y1184402D01*
G37*
G36*
X4238396Y1184402D02*
G01*
X4238396Y929386D01*
X4242511Y929386D01*
X4242511Y1184402D01*
G37*
G36*
X4207510Y1184402D02*
G01*
X4207510Y929386D01*
X4211624Y929386D01*
X4211624Y1184402D01*
G37*
G36*
X4182872Y1184402D02*
G01*
X4182872Y929386D01*
X4193133Y929386D01*
X4193133Y1184402D01*
G37*
G36*
X4151985Y1184402D02*
G01*
X4151985Y929386D01*
X4156100Y929386D01*
X4156100Y1184402D01*
G37*
G36*
X4139692Y1184402D02*
G01*
X4139692Y929386D01*
X4143756Y929386D01*
X4143756Y1184402D01*
G37*
G36*
X4102658Y1184402D02*
G01*
X4102658Y929386D01*
X4125264Y929386D01*
X4125264Y1184402D01*
G37*
G36*
X4090314Y1184402D02*
G01*
X4090314Y929386D01*
X4094429Y929386D01*
X4094429Y1184402D01*
G37*
G36*
X4071823Y1184402D02*
G01*
X4071823Y929386D01*
X4075937Y929386D01*
X4075937Y1184402D01*
G37*
G36*
X4034790Y1184402D02*
G01*
X4034790Y929386D01*
X4057396Y929386D01*
X4057396Y1184402D01*
G37*
G36*
X4022445Y1184402D02*
G01*
X4022445Y929386D01*
X4026560Y929386D01*
X4026560Y1184402D01*
G37*
G36*
X4003954Y1184402D02*
G01*
X4003954Y929386D01*
X4008069Y929386D01*
X4008069Y1184402D01*
G37*
G36*
X3991610Y1184402D02*
G01*
X3991610Y929386D01*
X3995724Y929386D01*
X3995724Y1184402D01*
G37*
G36*
X3954576Y1184402D02*
G01*
X3954576Y929386D01*
X3977182Y929386D01*
X3977182Y1184402D01*
G37*
G36*
X3936085Y1184402D02*
G01*
X3936085Y929386D01*
X3940200Y929386D01*
X3940200Y1184402D01*
G37*
G36*
X3905199Y1184402D02*
G01*
X3905199Y929386D01*
X3927856Y929386D01*
X3927856Y1184402D01*
G37*
G36*
X3886708Y1184402D02*
G01*
X3886708Y929386D01*
X3890822Y929386D01*
X3890822Y1184402D01*
G37*
G36*
X3855872Y1184402D02*
G01*
X3855872Y929386D01*
X3872331Y929386D01*
X3872331Y1184402D01*
G37*
G36*
X3837330Y1184402D02*
G01*
X3837330Y929386D01*
X3841445Y929386D01*
X3841445Y1184402D01*
G37*
G36*
X3812692Y1184402D02*
G01*
X3812692Y929386D01*
X3822954Y929386D01*
X3822954Y1184402D01*
G37*
G36*
X3800348Y1184402D02*
G01*
X3800348Y929386D01*
X3804462Y929386D01*
X3804462Y1184402D01*
G37*
G36*
X3775659Y1184402D02*
G01*
X3775659Y929386D01*
X3792118Y929386D01*
X3792118Y1184402D01*
G37*
G36*
X3750970Y1184402D02*
G01*
X3750970Y929386D01*
X3761282Y929386D01*
X3761282Y1184402D01*
G37*
G36*
X3732479Y1184402D02*
G01*
X3732479Y929386D01*
X3736594Y929386D01*
X3736594Y1184402D01*
G37*
G36*
X3707790Y1184402D02*
G01*
X3707790Y929386D01*
X3724249Y929386D01*
X3724249Y1184402D01*
G37*
G36*
X3683101Y1184402D02*
G01*
X3683101Y929386D01*
X3693414Y929386D01*
X3693414Y1184402D01*
G37*
G36*
X3646068Y1184402D02*
G01*
X3646068Y929386D01*
X3668725Y929386D01*
X3668725Y1184402D01*
G37*
G36*
X3627577Y1184402D02*
G01*
X3627577Y929386D01*
X3631692Y929386D01*
X3631692Y1184402D01*
G37*
G36*
X3615232Y1184402D02*
G01*
X3615232Y929386D01*
X3619347Y929386D01*
X3619347Y1184402D01*
G37*
G36*
X3578250Y1184402D02*
G01*
X3578250Y929386D01*
X3600856Y929386D01*
X3600856Y1184402D01*
G37*
G36*
X3559708Y1184402D02*
G01*
X3559708Y929386D01*
X3563823Y929386D01*
X3563823Y1184402D01*
G37*
G36*
X3547364Y1184402D02*
G01*
X3547364Y929386D01*
X3551478Y929386D01*
X3551478Y1184402D01*
G37*
G36*
X3510381Y1184402D02*
G01*
X3510381Y929386D01*
X3532987Y929386D01*
X3532987Y1184402D01*
G37*
G36*
X3491839Y1184402D02*
G01*
X3491839Y929386D01*
X3495954Y929386D01*
X3495954Y1184402D01*
G37*
G36*
X3479495Y1184402D02*
G01*
X3479495Y929386D01*
X3483610Y929386D01*
X3483610Y1184402D01*
G37*
G36*
X3461004Y1184402D02*
G01*
X3461004Y929386D01*
X3465118Y929386D01*
X3465118Y1184402D01*
G37*
G36*
X3436315Y1184402D02*
G01*
X3436315Y929386D01*
X3446627Y929386D01*
X3446627Y1184402D01*
G37*
G36*
X3405479Y1184402D02*
G01*
X3405479Y929386D01*
X3421938Y929386D01*
X3421938Y1184402D01*
G37*
G36*
X3393135Y1184402D02*
G01*
X3393135Y929386D01*
X3397250Y929386D01*
X3397250Y1184402D01*
G37*
G36*
X3374644Y1184402D02*
G01*
X3374644Y929386D01*
X3378758Y929386D01*
X3378758Y1184402D01*
G37*
G36*
X3337610Y1184402D02*
G01*
X3337610Y929386D01*
X3347872Y929386D01*
X3347872Y1184402D01*
G37*
G36*
X3325266Y1184402D02*
G01*
X3325266Y929386D01*
X3329381Y929386D01*
X3329381Y1184402D01*
G37*
G36*
X3288233Y1184402D02*
G01*
X3288233Y929386D01*
X3298545Y929386D01*
X3298545Y1184402D01*
G37*
G36*
X3275888Y1184402D02*
G01*
X3275888Y929386D01*
X3280054Y929386D01*
X3280054Y1184402D01*
G37*
G36*
X3251250Y1184402D02*
G01*
X3251250Y929386D01*
X3261512Y929386D01*
X3261512Y1184402D01*
G37*
G36*
X3232708Y1184402D02*
G01*
X3232708Y929386D01*
X3236823Y929386D01*
X3236823Y1184402D01*
G37*
G36*
X3220364Y1184402D02*
G01*
X3220364Y929386D01*
X3224479Y929386D01*
X3224479Y1184402D01*
G37*
G36*
X3189528Y1184402D02*
G01*
X3189528Y929386D01*
X3193643Y929386D01*
X3193643Y1184402D01*
G37*
G36*
X3152495Y1184402D02*
G01*
X3152495Y929386D01*
X3162808Y929386D01*
X3162808Y1184402D01*
G37*
G36*
X3140202Y1184402D02*
G01*
X3140202Y929386D01*
X3144316Y929386D01*
X3144316Y1184402D01*
G37*
G36*
X3121660Y1184402D02*
G01*
X3121660Y929386D01*
X3125774Y929386D01*
X3125774Y1184402D01*
G37*
G36*
X3103168Y1184402D02*
G01*
X3103168Y929386D01*
X3107283Y929386D01*
X3107283Y1184402D01*
G37*
G36*
X3066135Y1184402D02*
G01*
X3066135Y929386D01*
X3076448Y929386D01*
X3076448Y1184402D01*
G37*
G36*
X3053791Y1184402D02*
G01*
X3053791Y929386D01*
X3057906Y929386D01*
X3057906Y1184402D01*
G37*
G36*
X3016808Y1184402D02*
G01*
X3016808Y929386D01*
X3027070Y929386D01*
X3027070Y1184402D01*
G37*
G36*
X3004464Y1184402D02*
G01*
X3004464Y929386D01*
X3008579Y929386D01*
X3008579Y1184402D01*
G37*
G36*
X2979775Y1184402D02*
G01*
X2979775Y929386D01*
X2990037Y929386D01*
X2990037Y1184402D01*
G37*
G36*
X2961284Y1184402D02*
G01*
X2961284Y929386D01*
X2965399Y929386D01*
X2965399Y1184402D01*
G37*
G36*
X2948940Y1184402D02*
G01*
X2948940Y929386D01*
X2953054Y929386D01*
X2953054Y1184402D01*
G37*
G36*
X2918053Y1184402D02*
G01*
X2918053Y929386D01*
X2922168Y929386D01*
X2922168Y1184402D01*
G37*
G36*
X2881071Y1184402D02*
G01*
X2881071Y929386D01*
X2891332Y929386D01*
X2891332Y1184402D01*
G37*
G36*
X2868726Y1184402D02*
G01*
X2868726Y929386D01*
X2872841Y929386D01*
X2872841Y1184402D01*
G37*
G36*
X2850184Y1184402D02*
G01*
X2850184Y929386D01*
X2854299Y929386D01*
X2854299Y1184402D01*
G37*
G36*
X2825546Y1184402D02*
G01*
X2825546Y929386D01*
X2835808Y929386D01*
X2835808Y1184402D01*
G37*
G36*
X2794660Y1184402D02*
G01*
X2794660Y929386D01*
X2811119Y929386D01*
X2811119Y1184402D01*
G37*
G36*
X2782366Y1184402D02*
G01*
X2782366Y929386D01*
X2786481Y929386D01*
X2786481Y1184402D01*
G37*
G36*
X2751480Y1184402D02*
G01*
X2751480Y929386D01*
X2755595Y929386D01*
X2755595Y1184402D01*
G37*
G36*
X2732989Y1184402D02*
G01*
X2732989Y929386D01*
X2743250Y929386D01*
X2743250Y1184402D01*
G37*
G36*
X2714498Y1184402D02*
G01*
X2714498Y929386D01*
X2718612Y929386D01*
X2718612Y1184402D01*
G37*
G36*
X2671267Y1184402D02*
G01*
X2671267Y929386D01*
X2693924Y929386D01*
X2693924Y1184402D01*
G37*
G36*
X2658973Y1184402D02*
G01*
X2658973Y929386D01*
X2663088Y929386D01*
X2663088Y1184402D01*
G37*
G36*
X2628087Y1184402D02*
G01*
X2628087Y929386D01*
X2650744Y929386D01*
X2650744Y1184402D01*
G37*
G36*
X2603449Y1184402D02*
G01*
X2603449Y929386D01*
X2619857Y929386D01*
X2619857Y1184402D01*
G37*
G36*
X2591104Y1184402D02*
G01*
X2591104Y929386D01*
X2595219Y929386D01*
X2595219Y1184402D01*
G37*
G36*
X2578760Y1184402D02*
G01*
X2578760Y929386D01*
X2582875Y929386D01*
X2582875Y1184402D01*
G37*
G36*
X2554071Y1184402D02*
G01*
X2554071Y929386D01*
X2570530Y929386D01*
X2570530Y1184402D01*
G37*
G36*
X2529382Y1184402D02*
G01*
X2529382Y929386D01*
X2539695Y929386D01*
X2539695Y1184402D01*
G37*
G36*
X2492349Y1184402D02*
G01*
X2492349Y929386D01*
X2515006Y929386D01*
X2515006Y1184402D01*
G37*
G36*
X2480056Y1184402D02*
G01*
X2480056Y929386D01*
X2484120Y929386D01*
X2484120Y1184402D01*
G37*
G36*
X2461514Y1184402D02*
G01*
X2461514Y929386D01*
X2465628Y929386D01*
X2465628Y1184402D01*
G37*
G36*
X2443022Y1184402D02*
G01*
X2443022Y929386D01*
X2447137Y929386D01*
X2447137Y1184402D01*
G37*
G36*
X2405989Y1184402D02*
G01*
X2405989Y929386D01*
X2416251Y929386D01*
X2416251Y1184402D01*
G37*
G36*
X2393645Y1184402D02*
G01*
X2393645Y929386D01*
X2397760Y929386D01*
X2397760Y1184402D01*
G37*
G36*
X2375154Y1184402D02*
G01*
X2375154Y929386D01*
X2379268Y929386D01*
X2379268Y1184402D01*
G37*
G36*
X2344318Y1184402D02*
G01*
X2344318Y929386D01*
X2348433Y929386D01*
X2348433Y1184402D01*
G37*
G36*
X2319629Y1184402D02*
G01*
X2319629Y929386D01*
X2329891Y929386D01*
X2329891Y1184402D01*
G37*
G36*
X2307285Y1184402D02*
G01*
X2307285Y929386D01*
X2311400Y929386D01*
X2311400Y1184402D01*
G37*
G36*
X2288794Y1184402D02*
G01*
X2288794Y929386D01*
X2299055Y929386D01*
X2299055Y1184402D01*
G37*
G36*
X2270252Y1184402D02*
G01*
X2270252Y929386D01*
X2274366Y929386D01*
X2274366Y1184402D01*
G37*
G36*
X2239416Y1184402D02*
G01*
X2239416Y929386D01*
X2243531Y929386D01*
X2243531Y1184402D01*
G37*
G36*
X2196236Y1184402D02*
G01*
X2196236Y929386D01*
X2218842Y929386D01*
X2218842Y1184402D01*
G37*
G36*
X2183892Y1184402D02*
G01*
X2183892Y929386D01*
X2188006Y929386D01*
X2188006Y1184402D01*
G37*
G36*
X2171547Y1184402D02*
G01*
X2171547Y929386D01*
X2175662Y929386D01*
X2175662Y1184402D01*
G37*
G36*
X2146858Y1184402D02*
G01*
X2146858Y929386D01*
X2163318Y929386D01*
X2163318Y1184402D01*
G37*
G36*
X2122170Y1184402D02*
G01*
X2122170Y929386D01*
X2132482Y929386D01*
X2132482Y1184402D01*
G37*
G36*
X2103678Y1184402D02*
G01*
X2103678Y929386D01*
X2107793Y929386D01*
X2107793Y1184402D01*
G37*
G36*
X2078989Y1184402D02*
G01*
X2078989Y929386D01*
X2083104Y929386D01*
X2083104Y1184402D01*
G37*
G36*
X2060498Y1184402D02*
G01*
X2060498Y929386D01*
X2070760Y929386D01*
X2070760Y1184402D01*
G37*
G36*
X2023465Y1184402D02*
G01*
X2023465Y929386D01*
X2039924Y929386D01*
X2039924Y1184402D01*
G37*
G36*
X2011121Y1184402D02*
G01*
X2011121Y929386D01*
X2015236Y929386D01*
X2015236Y1184402D01*
G37*
G36*
X1992630Y1184402D02*
G01*
X1992630Y929386D01*
X2002891Y929386D01*
X2002891Y1184402D01*
G37*
G36*
X1967941Y1184402D02*
G01*
X1967941Y929386D01*
X1972056Y929386D01*
X1972056Y1184402D01*
G37*
G36*
X1937105Y1184402D02*
G01*
X1937105Y929386D01*
X1953564Y929386D01*
X1953564Y1184402D01*
G37*
G36*
X1912416Y1184402D02*
G01*
X1912416Y929386D01*
X1922729Y929386D01*
X1922729Y1184402D01*
G37*
G36*
X1893925Y1184402D02*
G01*
X1893925Y929386D01*
X1904187Y929386D01*
X1904187Y1184402D01*
G37*
G36*
X1881581Y1184402D02*
G01*
X1881581Y929386D01*
X1885696Y929386D01*
X1885696Y1184402D01*
G37*
G36*
X1856892Y1184402D02*
G01*
X1856892Y929386D01*
X1861007Y929386D01*
X1861007Y1184402D01*
G37*
G36*
X1832203Y1184402D02*
G01*
X1832203Y929386D01*
X1836318Y929386D01*
X1836318Y1184402D01*
G37*
G36*
X1813712Y1184402D02*
G01*
X1813712Y929386D01*
X1823974Y929386D01*
X1823974Y1184402D01*
G37*
G36*
X1789023Y1184402D02*
G01*
X1789023Y929386D01*
X1805482Y929386D01*
X1805482Y1184402D01*
G37*
G36*
X1758188Y1184402D02*
G01*
X1758188Y929386D01*
X1768449Y929386D01*
X1768449Y1184402D01*
G37*
G36*
X1739646Y1184402D02*
G01*
X1739646Y929386D01*
X1743760Y929386D01*
X1743760Y1184402D01*
G37*
G36*
X1708810Y1184402D02*
G01*
X1708810Y929386D01*
X1725269Y929386D01*
X1725269Y1184402D01*
G37*
G36*
X1696466Y1184402D02*
G01*
X1696466Y929386D01*
X1700580Y929386D01*
X1700580Y1184402D01*
G37*
G36*
X1665630Y1184402D02*
G01*
X1665630Y929386D01*
X1682089Y929386D01*
X1682089Y1184402D01*
G37*
G36*
X1640941Y1184402D02*
G01*
X1640941Y929386D01*
X1651254Y929386D01*
X1651254Y1184402D01*
G37*
G36*
X1628597Y1184402D02*
G01*
X1628597Y929386D01*
X1632712Y929386D01*
X1632712Y1184402D01*
G37*
G36*
X1597761Y1184402D02*
G01*
X1597761Y929386D01*
X1614220Y929386D01*
X1614220Y1184402D01*
G37*
G36*
X1573072Y1184402D02*
G01*
X1573072Y929386D01*
X1583385Y929386D01*
X1583385Y1184402D01*
G37*
G36*
X1542237Y1184402D02*
G01*
X1542237Y929386D01*
X1564843Y929386D01*
X1564843Y1184402D01*
G37*
G36*
X1523746Y1184402D02*
G01*
X1523746Y929386D01*
X1527860Y929386D01*
X1527860Y1184402D01*
G37*
G36*
X1505204Y1184402D02*
G01*
X1505204Y929386D01*
X1509318Y929386D01*
X1509318Y1184402D01*
G37*
G36*
X1480566Y1184402D02*
G01*
X1480566Y929386D01*
X1496974Y929386D01*
X1496974Y1184402D01*
G37*
G36*
X1462024Y1184402D02*
G01*
X1462024Y929386D01*
X1472336Y929386D01*
X1472336Y1184402D01*
G37*
G36*
X1437335Y1184402D02*
G01*
X1437335Y929386D01*
X1453794Y929386D01*
X1453794Y1184402D01*
G37*
G36*
X1425041Y1184402D02*
G01*
X1425041Y929386D01*
X1429105Y929386D01*
X1429105Y1184402D01*
G37*
G36*
X1400352Y1184402D02*
G01*
X1400352Y929386D01*
X1410614Y929386D01*
X1410614Y1184402D01*
G37*
G36*
X1369466Y1184402D02*
G01*
X1369466Y929386D01*
X1373581Y929386D01*
X1373581Y1184402D01*
G37*
G36*
X1344828Y1184402D02*
G01*
X1344828Y929386D01*
X1361287Y929386D01*
X1361287Y1184402D01*
G37*
G36*
X1326286Y1184402D02*
G01*
X1326286Y929386D01*
X1336598Y929386D01*
X1336598Y1184402D01*
G37*
G36*
X1301648Y1184402D02*
G01*
X1301648Y929386D01*
X1318056Y929386D01*
X1318056Y1184402D01*
G37*
G36*
X1289304Y1184402D02*
G01*
X1289304Y929386D01*
X1293418Y929386D01*
X1293418Y1184402D01*
G37*
G36*
X1264615Y1184402D02*
G01*
X1264615Y929386D01*
X1281074Y929386D01*
X1281074Y1184402D01*
G37*
G36*
X1239926Y1184402D02*
G01*
X1239926Y929386D01*
X1250188Y929386D01*
X1250188Y1184402D01*
G37*
G36*
X1221435Y1184402D02*
G01*
X1221435Y929386D01*
X1225550Y929386D01*
X1225550Y1184402D01*
G37*
G36*
X1178255Y1184402D02*
G01*
X1178255Y929386D01*
X1200861Y929386D01*
X1200861Y1184402D01*
G37*
G36*
X1165910Y1184402D02*
G01*
X1165910Y929386D01*
X1170025Y929386D01*
X1170025Y1184402D01*
G37*
G36*
X1147368Y1184402D02*
G01*
X1147368Y929386D01*
X1157681Y929386D01*
X1157681Y1184402D01*
G37*
G36*
X1110386Y1184402D02*
G01*
X1110386Y929386D01*
X1126794Y929386D01*
X1126794Y1184402D01*
G37*
G36*
X1098042Y1184402D02*
G01*
X1098042Y929386D01*
X1102156Y929386D01*
X1102156Y1184402D01*
G37*
G36*
X1079500Y1184402D02*
G01*
X1079500Y929386D01*
X1089812Y929386D01*
X1089812Y1184402D01*
G37*
G36*
X2461260Y8383524D02*
G01*
X2461260Y8314690D01*
X2471166Y8314690D01*
X2471166Y8336280D01*
X2510536Y8336737D01*
X2541016Y8336788D01*
X2541016Y8316468D01*
X2540711Y8310067D01*
X2539796Y8304275D01*
X2538323Y8298992D01*
X2536291Y8294268D01*
X2533751Y8290102D01*
X2530805Y8286546D01*
X2527350Y8283498D01*
X2523540Y8281009D01*
X2519375Y8279079D01*
X2514854Y8277707D01*
X2510028Y8276844D01*
X2504948Y8276590D01*
X2499817Y8276844D01*
X2495042Y8277555D01*
X2490673Y8278825D01*
X2486710Y8280603D01*
X2483154Y8282889D01*
X2480056Y8285734D01*
X2477414Y8289137D01*
X2475179Y8293049D01*
X2473452Y8297570D01*
X2472182Y8302701D01*
X2471420Y8308390D01*
X2471166Y8314690D01*
X2461260Y8314690D01*
X2461463Y8306460D01*
X2462022Y8299907D01*
X2462936Y8293709D01*
X2464257Y8287918D01*
X2465882Y8282533D01*
X2467864Y8277555D01*
X2470200Y8273034D01*
X2472842Y8268919D01*
X2475839Y8265261D01*
X2479141Y8262061D01*
X2482748Y8259318D01*
X2486660Y8257031D01*
X2490876Y8255304D01*
X2495346Y8253984D01*
X2500122Y8253222D01*
X2505202Y8252968D01*
X2510078Y8253272D01*
X2514854Y8254187D01*
X2519476Y8255660D01*
X2523896Y8257794D01*
X2528062Y8260486D01*
X2531922Y8263788D01*
X2535529Y8267649D01*
X2538780Y8272119D01*
X2541625Y8277199D01*
X2544114Y8282838D01*
X2546096Y8289086D01*
X2547620Y8295894D01*
X2549144Y8290306D01*
X2551226Y8285378D01*
X2553970Y8281009D01*
X2557373Y8277199D01*
X2561539Y8273796D01*
X2566517Y8270849D01*
X2572359Y8268258D01*
X2579116Y8265922D01*
X2618486Y8254238D01*
X2620264Y8234934D01*
X2628900Y8234934D01*
X2629916Y8238845D01*
X2630728Y8243316D01*
X2631236Y8248345D01*
X2631440Y8253984D01*
X2630576Y8264093D01*
X2627833Y8271408D01*
X2622854Y8276285D01*
X2615438Y8279130D01*
X2575560Y8289544D01*
X2568651Y8291626D01*
X2563114Y8294065D01*
X2558745Y8297062D01*
X2555494Y8300669D01*
X2553208Y8304987D01*
X2551684Y8310168D01*
X2550922Y8316366D01*
X2550668Y8323580D01*
X2550668Y8336788D01*
X2601214Y8336584D01*
X2617470Y8336280D01*
X2620264Y8313166D01*
X2628900Y8313166D01*
X2628900Y8383524D01*
X2620264Y8383524D01*
X2617724Y8360156D01*
X2590190Y8359749D01*
X2516682Y8359648D01*
X2472436Y8360156D01*
X2469896Y8383524D01*
G37*
G36*
X2619248Y8220709D02*
G01*
X2584196Y8219186D01*
X2584196Y8206231D01*
X2615438Y8199881D01*
X2618232Y8193989D01*
X2620111Y8187842D01*
X2621178Y8181187D01*
X2621534Y8173720D01*
X2621330Y8167827D01*
X2620619Y8162290D01*
X2619502Y8157159D01*
X2617927Y8152485D01*
X2615946Y8148269D01*
X2613558Y8144509D01*
X2610662Y8141258D01*
X2607411Y8138566D01*
X2603754Y8136432D01*
X2599639Y8134858D01*
X2595168Y8133892D01*
X2590292Y8133588D01*
X2584551Y8134045D01*
X2579522Y8135366D01*
X2575052Y8137652D01*
X2571038Y8140953D01*
X2567330Y8145272D01*
X2563876Y8150758D01*
X2560574Y8157311D01*
X2550769Y8180831D01*
X2547874Y8186775D01*
X2544775Y8192262D01*
X2541473Y8197291D01*
X2537866Y8201863D01*
X2533954Y8205876D01*
X2529789Y8209381D01*
X2525268Y8212277D01*
X2520391Y8214614D01*
X2515158Y8216290D01*
X2509469Y8217306D01*
X2503424Y8217662D01*
X2498140Y8217408D01*
X2493111Y8216544D01*
X2488438Y8215223D01*
X2484018Y8213394D01*
X2479954Y8211108D01*
X2476144Y8208365D01*
X2472690Y8205216D01*
X2469591Y8201659D01*
X2466797Y8197748D01*
X2464358Y8193481D01*
X2462276Y8188909D01*
X2460548Y8184032D01*
X2459228Y8178850D01*
X2458262Y8173466D01*
X2457653Y8167827D01*
X2457450Y8162036D01*
X2457704Y8155838D01*
X2458415Y8149945D01*
X2459532Y8144408D01*
X2461107Y8139175D01*
X2463038Y8134197D01*
X2465273Y8129524D01*
X2467813Y8125104D01*
X2470658Y8120888D01*
X2503424Y8122412D01*
X2503424Y8135366D01*
X2473452Y8141970D01*
X2471166Y8146694D01*
X2469591Y8151571D01*
X2468676Y8156702D01*
X2468372Y8162290D01*
X2468829Y8169554D01*
X2470251Y8176209D01*
X2472588Y8182102D01*
X2475839Y8187232D01*
X2479954Y8191347D01*
X2484983Y8194497D01*
X2490876Y8196427D01*
X2497582Y8197088D01*
X2503271Y8196630D01*
X2508453Y8195208D01*
X2513126Y8192922D01*
X2517292Y8189772D01*
X2521051Y8185759D01*
X2524455Y8180882D01*
X2527554Y8175294D01*
X2530348Y8168894D01*
X2534158Y8158734D01*
X2537510Y8150859D01*
X2540965Y8143798D01*
X2544470Y8137550D01*
X2548077Y8132114D01*
X2551836Y8127390D01*
X2555748Y8123377D01*
X2559913Y8120125D01*
X2564282Y8117484D01*
X2568956Y8115503D01*
X2573934Y8114080D01*
X2579268Y8113268D01*
X2584958Y8113014D01*
X2590393Y8113318D01*
X2595524Y8114131D01*
X2600401Y8115503D01*
X2604922Y8117382D01*
X2609138Y8119719D01*
X2613050Y8122564D01*
X2616606Y8125815D01*
X2619857Y8129524D01*
X2622753Y8133638D01*
X2625242Y8138109D01*
X2627426Y8142986D01*
X2629204Y8148167D01*
X2630627Y8153653D01*
X2631643Y8159496D01*
X2632252Y8165592D01*
X2632456Y8171942D01*
X2632202Y8179053D01*
X2631440Y8186013D01*
X2630220Y8192719D01*
X2628595Y8199170D01*
X2626664Y8205266D01*
X2624429Y8210956D01*
X2621940Y8216138D01*
G37*
G36*
X2505964Y8100568D02*
G01*
X2461260Y8098536D01*
X2461260Y7961122D01*
X2505964Y7959344D01*
X2505964Y7971536D01*
X2472436Y7978648D01*
X2472436Y8018018D01*
X2516632Y8018525D01*
X2589987Y8018424D01*
X2617470Y8018018D01*
X2620264Y7992109D01*
X2628900Y7992109D01*
X2628900Y8067548D01*
X2620264Y8067548D01*
X2617470Y8041640D01*
X2595626Y8041436D01*
X2505506Y8041436D01*
X2472436Y8041640D01*
X2472436Y8081009D01*
X2505964Y8087868D01*
G37*
G36*
X1191260Y8383524D02*
G01*
X1191260Y8313166D01*
X1199896Y8313166D01*
X1202436Y8336280D01*
X1246632Y8336788D01*
X1319987Y8336686D01*
X1347470Y8336280D01*
X1350264Y8313166D01*
X1358900Y8313166D01*
X1358900Y8383524D01*
X1350264Y8383524D01*
X1347724Y8360156D01*
X1303680Y8359648D01*
X1218996Y8359851D01*
X1202436Y8360156D01*
X1199896Y8383524D01*
G37*
G36*
X1275080Y8295386D02*
G01*
X1268323Y8295182D01*
X1261821Y8294624D01*
X1255572Y8293709D01*
X1249527Y8292439D01*
X1243787Y8290864D01*
X1238250Y8288985D01*
X1232966Y8286800D01*
X1227988Y8284311D01*
X1223264Y8281568D01*
X1218793Y8278571D01*
X1214577Y8275370D01*
X1210665Y8271916D01*
X1207058Y8268258D01*
X1203756Y8264448D01*
X1200708Y8260435D01*
X1197965Y8256270D01*
X1195527Y8251952D01*
X1193444Y8247481D01*
X1191615Y8242909D01*
X1190142Y8238286D01*
X1188974Y8233511D01*
X1188110Y8228685D01*
X1187602Y8223859D01*
X1187450Y8218931D01*
X1198372Y8218931D01*
X1198626Y8224062D01*
X1199438Y8228888D01*
X1200759Y8233409D01*
X1202588Y8237677D01*
X1204823Y8241639D01*
X1207516Y8245348D01*
X1210564Y8248802D01*
X1214018Y8251952D01*
X1217828Y8254847D01*
X1221943Y8257489D01*
X1226362Y8259825D01*
X1231087Y8261959D01*
X1236014Y8263788D01*
X1246479Y8266734D01*
X1257604Y8268665D01*
X1263345Y8269274D01*
X1269187Y8269630D01*
X1280972Y8269630D01*
X1286814Y8269274D01*
X1292555Y8268665D01*
X1303680Y8266734D01*
X1314145Y8263788D01*
X1319072Y8261959D01*
X1323797Y8259825D01*
X1328216Y8257489D01*
X1332331Y8254847D01*
X1336141Y8251952D01*
X1339596Y8248802D01*
X1342644Y8245348D01*
X1345336Y8241639D01*
X1347571Y8237677D01*
X1349400Y8233409D01*
X1350721Y8228888D01*
X1351534Y8224062D01*
X1351788Y8218931D01*
X1351534Y8213852D01*
X1350721Y8209076D01*
X1349400Y8204555D01*
X1347571Y8200390D01*
X1345336Y8196427D01*
X1342644Y8192770D01*
X1339596Y8189417D01*
X1336141Y8186267D01*
X1332331Y8183422D01*
X1328216Y8180882D01*
X1323797Y8178546D01*
X1319072Y8176463D01*
X1314145Y8174685D01*
X1309014Y8173110D01*
X1298194Y8170773D01*
X1286814Y8169351D01*
X1280972Y8168995D01*
X1269187Y8168995D01*
X1263345Y8169351D01*
X1251966Y8170773D01*
X1241145Y8173110D01*
X1236014Y8174685D01*
X1231087Y8176463D01*
X1226362Y8178546D01*
X1221943Y8180882D01*
X1217828Y8183422D01*
X1214018Y8186267D01*
X1210564Y8189417D01*
X1207516Y8192770D01*
X1204823Y8196427D01*
X1202588Y8200390D01*
X1200759Y8204555D01*
X1199438Y8209076D01*
X1198626Y8213852D01*
X1198372Y8218931D01*
X1187450Y8218931D01*
X1187602Y8214106D01*
X1188110Y8209280D01*
X1188872Y8204504D01*
X1189990Y8199780D01*
X1191412Y8195157D01*
X1193190Y8190636D01*
X1195222Y8186216D01*
X1197559Y8181898D01*
X1200251Y8177733D01*
X1203198Y8173720D01*
X1206449Y8169909D01*
X1210005Y8166252D01*
X1213866Y8162798D01*
X1218031Y8159597D01*
X1222451Y8156600D01*
X1227175Y8153857D01*
X1232204Y8151368D01*
X1237488Y8149183D01*
X1243076Y8147253D01*
X1248918Y8145678D01*
X1255064Y8144408D01*
X1261465Y8143494D01*
X1268120Y8142935D01*
X1275080Y8142731D01*
X1281836Y8142935D01*
X1288389Y8143494D01*
X1294638Y8144408D01*
X1300683Y8145627D01*
X1306474Y8147202D01*
X1311960Y8149081D01*
X1317244Y8151266D01*
X1322222Y8153755D01*
X1326946Y8156448D01*
X1331366Y8159445D01*
X1335532Y8162645D01*
X1339443Y8166049D01*
X1343050Y8169706D01*
X1346352Y8173516D01*
X1349349Y8177530D01*
X1352042Y8181695D01*
X1354480Y8185962D01*
X1356563Y8190433D01*
X1358341Y8194954D01*
X1359814Y8199628D01*
X1360982Y8204352D01*
X1361795Y8209178D01*
X1362303Y8214004D01*
X1362456Y8218931D01*
X1362303Y8223859D01*
X1361846Y8228736D01*
X1361033Y8233613D01*
X1359916Y8238337D01*
X1358544Y8243011D01*
X1356817Y8247583D01*
X1354785Y8252053D01*
X1352448Y8256371D01*
X1349806Y8260537D01*
X1346860Y8264550D01*
X1343660Y8268360D01*
X1340104Y8272018D01*
X1336294Y8275472D01*
X1332128Y8278672D01*
X1327708Y8281619D01*
X1323035Y8284362D01*
X1318006Y8286851D01*
X1312722Y8289036D01*
X1307185Y8290915D01*
X1301292Y8292490D01*
X1295146Y8293709D01*
X1288745Y8294624D01*
X1282039Y8295182D01*
G37*
G36*
X1273810Y8120634D02*
G01*
X1264716Y8120430D01*
X1256233Y8119872D01*
X1248257Y8118957D01*
X1240891Y8117738D01*
X1234033Y8116163D01*
X1227734Y8114334D01*
X1221892Y8112201D01*
X1216609Y8109813D01*
X1211783Y8107172D01*
X1207465Y8104327D01*
X1203604Y8101279D01*
X1200200Y8098028D01*
X1197203Y8094624D01*
X1194714Y8091068D01*
X1192580Y8087410D01*
X1190904Y8083651D01*
X1189583Y8079740D01*
X1188669Y8075828D01*
X1188110Y8071815D01*
X1187958Y8067802D01*
X1197864Y8067802D01*
X1198067Y8070799D01*
X1198676Y8073694D01*
X1199692Y8076590D01*
X1201267Y8079333D01*
X1203350Y8082025D01*
X1206042Y8084566D01*
X1209294Y8086953D01*
X1213256Y8089188D01*
X1217930Y8091220D01*
X1223314Y8093049D01*
X1229512Y8094624D01*
X1236522Y8095996D01*
X1244447Y8097062D01*
X1253286Y8097875D01*
X1263040Y8098383D01*
X1273810Y8098536D01*
X1284986Y8098383D01*
X1295146Y8097875D01*
X1304290Y8097062D01*
X1312468Y8095996D01*
X1319784Y8094624D01*
X1326184Y8093049D01*
X1331772Y8091220D01*
X1336598Y8089188D01*
X1340713Y8086953D01*
X1344117Y8084566D01*
X1346860Y8082025D01*
X1349044Y8079333D01*
X1350619Y8076590D01*
X1351737Y8073694D01*
X1352346Y8070799D01*
X1352550Y8067802D01*
X1352346Y8064957D01*
X1351737Y8062163D01*
X1350619Y8059420D01*
X1348994Y8056727D01*
X1346809Y8054136D01*
X1344066Y8051698D01*
X1340612Y8049361D01*
X1336497Y8047228D01*
X1331671Y8045246D01*
X1326083Y8043468D01*
X1319631Y8041894D01*
X1312367Y8040573D01*
X1304188Y8039506D01*
X1295044Y8038744D01*
X1284935Y8038236D01*
X1273810Y8038084D01*
X1263040Y8038236D01*
X1253286Y8038744D01*
X1244447Y8039506D01*
X1236522Y8040573D01*
X1229512Y8041894D01*
X1223314Y8043468D01*
X1217930Y8045246D01*
X1213256Y8047228D01*
X1209294Y8049361D01*
X1206042Y8051698D01*
X1203350Y8054136D01*
X1201267Y8056727D01*
X1199692Y8059420D01*
X1198676Y8062163D01*
X1198067Y8064957D01*
X1197864Y8067802D01*
X1187958Y8067802D01*
X1188110Y8063890D01*
X1188669Y8059978D01*
X1189583Y8056118D01*
X1190904Y8052358D01*
X1192580Y8048650D01*
X1194714Y8044992D01*
X1197203Y8041538D01*
X1200200Y8038185D01*
X1203604Y8034985D01*
X1207465Y8031937D01*
X1211783Y8029143D01*
X1216609Y8026501D01*
X1221892Y8024164D01*
X1227734Y8022031D01*
X1234033Y8020202D01*
X1240891Y8018627D01*
X1248257Y8017408D01*
X1256233Y8016494D01*
X1264716Y8015935D01*
X1273810Y8015731D01*
X1283208Y8015935D01*
X1292047Y8016494D01*
X1300226Y8017408D01*
X1307896Y8018627D01*
X1314958Y8020202D01*
X1321460Y8022031D01*
X1327454Y8024164D01*
X1332890Y8026501D01*
X1337868Y8029143D01*
X1342288Y8031937D01*
X1346250Y8034985D01*
X1349756Y8038185D01*
X1352753Y8041538D01*
X1355344Y8044992D01*
X1357477Y8048650D01*
X1359204Y8052358D01*
X1360525Y8056118D01*
X1361490Y8059978D01*
X1361998Y8063890D01*
X1362202Y8067802D01*
X1361998Y8071815D01*
X1361490Y8075828D01*
X1360525Y8079740D01*
X1359204Y8083651D01*
X1357477Y8087410D01*
X1355344Y8091068D01*
X1352753Y8094624D01*
X1349756Y8098028D01*
X1346250Y8101279D01*
X1342288Y8104327D01*
X1337868Y8107172D01*
X1332890Y8109813D01*
X1327454Y8112201D01*
X1321460Y8114334D01*
X1314958Y8116163D01*
X1307896Y8117738D01*
X1300226Y8118957D01*
X1292047Y8119872D01*
X1283208Y8120430D01*
G37*
G36*
X1463802Y6885940D02*
G01*
X1455674Y6875322D01*
X1446834Y6864908D01*
X1437386Y6854698D01*
X1427530Y6844741D01*
X1417269Y6835190D01*
X1406753Y6825996D01*
X1396085Y6817258D01*
X1385366Y6809079D01*
X1374698Y6801459D01*
X1364234Y6794500D01*
X1374698Y6787540D01*
X1385366Y6779920D01*
X1396085Y6771741D01*
X1406753Y6763003D01*
X1417269Y6753809D01*
X1427530Y6744258D01*
X1437386Y6734302D01*
X1446834Y6724091D01*
X1455674Y6713677D01*
X1463802Y6703059D01*
X1477010Y6713728D01*
X1469390Y6723735D01*
X1461058Y6733692D01*
X1452219Y6743446D01*
X1442974Y6752945D01*
X1433474Y6762089D01*
X1423924Y6770725D01*
X1414424Y6778802D01*
X1405128Y6786118D01*
X1717039Y6786118D01*
X1717039Y6802881D01*
X1405128Y6802881D01*
X1414424Y6810197D01*
X1423873Y6818172D01*
X1433372Y6826758D01*
X1442770Y6835851D01*
X1451965Y6845300D01*
X1460855Y6855104D01*
X1469237Y6865112D01*
X1477010Y6875272D01*
G37*
G36*
X1351280Y6565900D02*
G01*
X1351280Y6546850D01*
X1697736Y6546850D01*
X1541780Y6425692D01*
X1386078Y6546850D01*
X1351280Y6546850D01*
X1351280Y6534657D01*
X1370330Y6534657D01*
X1526286Y6413500D01*
X1557528Y6413500D01*
X1713230Y6534657D01*
X1713230Y6292342D01*
X1557528Y6413500D01*
X1526286Y6413500D01*
X1370330Y6292342D01*
X1370330Y6534657D01*
X1351280Y6534657D01*
X1351280Y6280150D01*
X1386078Y6280150D01*
X1541780Y6401308D01*
X1697736Y6280150D01*
X1351280Y6280150D01*
X1351280Y6261100D01*
X1732280Y6261100D01*
X1732280Y6565900D01*
G37*
G36*
X1677416Y6209792D02*
G01*
X1674774Y6208572D01*
X1672843Y6206388D01*
X1671726Y6203340D01*
X1671320Y6199378D01*
X1671320Y6039612D01*
X1597406Y6039612D01*
X1592326Y6058763D01*
X1586890Y6076289D01*
X1581099Y6092139D01*
X1575054Y6106414D01*
X1568805Y6119164D01*
X1562455Y6130442D01*
X1556004Y6140348D01*
X1549501Y6148933D01*
X1543100Y6156198D01*
X1536801Y6162294D01*
X1530654Y6167170D01*
X1524711Y6170930D01*
X1519123Y6173673D01*
X1513840Y6175400D01*
X1509014Y6176162D01*
X1504645Y6176060D01*
X1500835Y6175146D01*
X1499158Y6174435D01*
X1496263Y6172403D01*
X1494078Y6169660D01*
X1493266Y6168085D01*
X1492250Y6164427D01*
X1492046Y6162446D01*
X1492351Y6158026D01*
X1492808Y6155639D01*
X1494536Y6150610D01*
X1502714Y6144768D01*
X1511046Y6137859D01*
X1519529Y6129985D01*
X1528013Y6121349D01*
X1536446Y6112002D01*
X1544828Y6102146D01*
X1553006Y6091936D01*
X1560982Y6081420D01*
X1568602Y6070803D01*
X1575866Y6060236D01*
X1582724Y6049772D01*
X1589024Y6039612D01*
X1376680Y6039612D01*
X1373936Y6037732D01*
X1370533Y6032398D01*
X1367739Y6024270D01*
X1366520Y6013958D01*
X1366520Y6008116D01*
X1671320Y6008116D01*
X1671320Y5859780D01*
X1682496Y5856478D01*
X1682496Y6146038D01*
X1710436Y6168390D01*
X1699056Y6183274D01*
X1688338Y6196787D01*
G37*
G36*
X1637538Y5821680D02*
G01*
X1635353Y5819292D01*
X1633118Y5815685D01*
X1631137Y5811062D01*
X1629664Y5805678D01*
X1407922Y5805678D01*
X1402334Y5805525D01*
X1397152Y5805068D01*
X1392326Y5804204D01*
X1387856Y5802731D01*
X1383842Y5800598D01*
X1380185Y5797702D01*
X1376883Y5793943D01*
X1374038Y5789168D01*
X1371549Y5783275D01*
X1369466Y5776214D01*
X1367790Y5767781D01*
X1366520Y5757926D01*
X1373428Y5756656D01*
X1379372Y5754624D01*
X1384401Y5751626D01*
X1388618Y5747512D01*
X1392123Y5741720D01*
X1393748Y5738063D01*
X1395272Y5733897D01*
X1396695Y5729071D01*
X1397965Y5723534D01*
X1399082Y5717286D01*
X1400048Y5710174D01*
X1406144Y5710174D01*
X1403705Y5743752D01*
X1402588Y5765800D01*
X1403146Y5770575D01*
X1404823Y5773623D01*
X1407718Y5775248D01*
X1411986Y5775706D01*
X1635506Y5775706D01*
X1635506Y5529326D01*
X1377950Y5529326D01*
X1374546Y5527243D01*
X1370787Y5521756D01*
X1367790Y5513781D01*
X1366520Y5504434D01*
X1366520Y5499100D01*
X1660906Y5499100D01*
X1646174Y5531866D01*
X1646174Y5605018D01*
X1657451Y5609590D01*
X1669491Y5614111D01*
X1694230Y5622493D01*
X1717039Y5629402D01*
X1704848Y5677662D01*
X1701647Y5676087D01*
X1699107Y5673242D01*
X1697583Y5669127D01*
X1697228Y5663692D01*
X1681022Y5651296D01*
X1672183Y5644184D01*
X1663242Y5636615D01*
X1654505Y5628690D01*
X1646174Y5620512D01*
X1646174Y5771896D01*
X1664462Y5786628D01*
G37*
G36*
X1569720Y5737098D02*
G01*
X1567586Y5734608D01*
X1565503Y5731103D01*
X1563522Y5726582D01*
X1561846Y5721096D01*
X1452880Y5721096D01*
X1450492Y5718606D01*
X1447444Y5712612D01*
X1444853Y5704789D01*
X1443736Y5696712D01*
X1443736Y5692140D01*
X1567688Y5692140D01*
X1567688Y5609336D01*
X1485646Y5609336D01*
X1485646Y5692140D01*
X1474470Y5692140D01*
X1474470Y5609336D01*
X1442720Y5609336D01*
X1439976Y5607202D01*
X1436878Y5601665D01*
X1434338Y5593994D01*
X1433322Y5585460D01*
X1433322Y5581142D01*
X1591564Y5581142D01*
X1578356Y5611114D01*
X1578356Y5688330D01*
X1595628Y5704078D01*
G37*
G36*
X1681225Y5446522D02*
G01*
X1678584Y5445201D01*
X1676654Y5443016D01*
X1675536Y5440070D01*
X1675130Y5436616D01*
X1675130Y5286502D01*
X1655470Y5274259D01*
X1636014Y5261305D01*
X1618742Y5248910D01*
X1618742Y5384800D01*
X1637792Y5400802D01*
X1611884Y5433568D01*
X1609496Y5431129D01*
X1607566Y5427929D01*
X1606042Y5423662D01*
X1604772Y5418074D01*
X1379474Y5418074D01*
X1377086Y5416042D01*
X1374038Y5410403D01*
X1371447Y5402021D01*
X1370330Y5391658D01*
X1370330Y5386578D01*
X1607312Y5386578D01*
X1607312Y5329936D01*
X1408938Y5329936D01*
X1408938Y5386578D01*
X1397762Y5386578D01*
X1397762Y5300980D01*
X1607312Y5300980D01*
X1607312Y5237226D01*
X1549654Y5237226D01*
X1549654Y5300980D01*
X1538732Y5300980D01*
X1538732Y5237226D01*
X1479804Y5237226D01*
X1479804Y5300980D01*
X1468628Y5300980D01*
X1468628Y5237226D01*
X1408938Y5237226D01*
X1408938Y5300980D01*
X1397762Y5300980D01*
X1397762Y5208778D01*
X1607312Y5208778D01*
X1607312Y5153152D01*
X1408938Y5153152D01*
X1408938Y5208778D01*
X1397762Y5208778D01*
X1397762Y5153152D01*
X1376426Y5153152D01*
X1374038Y5151374D01*
X1370990Y5146294D01*
X1368399Y5138369D01*
X1367282Y5128006D01*
X1367282Y5122926D01*
X1632712Y5122926D01*
X1618742Y5157724D01*
X1618742Y5236210D01*
X1645970Y5241086D01*
X1675130Y5245354D01*
X1675130Y5100320D01*
X1685798Y5096764D01*
X1685798Y5386070D01*
X1712468Y5407406D01*
X1701698Y5421528D01*
X1691589Y5434279D01*
G37*
G36*
X1394714Y5065522D02*
G01*
X1391462Y5065217D01*
X1388516Y5064201D01*
X1385874Y5062474D01*
X1383538Y5059832D01*
X1381506Y5056276D01*
X1379778Y5051653D01*
X1378356Y5045913D01*
X1377188Y5038953D01*
X1376273Y5030673D01*
X1375664Y5021021D01*
X1375257Y5009896D01*
X1375156Y4964176D01*
X1375308Y4956962D01*
X1375867Y4950612D01*
X1376832Y4945075D01*
X1378153Y4940350D01*
X1379982Y4936388D01*
X1382318Y4933086D01*
X1385112Y4930444D01*
X1388465Y4928362D01*
X1392428Y4926838D01*
X1396949Y4925822D01*
X1402080Y4925263D01*
X1407922Y4925060D01*
X1714246Y4925060D01*
X1709420Y4968748D01*
X1705914Y4967579D01*
X1702866Y4965141D01*
X1700377Y4961026D01*
X1698752Y4955032D01*
X1570736Y4955032D01*
X1577340Y4964074D01*
X1584604Y4973370D01*
X1592376Y4982819D01*
X1600555Y4992319D01*
X1609191Y5001768D01*
X1618081Y5011064D01*
X1627225Y5020056D01*
X1636522Y5028692D01*
X1605280Y5062474D01*
X1603298Y5059934D01*
X1602435Y5056682D01*
X1602892Y5052517D01*
X1604772Y5047234D01*
X1597456Y5036159D01*
X1590598Y5024678D01*
X1584198Y5012994D01*
X1578305Y5001107D01*
X1572869Y4989271D01*
X1567992Y4977587D01*
X1563624Y4966106D01*
X1559814Y4955032D01*
X1417574Y4955032D01*
X1411782Y4955692D01*
X1407922Y4958029D01*
X1405788Y4962753D01*
X1405128Y4970526D01*
X1405331Y5015280D01*
X1406448Y5027930D01*
X1407312Y5030114D01*
X1408836Y5031994D01*
X1410970Y5033518D01*
X1416151Y5035448D01*
X1424381Y5037582D01*
X1434998Y5039918D01*
X1473454Y5047234D01*
X1473454Y5051806D01*
X1408938Y5053330D01*
X1405737Y5059222D01*
X1402486Y5062931D01*
X1398879Y5064963D01*
G37*
G36*
X1581912Y4923790D02*
G01*
X1579118Y4922469D01*
X1577136Y4920183D01*
X1575968Y4917135D01*
X1575562Y4913376D01*
X1575562Y4847336D01*
X1433322Y4847336D01*
X1440637Y4880508D01*
X1448562Y4914646D01*
X1442212Y4916170D01*
X1426718Y4878019D01*
X1408480Y4831130D01*
X1398371Y4804054D01*
X1387602Y4774336D01*
X1376172Y4741926D01*
X1372870Y4740503D01*
X1370177Y4738319D01*
X1368196Y4735728D01*
X1367028Y4733036D01*
X1405636Y4713224D01*
X1408226Y4728413D01*
X1411986Y4747768D01*
X1635506Y4747768D01*
X1631188Y4789678D01*
X1627581Y4788611D01*
X1624685Y4786325D01*
X1622501Y4782413D01*
X1621028Y4776470D01*
X1417574Y4776470D01*
X1421739Y4796231D01*
X1426464Y4817364D01*
X1714246Y4817364D01*
X1709420Y4860798D01*
X1705711Y4859883D01*
X1702663Y4857597D01*
X1700326Y4853533D01*
X1698752Y4847336D01*
X1586738Y4847336D01*
X1586738Y4869942D01*
X1615694Y4888992D01*
X1603959Y4901641D01*
X1592986Y4913020D01*
G37*
G36*
X1351280Y4660900D02*
G01*
X1351280Y4641850D01*
X1697736Y4641850D01*
X1541780Y4520692D01*
X1386078Y4641850D01*
X1351280Y4641850D01*
X1351280Y4629658D01*
X1370330Y4629658D01*
X1526286Y4508500D01*
X1557528Y4508500D01*
X1713230Y4629658D01*
X1713230Y4387342D01*
X1557528Y4508500D01*
X1526286Y4508500D01*
X1370330Y4387342D01*
X1370330Y4629658D01*
X1351280Y4629658D01*
X1351280Y4375150D01*
X1386078Y4375150D01*
X1541780Y4496308D01*
X1697736Y4375150D01*
X1351280Y4375150D01*
X1351280Y4356100D01*
X1732280Y4356100D01*
X1732280Y4660900D01*
G37*
G36*
X1463802Y4218940D02*
G01*
X1455674Y4208322D01*
X1446834Y4197908D01*
X1437386Y4187698D01*
X1427530Y4177741D01*
X1417269Y4168190D01*
X1406753Y4158996D01*
X1396085Y4150258D01*
X1385366Y4142079D01*
X1374698Y4134459D01*
X1364234Y4127500D01*
X1374698Y4120540D01*
X1385366Y4112920D01*
X1396085Y4104741D01*
X1406753Y4096004D01*
X1417269Y4086809D01*
X1427530Y4077258D01*
X1437386Y4067301D01*
X1446834Y4057091D01*
X1455674Y4046677D01*
X1463802Y4036060D01*
X1477010Y4046728D01*
X1469390Y4056735D01*
X1461058Y4066641D01*
X1452219Y4076395D01*
X1442974Y4085894D01*
X1433474Y4094987D01*
X1423924Y4103624D01*
X1414424Y4111701D01*
X1405128Y4119118D01*
X1717039Y4119118D01*
X1717039Y4135882D01*
X1405128Y4135882D01*
X1414424Y4143298D01*
X1423873Y4151325D01*
X1433372Y4159859D01*
X1442770Y4168952D01*
X1451965Y4178401D01*
X1460855Y4188155D01*
X1469237Y4198112D01*
X1477010Y4208272D01*
G37*
G36*
X2751836Y1775714D02*
G01*
X2750515Y1771599D01*
X2749499Y1770125D01*
X2748026Y1768856D01*
X2745841Y1767738D01*
X2742996Y1766773D01*
X2739186Y1765858D01*
X2734310Y1765046D01*
X2734310Y1763014D01*
X2754376Y1764538D01*
X2756255Y1764284D01*
X2757424Y1763674D01*
X2758033Y1762607D01*
X2758186Y1761236D01*
X2758186Y1670557D01*
X2677160Y1670557D01*
X2677160Y1771396D01*
X2676550Y1772666D01*
X2674823Y1773986D01*
X2672334Y1775053D01*
X2669286Y1775460D01*
X2667508Y1775460D01*
X2667508Y1661922D01*
X2678176Y1666748D01*
X2756916Y1666748D01*
X2761996Y1660652D01*
X2773680Y1669796D01*
X2771546Y1671269D01*
X2770022Y1671878D01*
X2768092Y1672336D01*
X2768092Y1762252D01*
X2767533Y1767281D01*
X2765298Y1771294D01*
X2760370Y1774088D01*
G37*
G36*
X2535682Y1774952D02*
G01*
X2535682Y1759712D01*
X2580894Y1759712D01*
X2580894Y1742439D01*
X2544572Y1742439D01*
X2544572Y1759712D01*
X2535682Y1759712D01*
X2535682Y1738630D01*
X2580894Y1738630D01*
X2580894Y1723643D01*
X2571750Y1723898D01*
X2568651Y1723542D01*
X2566822Y1722475D01*
X2565908Y1720596D01*
X2565654Y1717802D01*
X2565654Y1692910D01*
X2572258Y1692910D01*
X2572308Y1716176D01*
X2572512Y1716735D01*
X2573528Y1717039D01*
X2578862Y1717039D01*
X2580894Y1716786D01*
X2580894Y1692910D01*
X2558796Y1692910D01*
X2558796Y1698243D01*
X2558440Y1705813D01*
X2556814Y1714246D01*
X2552903Y1722678D01*
X2545842Y1730248D01*
X2544572Y1728724D01*
X2544572Y1738630D01*
X2535682Y1738630D01*
X2535682Y1727962D01*
X2544572Y1727962D01*
X2548737Y1720443D01*
X2551023Y1712722D01*
X2551988Y1705152D01*
X2552192Y1692910D01*
X2544572Y1692910D01*
X2544572Y1727962D01*
X2535682Y1727962D01*
X2535682Y1684528D01*
X2545080Y1689354D01*
X2565654Y1689354D01*
X2565654Y1671320D01*
X2558796Y1671320D01*
X2558796Y1689354D01*
X2551176Y1689354D01*
X2551176Y1671320D01*
X2533142Y1671320D01*
X2532126Y1667510D01*
X2578608Y1667510D01*
X2584958Y1659636D01*
X2589072Y1662938D01*
X2596388Y1669288D01*
X2595880Y1670151D01*
X2595118Y1670761D01*
X2594152Y1671167D01*
X2593086Y1671320D01*
X2573274Y1671320D01*
X2573274Y1689354D01*
X2579624Y1689354D01*
X2584704Y1683512D01*
X2595372Y1691893D01*
X2594559Y1692757D01*
X2593289Y1693468D01*
X2590038Y1694434D01*
X2590038Y1769872D01*
X2589276Y1770684D01*
X2587345Y1771700D01*
X2584805Y1772564D01*
X2580894Y1772920D01*
X2580894Y1763522D01*
X2544572Y1763522D01*
X2544572Y1771650D01*
X2544013Y1772615D01*
X2542438Y1773682D01*
X2540050Y1774596D01*
G37*
G36*
X2612898Y1771396D02*
G01*
X2606344Y1770938D01*
X2602280Y1769262D01*
X2600248Y1766163D01*
X2599690Y1761236D01*
X2599690Y1697482D01*
X2610866Y1702054D01*
X2632202Y1702054D01*
X2632202Y1670812D01*
X2599690Y1670812D01*
X2598674Y1667256D01*
X2630678Y1667256D01*
X2635758Y1661414D01*
X2647696Y1670304D01*
X2646832Y1671269D01*
X2645562Y1672132D01*
X2643835Y1672843D01*
X2641854Y1673352D01*
X2641854Y1714246D01*
X2640888Y1715160D01*
X2638856Y1716125D01*
X2636266Y1716938D01*
X2633726Y1717293D01*
X2632202Y1717293D01*
X2632202Y1705864D01*
X2609342Y1705864D01*
X2609342Y1758950D01*
X2609545Y1760423D01*
X2610307Y1761439D01*
X2611932Y1762048D01*
X2614676Y1762252D01*
X2633776Y1762201D01*
X2639720Y1761388D01*
X2640838Y1760220D01*
X2642717Y1752955D01*
X2645156Y1741170D01*
X2646680Y1741170D01*
X2647188Y1760728D01*
X2649016Y1761693D01*
X2650134Y1762709D01*
X2650591Y1763775D01*
X2650744Y1765046D01*
X2649778Y1767839D01*
X2646070Y1769821D01*
X2638653Y1770989D01*
X2626360Y1771396D01*
G37*
G36*
X2852166Y1771142D02*
G01*
X2843682Y1770634D01*
X2838094Y1768703D01*
X2835046Y1764944D01*
X2834132Y1758696D01*
X2834132Y1708912D01*
X2819400Y1714246D01*
X2816860Y1711452D01*
X2834132Y1705102D01*
X2834132Y1668780D01*
X2848610Y1670304D01*
X2848203Y1671421D01*
X2847390Y1672437D01*
X2846019Y1673199D01*
X2844038Y1673606D01*
X2844038Y1701292D01*
X2859278Y1695704D01*
X2859278Y1658620D01*
X2873502Y1660143D01*
X2873146Y1661414D01*
X2872384Y1662531D01*
X2871012Y1663395D01*
X2868930Y1663954D01*
X2868930Y1691893D01*
X2885440Y1686052D01*
X2890520Y1680464D01*
X2901188Y1688846D01*
X2900426Y1689557D01*
X2899308Y1690166D01*
X2896108Y1690878D01*
X2895650Y1712112D01*
X2895193Y1720088D01*
X2894533Y1726488D01*
X2893720Y1731568D01*
X2892653Y1735480D01*
X2891332Y1738325D01*
X2889758Y1740407D01*
X2887472Y1742236D01*
X2884830Y1743506D01*
X2881884Y1744218D01*
X2878582Y1744472D01*
X2878277Y1740560D01*
X2877820Y1738934D01*
X2877058Y1737614D01*
X2876042Y1736699D01*
X2874670Y1735886D01*
X2870708Y1734566D01*
X2870708Y1732788D01*
X2879344Y1733296D01*
X2881579Y1732940D01*
X2882900Y1732025D01*
X2883712Y1730654D01*
X2884373Y1728317D01*
X2885389Y1720494D01*
X2886100Y1707794D01*
X2886710Y1689354D01*
X2868930Y1695957D01*
X2868930Y1748789D01*
X2868218Y1749856D01*
X2866339Y1751025D01*
X2863900Y1751990D01*
X2861310Y1752346D01*
X2859278Y1752346D01*
X2859278Y1699514D01*
X2844038Y1705356D01*
X2844038Y1756664D01*
X2844393Y1758950D01*
X2845714Y1760524D01*
X2848406Y1761439D01*
X2852928Y1761743D01*
X2881985Y1761693D01*
X2888488Y1761236D01*
X2890875Y1760626D01*
X2891688Y1760016D01*
X2892298Y1759204D01*
X2893364Y1756714D01*
X2894736Y1752600D01*
X2897886Y1740662D01*
X2899410Y1740662D01*
X2899664Y1759712D01*
X2902000Y1760829D01*
X2903524Y1761947D01*
X2904286Y1763115D01*
X2904490Y1764538D01*
X2904185Y1766265D01*
X2903169Y1767687D01*
X2901188Y1768856D01*
X2898089Y1769770D01*
X2893720Y1770380D01*
X2887878Y1770837D01*
X2870962Y1771142D01*
G37*
G36*
X2943860Y1769364D02*
G01*
X2942844Y1765807D01*
X2961640Y1765807D01*
X2961640Y1686306D01*
X2975864Y1687830D01*
X2975508Y1688896D01*
X2974746Y1689862D01*
X2973476Y1690624D01*
X2971546Y1691132D01*
X2971546Y1765807D01*
X2986786Y1765807D01*
X2986786Y1660143D01*
X3001772Y1661668D01*
X3001213Y1662887D01*
X3000298Y1663903D01*
X2998927Y1664716D01*
X2996946Y1665224D01*
X2996946Y1705864D01*
X3010408Y1705864D01*
X3016758Y1696720D01*
X3020974Y1700479D01*
X3028442Y1707896D01*
X3028188Y1708607D01*
X3027527Y1709166D01*
X3026511Y1709521D01*
X3025140Y1709674D01*
X2996946Y1709674D01*
X2996946Y1765807D01*
X3013456Y1765807D01*
X3020060Y1756664D01*
X3024581Y1760423D01*
X3032506Y1767586D01*
X3031998Y1768398D01*
X3031185Y1768957D01*
X3028950Y1769364D01*
G37*
G36*
X3244088Y1767839D02*
G01*
X3243072Y1763522D01*
X3248761Y1761388D01*
X3253994Y1758950D01*
X3258718Y1756308D01*
X3262934Y1753362D01*
X3266744Y1750212D01*
X3270097Y1746808D01*
X3272993Y1743100D01*
X3275533Y1739188D01*
X3277615Y1735074D01*
X3279343Y1730654D01*
X3280664Y1725980D01*
X3281679Y1721104D01*
X3277920Y1724101D01*
X3273552Y1726234D01*
X3268624Y1727555D01*
X3263138Y1727962D01*
X3257753Y1727454D01*
X3252724Y1726031D01*
X3248152Y1723694D01*
X3244138Y1720443D01*
X3240836Y1716430D01*
X3238347Y1711655D01*
X3236772Y1706168D01*
X3236214Y1700022D01*
X3236324Y1698752D01*
X3248406Y1698752D01*
X3249828Y1708505D01*
X3253790Y1715312D01*
X3259785Y1719275D01*
X3267202Y1720596D01*
X3271418Y1720291D01*
X3275380Y1719325D01*
X3279038Y1717598D01*
X3282442Y1715007D01*
X3282696Y1708404D01*
X3282391Y1700530D01*
X3281426Y1693722D01*
X3279901Y1688084D01*
X3277870Y1683562D01*
X3275329Y1680057D01*
X3272434Y1677568D01*
X3269081Y1676095D01*
X3265424Y1675638D01*
X3258820Y1677111D01*
X3253384Y1681480D01*
X3249726Y1688693D01*
X3248406Y1698752D01*
X3236324Y1698752D01*
X3236772Y1693570D01*
X3238398Y1687779D01*
X3240989Y1682699D01*
X3244494Y1678381D01*
X3248761Y1674926D01*
X3253790Y1672386D01*
X3259429Y1670862D01*
X3265678Y1670304D01*
X3272129Y1670964D01*
X3277870Y1672894D01*
X3282848Y1676095D01*
X3287064Y1680362D01*
X3290417Y1685696D01*
X3292856Y1692046D01*
X3294379Y1699310D01*
X3294887Y1707388D01*
X3294684Y1712518D01*
X3294176Y1717598D01*
X3293262Y1722526D01*
X3291941Y1727301D01*
X3290265Y1731924D01*
X3288182Y1736394D01*
X3285693Y1740662D01*
X3282797Y1744776D01*
X3279495Y1748586D01*
X3275787Y1752193D01*
X3271621Y1755546D01*
X3267049Y1758645D01*
X3261969Y1761439D01*
X3256483Y1763877D01*
X3250539Y1766062D01*
G37*
G36*
X3392170Y1767078D02*
G01*
X3388563Y1766316D01*
X3385565Y1764284D01*
X3383534Y1761286D01*
X3382772Y1757680D01*
X3383534Y1753920D01*
X3385565Y1750872D01*
X3388563Y1748789D01*
X3392170Y1748028D01*
X3395929Y1748789D01*
X3398977Y1750872D01*
X3401060Y1753920D01*
X3401822Y1757680D01*
X3401060Y1761286D01*
X3398977Y1764284D01*
X3395929Y1766316D01*
G37*
G36*
X3518662Y1767078D02*
G01*
X3512058Y1766417D01*
X3506165Y1764385D01*
X3501034Y1761083D01*
X3496716Y1756562D01*
X3493262Y1750872D01*
X3490772Y1744014D01*
X3489198Y1736140D01*
X3488690Y1727200D01*
X3488864Y1722628D01*
X3500628Y1722628D01*
X3500932Y1733905D01*
X3501898Y1741271D01*
X3503472Y1747520D01*
X3505606Y1752650D01*
X3508298Y1756613D01*
X3511448Y1759457D01*
X3515106Y1761185D01*
X3519170Y1761743D01*
X3525621Y1760270D01*
X3530701Y1755851D01*
X3534003Y1748586D01*
X3535172Y1738375D01*
X3534003Y1728317D01*
X3530650Y1721256D01*
X3525418Y1717141D01*
X3518662Y1715770D01*
X3514140Y1716176D01*
X3509568Y1717395D01*
X3504996Y1719529D01*
X3500628Y1722628D01*
X3488864Y1722628D01*
X3489553Y1716684D01*
X3490671Y1711655D01*
X3492195Y1706778D01*
X3494176Y1702104D01*
X3496513Y1697634D01*
X3499307Y1693468D01*
X3502507Y1689506D01*
X3506114Y1685848D01*
X3510076Y1682546D01*
X3514445Y1679498D01*
X3519220Y1676857D01*
X3524351Y1674622D01*
X3529888Y1672742D01*
X3535781Y1671320D01*
X3542029Y1670304D01*
X3542792Y1674114D01*
X3536492Y1675790D01*
X3530701Y1677873D01*
X3525520Y1680260D01*
X3520795Y1683004D01*
X3516680Y1686102D01*
X3513023Y1689557D01*
X3509873Y1693316D01*
X3507181Y1697482D01*
X3504996Y1701952D01*
X3503269Y1706829D01*
X3501999Y1712010D01*
X3501136Y1717548D01*
X3505758Y1713636D01*
X3510737Y1710791D01*
X3516122Y1709013D01*
X3521710Y1708404D01*
X3527196Y1708912D01*
X3532124Y1710385D01*
X3536442Y1712772D01*
X3540150Y1715973D01*
X3543096Y1720037D01*
X3545281Y1724812D01*
X3546652Y1730248D01*
X3547110Y1736343D01*
X3546551Y1743303D01*
X3545027Y1749399D01*
X3542537Y1754682D01*
X3539185Y1759051D01*
X3535019Y1762506D01*
X3530193Y1765046D01*
X3524707Y1766570D01*
G37*
G36*
X3587496Y1767078D02*
G01*
X3581400Y1766722D01*
X3575812Y1765554D01*
X3570935Y1763725D01*
X3566769Y1761185D01*
X3563365Y1757934D01*
X3560876Y1754022D01*
X3559352Y1749450D01*
X3558794Y1744218D01*
X3559018Y1742948D01*
X3569970Y1742948D01*
X3571290Y1750720D01*
X3574999Y1756613D01*
X3580688Y1760423D01*
X3588004Y1761743D01*
X3594811Y1760524D01*
X3600094Y1757019D01*
X3603548Y1751584D01*
X3604768Y1744472D01*
X3603701Y1738375D01*
X3600196Y1732737D01*
X3593642Y1727301D01*
X3583432Y1721612D01*
X3577488Y1726031D01*
X3573272Y1730857D01*
X3570782Y1736343D01*
X3569970Y1742948D01*
X3559018Y1742948D01*
X3560114Y1736750D01*
X3563975Y1730298D01*
X3570376Y1724609D01*
X3579114Y1719580D01*
X3571290Y1714093D01*
X3565906Y1707946D01*
X3562807Y1701038D01*
X3561842Y1693418D01*
X3562096Y1690878D01*
X3572256Y1690878D01*
X3573068Y1696720D01*
X3575964Y1702409D01*
X3581603Y1707946D01*
X3590544Y1713230D01*
X3595878Y1708505D01*
X3599383Y1703628D01*
X3601364Y1698193D01*
X3601974Y1691893D01*
X3601008Y1685798D01*
X3598164Y1680616D01*
X3593592Y1677009D01*
X3587496Y1675638D01*
X3581806Y1676704D01*
X3576929Y1679752D01*
X3573526Y1684528D01*
X3572256Y1690878D01*
X3562096Y1690878D01*
X3562350Y1688338D01*
X3563874Y1683816D01*
X3566210Y1679854D01*
X3569411Y1676552D01*
X3573272Y1673860D01*
X3577691Y1671929D01*
X3582670Y1670710D01*
X3588004Y1670304D01*
X3593236Y1670710D01*
X3597910Y1671929D01*
X3601974Y1673860D01*
X3605326Y1676450D01*
X3608019Y1679600D01*
X3610000Y1683257D01*
X3611219Y1687372D01*
X3611626Y1691893D01*
X3610864Y1697736D01*
X3608222Y1703679D01*
X3603040Y1709572D01*
X3594862Y1715262D01*
X3599942Y1717954D01*
X3604260Y1720748D01*
X3607917Y1723694D01*
X3610813Y1726844D01*
X3613099Y1730248D01*
X3614674Y1733956D01*
X3615639Y1737969D01*
X3615944Y1742439D01*
X3615385Y1747723D01*
X3613810Y1752498D01*
X3611321Y1756714D01*
X3607917Y1760270D01*
X3603751Y1763166D01*
X3598926Y1765300D01*
X3593439Y1766620D01*
G37*
G36*
X3643122Y1767078D02*
G01*
X3639515Y1766316D01*
X3636518Y1764284D01*
X3634486Y1761286D01*
X3633724Y1757680D01*
X3634486Y1753920D01*
X3636518Y1750872D01*
X3639515Y1748789D01*
X3643122Y1748028D01*
X3646881Y1748789D01*
X3649929Y1750872D01*
X3652012Y1753920D01*
X3652774Y1757680D01*
X3652012Y1761286D01*
X3649929Y1764284D01*
X3646881Y1766316D01*
G37*
G36*
X3754628Y1767078D02*
G01*
X3751021Y1766316D01*
X3748024Y1764284D01*
X3745992Y1761286D01*
X3745229Y1757680D01*
X3745992Y1753920D01*
X3748024Y1750872D01*
X3751021Y1748789D01*
X3754628Y1748028D01*
X3758387Y1748789D01*
X3761435Y1750872D01*
X3763518Y1753920D01*
X3764279Y1757680D01*
X3763518Y1761286D01*
X3761435Y1764284D01*
X3758387Y1766316D01*
G37*
G36*
X3172714Y1765300D02*
G01*
X3172714Y1760982D01*
X3192526Y1758188D01*
X3192729Y1741525D01*
X3192780Y1681480D01*
X3174238Y1683004D01*
X3174238Y1678178D01*
X3202940Y1670812D01*
X3204718Y1672336D01*
X3204210Y1692402D01*
X3204260Y1747113D01*
X3204464Y1758188D01*
X3224022Y1760982D01*
X3224022Y1765300D01*
G37*
G36*
X3308604Y1765300D02*
G01*
X3308604Y1756664D01*
X3329686Y1732788D01*
X3334410Y1727200D01*
X3338474Y1722018D01*
X3341878Y1717192D01*
X3344621Y1712620D01*
X3346754Y1708251D01*
X3348278Y1704035D01*
X3349193Y1699869D01*
X3349498Y1695704D01*
X3348278Y1687423D01*
X3344875Y1681124D01*
X3339541Y1677060D01*
X3332479Y1675638D01*
X3329076Y1675942D01*
X3325114Y1676654D01*
X3322320Y1686814D01*
X3320897Y1690878D01*
X3319170Y1693621D01*
X3317138Y1695196D01*
X3314700Y1695704D01*
X3312668Y1695399D01*
X3310788Y1694484D01*
X3309162Y1693113D01*
X3307842Y1691386D01*
X3309061Y1686407D01*
X3311144Y1682089D01*
X3313988Y1678482D01*
X3317443Y1675536D01*
X3321507Y1673199D01*
X3326028Y1671574D01*
X3330905Y1670608D01*
X3336036Y1670304D01*
X3342233Y1670761D01*
X3347567Y1672132D01*
X3351987Y1674266D01*
X3355543Y1677212D01*
X3358286Y1680768D01*
X3360165Y1684985D01*
X3361334Y1689709D01*
X3361690Y1694942D01*
X3361334Y1699310D01*
X3360267Y1703578D01*
X3358337Y1707946D01*
X3355543Y1712569D01*
X3351784Y1717649D01*
X3347008Y1723389D01*
X3334004Y1737614D01*
X3317494Y1754378D01*
X3365754Y1754378D01*
X3365754Y1765300D01*
G37*
G36*
X3423665Y1765300D02*
G01*
X3423665Y1760982D01*
X3443478Y1758188D01*
X3443681Y1741525D01*
X3443732Y1681480D01*
X3425190Y1683004D01*
X3425190Y1678178D01*
X3453892Y1670812D01*
X3455670Y1672336D01*
X3455162Y1692402D01*
X3455212Y1747113D01*
X3455415Y1758188D01*
X3474974Y1760982D01*
X3474974Y1765300D01*
G37*
G36*
X3705860Y1765300D02*
G01*
X3705860Y1736343D01*
X3668014Y1736343D01*
X3668014Y1729486D01*
X3668904Y1728216D01*
X3705860Y1728216D01*
X3705860Y1684020D01*
X3675126Y1728216D01*
X3668904Y1728216D01*
X3709162Y1670812D01*
X3717036Y1670812D01*
X3717036Y1728216D01*
X3731514Y1728216D01*
X3731514Y1736343D01*
X3717036Y1736343D01*
X3717036Y1765300D01*
G37*
G36*
X3786124Y1765300D02*
G01*
X3786124Y1760982D01*
X3805936Y1758188D01*
X3806139Y1747113D01*
X3806190Y1681480D01*
X3787648Y1683004D01*
X3787648Y1678178D01*
X3816350Y1670812D01*
X3818128Y1672336D01*
X3817620Y1692402D01*
X3817670Y1741525D01*
X3817874Y1758188D01*
X3837432Y1760982D01*
X3837432Y1765300D01*
G37*
G36*
X2790698Y1762760D02*
G01*
X2785110Y1750314D01*
X2801620Y1744218D01*
X2801620Y1701038D01*
X2787396Y1701038D01*
X2786380Y1697228D01*
X2801620Y1697228D01*
X2801620Y1661160D01*
X2815844Y1662684D01*
X2815488Y1663903D01*
X2814726Y1664919D01*
X2813354Y1665732D01*
X2811272Y1666239D01*
X2811272Y1697228D01*
X2814574Y1697228D01*
X2820162Y1688846D01*
X2830322Y1699006D01*
X2829966Y1699869D01*
X2829255Y1700479D01*
X2828239Y1700885D01*
X2827020Y1701038D01*
X2811272Y1701038D01*
X2811272Y1740154D01*
X2829560Y1732788D01*
X2830322Y1734057D01*
X2814777Y1745132D01*
X2793492Y1759204D01*
X2792374Y1761388D01*
X2791612Y1762201D01*
G37*
G36*
X2918206Y1761236D02*
G01*
X2911348Y1748789D01*
X2929382Y1743202D01*
X2929382Y1699514D01*
X2914650Y1699514D01*
X2913634Y1695704D01*
X2929382Y1695704D01*
X2929382Y1662938D01*
X2943860Y1664462D01*
X2943504Y1665528D01*
X2942742Y1666493D01*
X2941472Y1667256D01*
X2939542Y1667764D01*
X2939542Y1695704D01*
X2942844Y1695704D01*
X2948686Y1687322D01*
X2958592Y1697228D01*
X2958236Y1698243D01*
X2957525Y1698955D01*
X2956509Y1699361D01*
X2955290Y1699514D01*
X2939542Y1699514D01*
X2939542Y1739646D01*
X2958338Y1733042D01*
X2958846Y1734566D01*
X2943148Y1744624D01*
X2920746Y1757680D01*
X2920441Y1758746D01*
X2919120Y1760575D01*
G37*
G36*
X3066034Y1760728D02*
G01*
X3062478Y1760067D01*
X3059684Y1758238D01*
X3057804Y1755597D01*
X3057144Y1752346D01*
X3057804Y1748942D01*
X3059684Y1746097D01*
X3062478Y1744167D01*
X3066034Y1743456D01*
X3069590Y1744167D01*
X3072384Y1746097D01*
X3074263Y1748942D01*
X3074924Y1752346D01*
X3074263Y1755597D01*
X3072384Y1758238D01*
X3069590Y1760067D01*
G37*
G36*
X2712466Y1759712D02*
G01*
X2710942Y1758188D01*
X2714345Y1753362D01*
X2717546Y1748180D01*
X2720492Y1742795D01*
X2725775Y1731365D01*
X2730296Y1719478D01*
X2732278Y1713484D01*
X2729382Y1706473D01*
X2726029Y1699615D01*
X2722219Y1693214D01*
X2718054Y1687322D01*
X2719832Y1686052D01*
X2728214Y1695246D01*
X2735072Y1704086D01*
X2738120Y1690116D01*
X2740406Y1676907D01*
X2755392Y1679956D01*
X2755036Y1681124D01*
X2754223Y1681937D01*
X2752801Y1682445D01*
X2750566Y1682750D01*
X2746654Y1697837D01*
X2744114Y1705914D01*
X2741168Y1714246D01*
X2745384Y1723136D01*
X2748127Y1731060D01*
X2749499Y1737817D01*
X2749753Y1743252D01*
X2748991Y1747215D01*
X2747467Y1749450D01*
X2745282Y1749907D01*
X2742692Y1748282D01*
X2740202Y1737563D01*
X2736342Y1725168D01*
X2731566Y1734413D01*
X2726029Y1743405D01*
X2719679Y1751888D01*
X2716174Y1755902D01*
G37*
G36*
X2680970Y1756664D02*
G01*
X2679192Y1755393D01*
X2682138Y1750771D01*
X2687472Y1740814D01*
X2692044Y1730197D01*
X2695854Y1719122D01*
X2697480Y1713484D01*
X2694025Y1706473D01*
X2690063Y1699615D01*
X2685643Y1693214D01*
X2680716Y1687322D01*
X2682240Y1686306D01*
X2687472Y1690725D01*
X2692196Y1695196D01*
X2696362Y1699666D01*
X2700020Y1704086D01*
X2701544Y1696923D01*
X2703779Y1683207D01*
X2704592Y1676907D01*
X2720086Y1679956D01*
X2719527Y1681276D01*
X2718612Y1682140D01*
X2717139Y1682699D01*
X2715006Y1683004D01*
X2711500Y1697431D01*
X2709265Y1705254D01*
X2706624Y1713230D01*
X2710637Y1720596D01*
X2713228Y1727200D01*
X2714599Y1732788D01*
X2714853Y1737360D01*
X2714193Y1740662D01*
X2712821Y1742592D01*
X2710840Y1742998D01*
X2708402Y1741678D01*
X2702306Y1724152D01*
X2697988Y1732889D01*
X2692958Y1741373D01*
X2687320Y1749348D01*
G37*
G36*
X3066034Y1711452D02*
G01*
X3062478Y1710740D01*
X3059684Y1708861D01*
X3057804Y1706118D01*
X3057144Y1702816D01*
X3057804Y1699412D01*
X3059684Y1696669D01*
X3062478Y1694840D01*
X3066034Y1694180D01*
X3069590Y1694840D01*
X3072384Y1696669D01*
X3074263Y1699412D01*
X3074924Y1702816D01*
X3074263Y1706118D01*
X3072384Y1708861D01*
X3069590Y1710740D01*
G37*
G36*
X2609850Y7215886D02*
G01*
X2606395Y7215479D01*
X2603449Y7214311D01*
X2601010Y7212380D01*
X2598978Y7209688D01*
X2597251Y7206284D01*
X2595829Y7202068D01*
X2594559Y7197140D01*
X2592425Y7185152D01*
X2585466Y7139940D01*
X2569464Y7155180D01*
X2556154Y7168896D01*
X2545283Y7179767D01*
X2540508Y7183831D01*
X2536037Y7186879D01*
X2531770Y7188809D01*
X2527554Y7189470D01*
X2522220Y7188352D01*
X2518105Y7185456D01*
X2515514Y7181342D01*
X2514600Y7176516D01*
X2514955Y7173417D01*
X2516022Y7170521D01*
X2517749Y7167778D01*
X2520137Y7165187D01*
X2523134Y7162647D01*
X2531008Y7157567D01*
X2541168Y7152081D01*
X2580132Y7132320D01*
X2533446Y7108799D01*
X2526893Y7104938D01*
X2521610Y7101179D01*
X2517800Y7097318D01*
X2515412Y7093203D01*
X2514600Y7088631D01*
X2515514Y7083704D01*
X2518105Y7079589D01*
X2522220Y7076744D01*
X2527554Y7075678D01*
X2531770Y7076338D01*
X2536037Y7078218D01*
X2540508Y7081266D01*
X2545283Y7085330D01*
X2585466Y7125208D01*
X2592476Y7079996D01*
X2594711Y7068007D01*
X2595981Y7063079D01*
X2597404Y7058863D01*
X2599131Y7055459D01*
X2601112Y7052767D01*
X2603500Y7050836D01*
X2606294Y7049668D01*
X2609596Y7049262D01*
X2614980Y7050176D01*
X2619603Y7052868D01*
X2622854Y7057085D01*
X2624074Y7062724D01*
X2623616Y7066432D01*
X2622346Y7070699D01*
X2620314Y7075576D01*
X2607564Y7100366D01*
X2593848Y7127748D01*
X2635910Y7121245D01*
X2647442Y7119670D01*
X2656586Y7118705D01*
X2660142Y7118603D01*
X2666492Y7119670D01*
X2670860Y7122617D01*
X2673299Y7126986D01*
X2674112Y7132320D01*
X2673299Y7137755D01*
X2670860Y7142276D01*
X2666492Y7145375D01*
X2660142Y7146544D01*
X2652471Y7145934D01*
X2615692Y7140448D01*
X2594356Y7136892D01*
X2607564Y7164222D01*
X2620314Y7189927D01*
X2622346Y7194905D01*
X2623616Y7199274D01*
X2624074Y7202931D01*
X2622905Y7208164D01*
X2619806Y7212279D01*
X2615285Y7214920D01*
G37*
G36*
X2609850Y7032244D02*
G01*
X2606395Y7031837D01*
X2603449Y7030669D01*
X2601010Y7028738D01*
X2598978Y7026046D01*
X2597251Y7022642D01*
X2595829Y7018426D01*
X2594559Y7013498D01*
X2592425Y7001509D01*
X2585466Y6956298D01*
X2569464Y6971792D01*
X2556154Y6985457D01*
X2545283Y6996226D01*
X2540508Y7000290D01*
X2536037Y7003288D01*
X2531770Y7005167D01*
X2527554Y7005828D01*
X2522220Y7004710D01*
X2518105Y7001814D01*
X2515514Y6997700D01*
X2514600Y6992874D01*
X2515412Y6988352D01*
X2517749Y6984288D01*
X2521559Y6980428D01*
X2526792Y6976618D01*
X2533345Y6972757D01*
X2580132Y6948678D01*
X2560320Y6939025D01*
X2533446Y6925208D01*
X2526893Y6921347D01*
X2521610Y6917588D01*
X2517800Y6913676D01*
X2515412Y6909562D01*
X2514600Y6904990D01*
X2515514Y6900062D01*
X2518105Y6895947D01*
X2522220Y6893102D01*
X2527554Y6892036D01*
X2531770Y6892696D01*
X2536037Y6894626D01*
X2540508Y6897624D01*
X2545283Y6901738D01*
X2569464Y6926072D01*
X2585466Y6941566D01*
X2590292Y6911441D01*
X2592476Y6896506D01*
X2594711Y6884517D01*
X2595981Y6879590D01*
X2597404Y6875424D01*
X2599131Y6872020D01*
X2601112Y6869328D01*
X2603500Y6867398D01*
X2606294Y6866280D01*
X2609596Y6865874D01*
X2614980Y6866737D01*
X2619603Y6869328D01*
X2622854Y6873494D01*
X2624074Y6879081D01*
X2623616Y6882790D01*
X2622346Y6887057D01*
X2620314Y6891934D01*
X2607564Y6916724D01*
X2593848Y6944359D01*
X2635910Y6937603D01*
X2647442Y6936028D01*
X2656586Y6935063D01*
X2660142Y6934962D01*
X2666492Y6936028D01*
X2670860Y6938975D01*
X2673299Y6943344D01*
X2674112Y6948678D01*
X2673299Y6954113D01*
X2670860Y6958634D01*
X2666492Y6961733D01*
X2660142Y6962902D01*
X2652471Y6962292D01*
X2594356Y6953503D01*
X2607564Y6980580D01*
X2614625Y6994601D01*
X2620314Y7006437D01*
X2622346Y7011365D01*
X2623616Y7015683D01*
X2624074Y7019290D01*
X2622905Y7024522D01*
X2619806Y7028637D01*
X2615285Y7031278D01*
G37*
G36*
X2358644Y6846316D02*
G01*
X2355342Y6845046D01*
X2354122Y6839915D01*
X2352446Y6835190D01*
X2350211Y6830872D01*
X2347417Y6827062D01*
X2344166Y6823760D01*
X2340305Y6820966D01*
X2335936Y6818731D01*
X2330958Y6817106D01*
X2338984Y6805422D01*
X2347620Y6794449D01*
X2356866Y6784187D01*
X2366670Y6774637D01*
X2377033Y6765747D01*
X2387854Y6757466D01*
X2399182Y6749796D01*
X2410106Y6743192D01*
X2456688Y6743192D01*
X2468422Y6748881D01*
X2480411Y6754063D01*
X2492705Y6758736D01*
X2505252Y6763003D01*
X2518054Y6766763D01*
X2531059Y6770065D01*
X2544318Y6772960D01*
X2557830Y6775450D01*
X2571546Y6777532D01*
X2585466Y6779259D01*
X2585466Y6712458D01*
X2567940Y6704584D01*
X2555697Y6707073D01*
X2543657Y6709867D01*
X2531872Y6712915D01*
X2520289Y6716318D01*
X2508961Y6719976D01*
X2497937Y6723989D01*
X2487168Y6728256D01*
X2476703Y6732930D01*
X2466543Y6737858D01*
X2456688Y6743192D01*
X2410106Y6743192D01*
X2410968Y6742684D01*
X2403094Y6735724D01*
X2395372Y6728409D01*
X2387904Y6720586D01*
X2380640Y6712407D01*
X2373630Y6703720D01*
X2366873Y6694627D01*
X2360320Y6685025D01*
X2354072Y6675018D01*
X2348077Y6664553D01*
X2342337Y6653580D01*
X2336901Y6642100D01*
X2331720Y6630162D01*
X2336292Y6626859D01*
X2343251Y6638137D01*
X2350465Y6648907D01*
X2357932Y6659168D01*
X2365603Y6668922D01*
X2373477Y6678168D01*
X2381605Y6687007D01*
X2389987Y6695338D01*
X2398623Y6703263D01*
X2407462Y6710730D01*
X2416505Y6717792D01*
X2425801Y6724446D01*
X2435352Y6730746D01*
X2446223Y6726123D01*
X2457399Y6721906D01*
X2468880Y6717995D01*
X2480614Y6714388D01*
X2492654Y6711137D01*
X2504897Y6708140D01*
X2530297Y6702958D01*
X2556764Y6698742D01*
X2545588Y6692341D01*
X2535021Y6685635D01*
X2524963Y6678625D01*
X2515514Y6671309D01*
X2506624Y6663690D01*
X2498344Y6655816D01*
X2501138Y6650481D01*
X2509926Y6655257D01*
X2523998Y6662115D01*
X2533954Y6666534D01*
X2544318Y6670802D01*
X2555036Y6674916D01*
X2566111Y6678828D01*
X2577541Y6682587D01*
X2601163Y6689445D01*
X2613304Y6692544D01*
X2638094Y6698030D01*
X2663393Y6702501D01*
X2682494Y6705092D01*
X2672842Y6752336D01*
X2669286Y6750812D01*
X2666441Y6748068D01*
X2664409Y6744004D01*
X2663444Y6738620D01*
X2651709Y6735572D01*
X2640126Y6732270D01*
X2628798Y6728764D01*
X2617724Y6725056D01*
X2607005Y6721144D01*
X2596642Y6717030D01*
X2596642Y6790436D01*
X2621788Y6809740D01*
X2611526Y6822440D01*
X2601772Y6833971D01*
X2591562Y6845046D01*
X2588768Y6844030D01*
X2586888Y6841845D01*
X2585821Y6838746D01*
X2585466Y6834886D01*
X2585466Y6814312D01*
X2572969Y6812330D01*
X2560675Y6810095D01*
X2548585Y6807555D01*
X2536799Y6804761D01*
X2525166Y6801662D01*
X2513838Y6798259D01*
X2502712Y6794550D01*
X2491790Y6790537D01*
X2481173Y6786168D01*
X2470759Y6781495D01*
X2460599Y6776466D01*
X2450642Y6771081D01*
X2440990Y6765340D01*
X2431542Y6759194D01*
X2422702Y6765899D01*
X2414168Y6773011D01*
X2405989Y6780580D01*
X2398115Y6788556D01*
X2390597Y6797040D01*
X2383485Y6805980D01*
X2376678Y6815328D01*
X2370277Y6825183D01*
X2364282Y6835495D01*
G37*
G36*
X2599436Y6675374D02*
G01*
X2596794Y6673951D01*
X2594864Y6671716D01*
X2593746Y6668668D01*
X2593340Y6664959D01*
X2593340Y6567678D01*
X2565603Y6566916D01*
X2538222Y6565392D01*
X2538222Y6612381D01*
X2555748Y6628892D01*
X2529586Y6659880D01*
X2527452Y6657543D01*
X2525623Y6654342D01*
X2524099Y6649974D01*
X2522982Y6644386D01*
X2500020Y6643674D01*
X2478938Y6642760D01*
X2442159Y6640423D01*
X2426309Y6638950D01*
X2412085Y6637324D01*
X2399385Y6635445D01*
X2388158Y6633413D01*
X2378252Y6631127D01*
X2369718Y6628688D01*
X2362403Y6625945D01*
X2356307Y6623050D01*
X2351227Y6619849D01*
X2347214Y6616446D01*
X2343861Y6612483D01*
X2340965Y6608216D01*
X2338527Y6603695D01*
X2336596Y6598869D01*
X2335123Y6593840D01*
X2334056Y6588556D01*
X2333447Y6583019D01*
X2333244Y6577330D01*
X2339543Y6577228D01*
X2345232Y6576618D01*
X2350109Y6575196D01*
X2353818Y6572503D01*
X2356916Y6568287D01*
X2359710Y6562445D01*
X2362047Y6555384D01*
X2363724Y6547612D01*
X2370328Y6547612D01*
X2368448Y6566712D01*
X2367788Y6576110D01*
X2367534Y6583172D01*
X2367788Y6587083D01*
X2368600Y6590233D01*
X2370023Y6592976D01*
X2372106Y6595618D01*
X2373528Y6596938D01*
X2375357Y6598208D01*
X2380284Y6600647D01*
X2386838Y6602882D01*
X2395067Y6605016D01*
X2405024Y6606946D01*
X2416810Y6608724D01*
X2430373Y6610350D01*
X2445816Y6611823D01*
X2463190Y6613093D01*
X2503728Y6615175D01*
X2527046Y6615938D01*
X2527046Y6564630D01*
X2514600Y6563614D01*
X2490165Y6560870D01*
X2478176Y6559092D01*
X2466390Y6557060D01*
X2454757Y6554724D01*
X2443327Y6552031D01*
X2432100Y6548983D01*
X2421026Y6545529D01*
X2410155Y6541719D01*
X2399538Y6537452D01*
X2389073Y6532727D01*
X2378862Y6527495D01*
X2368854Y6521805D01*
X2359101Y6515607D01*
X2349550Y6508800D01*
X2340254Y6501434D01*
X2331212Y6493510D01*
X2334768Y6488938D01*
X2345029Y6494729D01*
X2355494Y6500063D01*
X2366111Y6504940D01*
X2376881Y6509359D01*
X2387803Y6513423D01*
X2398877Y6517081D01*
X2410104Y6520332D01*
X2421483Y6523278D01*
X2433015Y6525818D01*
X2444648Y6528104D01*
X2456434Y6530035D01*
X2468321Y6531711D01*
X2480360Y6533134D01*
X2492502Y6534302D01*
X2510942Y6535572D01*
X2535885Y6536639D01*
X2567584Y6536994D01*
X2593340Y6536690D01*
X2593340Y6493510D01*
X2604516Y6490462D01*
X2604516Y6622288D01*
X2628900Y6640830D01*
X2618943Y6653326D01*
X2609392Y6664604D01*
X2604363Y6670243D01*
G37*
G36*
X2628544Y6606489D02*
G01*
X2625344Y6606336D01*
X2622397Y6605778D01*
X2619705Y6604914D01*
X2617266Y6603644D01*
X2615133Y6602069D01*
X2613355Y6600240D01*
X2611983Y6598158D01*
X2610967Y6595872D01*
X2610408Y6593331D01*
X2610307Y6590639D01*
X2610713Y6587845D01*
X2611628Y6584899D01*
X2613101Y6581902D01*
X2615184Y6578853D01*
X2620365Y6577685D01*
X2625699Y6576009D01*
X2631186Y6573977D01*
X2642311Y6568948D01*
X2653284Y6562902D01*
X2663698Y6556349D01*
X2673146Y6549644D01*
X2677414Y6546342D01*
X2679446Y6550659D01*
X2676347Y6559092D01*
X2673045Y6566712D01*
X2669540Y6573621D01*
X2665933Y6579717D01*
X2662174Y6585153D01*
X2658364Y6589877D01*
X2654503Y6593941D01*
X2650642Y6597396D01*
X2646730Y6600240D01*
X2642920Y6602475D01*
X2639110Y6604203D01*
X2635453Y6605473D01*
X2631948Y6606184D01*
G37*
G36*
X2355596Y6464808D02*
G01*
X2352954Y6463995D01*
X2351125Y6462014D01*
X2350109Y6459118D01*
X2349754Y6455410D01*
X2349754Y6250432D01*
X2360676Y6247384D01*
X2360676Y6340094D01*
X2461006Y6340094D01*
X2461006Y6272530D01*
X2471928Y6269482D01*
X2471928Y6392926D01*
X2495550Y6411976D01*
X2485898Y6424168D01*
X2476703Y6435344D01*
X2467102Y6446266D01*
X2464308Y6444945D01*
X2462428Y6442811D01*
X2461361Y6439966D01*
X2461006Y6436360D01*
X2461006Y6370574D01*
X2360676Y6370574D01*
X2360676Y6411976D01*
X2384298Y6430772D01*
X2374544Y6443116D01*
X2365248Y6454241D01*
G37*
G36*
X2505100Y6462014D02*
G01*
X2502458Y6461912D01*
X2499969Y6461455D01*
X2497734Y6460693D01*
X2495753Y6459626D01*
X2494026Y6458254D01*
X2492603Y6456629D01*
X2491435Y6454749D01*
X2490622Y6452616D01*
X2490114Y6450279D01*
X2490012Y6447790D01*
X2490266Y6445046D01*
X2490927Y6442202D01*
X2491994Y6439154D01*
X2500274Y6433261D01*
X2509012Y6425996D01*
X2518003Y6417614D01*
X2527096Y6408420D01*
X2536139Y6398666D01*
X2544927Y6388557D01*
X2553309Y6378448D01*
X2561082Y6368542D01*
X2551887Y6359194D01*
X2542895Y6349441D01*
X2534107Y6339332D01*
X2525623Y6328816D01*
X2517444Y6317945D01*
X2509520Y6306769D01*
X2501950Y6295237D01*
X2494788Y6283401D01*
X2487980Y6271260D01*
X2481580Y6258814D01*
X2486406Y6254242D01*
X2493772Y6264249D01*
X2501646Y6274155D01*
X2509875Y6283960D01*
X2518511Y6293662D01*
X2527503Y6303213D01*
X2536748Y6312560D01*
X2546248Y6321653D01*
X2556002Y6330492D01*
X2565908Y6339027D01*
X2575966Y6347256D01*
X2586126Y6355080D01*
X2596337Y6362446D01*
X2606598Y6369456D01*
X2616809Y6375908D01*
X2626969Y6381902D01*
X2637028Y6387338D01*
X2637028Y6271260D01*
X2648204Y6267958D01*
X2648204Y6388354D01*
X2667000Y6408166D01*
X2638044Y6440170D01*
X2635707Y6437630D01*
X2634234Y6434277D01*
X2633319Y6429756D01*
X2632710Y6423660D01*
X2622143Y6417157D01*
X2611526Y6410045D01*
X2600909Y6402476D01*
X2590342Y6394348D01*
X2579827Y6385712D01*
X2569464Y6376670D01*
X2566517Y6386271D01*
X2563418Y6395212D01*
X2560167Y6403543D01*
X2556814Y6411214D01*
X2553360Y6418224D01*
X2549804Y6424676D01*
X2546197Y6430568D01*
X2542590Y6435852D01*
X2538882Y6440627D01*
X2535224Y6444843D01*
X2531567Y6448602D01*
X2527960Y6451803D01*
X2524353Y6454546D01*
X2520848Y6456832D01*
X2517444Y6458712D01*
X2514142Y6460134D01*
X2510993Y6461099D01*
X2507945Y6461760D01*
G37*
G36*
X2606294Y6269482D02*
G01*
X2603652Y6268110D01*
X2601823Y6265976D01*
X2600807Y6263081D01*
X2600452Y6259576D01*
X2600452Y6175756D01*
X2571546Y6166866D01*
X2543251Y6157671D01*
X2512822Y6147308D01*
X2512822Y6186678D01*
X2579878Y6186678D01*
X2575306Y6226556D01*
X2571597Y6225184D01*
X2568549Y6222796D01*
X2566212Y6218885D01*
X2564638Y6213094D01*
X2512822Y6213094D01*
X2512822Y6220714D01*
X2532380Y6236208D01*
X2524048Y6246723D01*
X2516073Y6256375D01*
X2507742Y6265672D01*
X2505100Y6264452D01*
X2503170Y6262319D01*
X2502052Y6259423D01*
X2501646Y6255766D01*
X2501646Y6213094D01*
X2443734Y6213094D01*
X2449525Y6241440D01*
X2453386Y6258814D01*
X2447544Y6259830D01*
X2426462Y6213094D01*
X2341372Y6213094D01*
X2339136Y6211366D01*
X2336190Y6206439D01*
X2333599Y6198819D01*
X2332482Y6188964D01*
X2332482Y6184392D01*
X2414016Y6184392D01*
X2394204Y6135370D01*
X2391003Y6133896D01*
X2388412Y6131915D01*
X2386380Y6129578D01*
X2385060Y6126988D01*
X2422398Y6107176D01*
X2425852Y6126835D01*
X2430983Y6153048D01*
X2437638Y6184392D01*
X2501646Y6184392D01*
X2501646Y6146800D01*
X2487422Y6133084D01*
X2510790Y6102858D01*
X2514600Y6110630D01*
X2518410Y6119876D01*
X2542692Y6128562D01*
X2570581Y6137605D01*
X2600452Y6146800D01*
X2600452Y6107938D01*
X2611374Y6104890D01*
X2611374Y6150356D01*
X2637840Y6157772D01*
X2661767Y6163919D01*
X2672283Y6166307D01*
X2681478Y6168136D01*
X2669286Y6208014D01*
X2666339Y6206439D01*
X2663850Y6203594D01*
X2662377Y6199276D01*
X2662428Y6193282D01*
X2638704Y6186982D01*
X2611374Y6178804D01*
X2611374Y6218936D01*
X2632710Y6236208D01*
X2623870Y6248196D01*
X2610764Y6264503D01*
G37*
G36*
X2611120Y6083554D02*
G01*
X2609596Y6078829D01*
X2607310Y6074511D01*
X2604465Y6070549D01*
X2601112Y6067094D01*
X2597404Y6064148D01*
X2593441Y6061811D01*
X2589326Y6060135D01*
X2585212Y6059170D01*
X2588463Y6046571D01*
X2592171Y6034125D01*
X2596337Y6021832D01*
X2600807Y6009741D01*
X2605735Y5997956D01*
X2610916Y5986526D01*
X2616504Y5975502D01*
X2622346Y5964936D01*
X2628442Y5954877D01*
X2634843Y5945378D01*
X2641447Y5936488D01*
X2648254Y5928258D01*
X2655265Y5920790D01*
X2662428Y5914136D01*
X2656128Y5906820D01*
X2649829Y5898642D01*
X2643479Y5889650D01*
X2637180Y5879896D01*
X2630932Y5869482D01*
X2624734Y5858510D01*
X2618689Y5846978D01*
X2612847Y5834989D01*
X2607157Y5822594D01*
X2601722Y5809894D01*
X2596540Y5796889D01*
X2591612Y5783732D01*
X2587091Y5770422D01*
X2582926Y5757062D01*
X2579166Y5743752D01*
X2575814Y5730494D01*
X2581402Y5728970D01*
X2585720Y5741009D01*
X2590596Y5753252D01*
X2595930Y5765546D01*
X2601671Y5777788D01*
X2607818Y5789879D01*
X2614269Y5801766D01*
X2620975Y5813298D01*
X2627934Y5824423D01*
X2634996Y5835040D01*
X2642209Y5845048D01*
X2649423Y5854395D01*
X2656636Y5862878D01*
X2663850Y5870498D01*
X2670911Y5877102D01*
X2677820Y5882640D01*
X2684526Y5886958D01*
X2673858Y5935980D01*
X2670911Y5934760D01*
X2668778Y5931865D01*
X2667406Y5927140D01*
X2666746Y5920486D01*
X2661564Y5928715D01*
X2656586Y5937859D01*
X2651861Y5947714D01*
X2647340Y5958281D01*
X2643073Y5969508D01*
X2639009Y5981192D01*
X2635250Y5993333D01*
X2631744Y6005880D01*
X2628493Y6018631D01*
X2625547Y6031585D01*
X2622854Y6044641D01*
X2618435Y6070701D01*
X2616708Y6083554D01*
G37*
G36*
X2404364Y6078982D02*
G01*
X2401722Y6077661D01*
X2399944Y6075578D01*
X2398877Y6072682D01*
X2398522Y6069076D01*
X2398522Y5920994D01*
X2370836Y5920994D01*
X2365603Y5920841D01*
X2360676Y5920333D01*
X2356053Y5919368D01*
X2351735Y5917844D01*
X2347823Y5915660D01*
X2344267Y5912764D01*
X2341067Y5909005D01*
X2338273Y5904331D01*
X2335885Y5898591D01*
X2333904Y5891733D01*
X2332329Y5883656D01*
X2331212Y5874258D01*
X2337511Y5873343D01*
X2342997Y5871667D01*
X2347671Y5869025D01*
X2351532Y5865114D01*
X2353208Y5862675D01*
X2354783Y5859780D01*
X2356307Y5856376D01*
X2357729Y5852312D01*
X2359050Y5847638D01*
X2361285Y5836056D01*
X2362200Y5829046D01*
X2367788Y5829046D01*
X2366365Y5852210D01*
X2364994Y5881878D01*
X2365349Y5885992D01*
X2366518Y5888532D01*
X2368651Y5889904D01*
X2371852Y5890260D01*
X2398522Y5890260D01*
X2398522Y5733796D01*
X2409444Y5730494D01*
X2409444Y5890260D01*
X2437130Y5890260D01*
X2437130Y5766308D01*
X2448306Y5763260D01*
X2448306Y5890260D01*
X2476246Y5890260D01*
X2474823Y5853480D01*
X2474366Y5828690D01*
X2474264Y5810097D01*
X2474518Y5785510D01*
X2474976Y5767324D01*
X2482088Y5766562D01*
X2483561Y5791809D01*
X2484983Y5811316D01*
X2487980Y5844387D01*
X2490876Y5870854D01*
X2494940Y5903264D01*
X2498496Y5928207D01*
X2502306Y5951778D01*
X2506218Y5973622D01*
X2509266Y5988558D01*
X2562352Y5988558D01*
X2562352Y5822188D01*
X2530094Y5822188D01*
X2530094Y5988558D01*
X2519172Y5988558D01*
X2519172Y5822188D01*
X2510536Y5822188D01*
X2507894Y5819902D01*
X2504795Y5813958D01*
X2502204Y5805779D01*
X2501138Y5796788D01*
X2501138Y5792470D01*
X2586736Y5792470D01*
X2573020Y5824474D01*
X2573020Y5985256D01*
X2589022Y5999734D01*
X2564892Y6032500D01*
X2563063Y6030315D01*
X2561234Y6027267D01*
X2559558Y6023406D01*
X2558288Y6018784D01*
X2516124Y6018784D01*
X2514955Y6017717D01*
X2513533Y6015380D01*
X2511958Y6011976D01*
X2510536Y6007608D01*
X2484628Y6033262D01*
X2482951Y6030010D01*
X2482646Y6025337D01*
X2483662Y6019495D01*
X2486152Y6012688D01*
X2483662Y5992063D01*
X2481478Y5969711D01*
X2477770Y5920994D01*
X2448306Y5920994D01*
X2448306Y5992622D01*
X2470912Y6010910D01*
X2461564Y6023305D01*
X2452674Y6034582D01*
X2443480Y6045454D01*
X2440686Y6044336D01*
X2438704Y6042304D01*
X2437536Y6039459D01*
X2437130Y6036056D01*
X2437130Y5920994D01*
X2409444Y5920994D01*
X2409444Y6024626D01*
X2432812Y6043676D01*
X2423160Y6056376D01*
X2413965Y6067907D01*
G37*
G36*
X2602230Y5978398D02*
G01*
X2599436Y5977280D01*
X2597556Y5975197D01*
X2596489Y5972302D01*
X2596134Y5968746D01*
X2596134Y5836666D01*
X2607310Y5833618D01*
X2607310Y5931916D01*
X2625852Y5948426D01*
X2617774Y5958941D01*
G37*
G36*
X2355596Y5702808D02*
G01*
X2352954Y5701995D01*
X2351125Y5700014D01*
X2350109Y5697118D01*
X2349754Y5693410D01*
X2349754Y5488432D01*
X2360676Y5485384D01*
X2360676Y5578094D01*
X2461006Y5578094D01*
X2461006Y5510530D01*
X2471928Y5507482D01*
X2471928Y5630926D01*
X2495550Y5649976D01*
X2485898Y5662168D01*
X2476703Y5673344D01*
X2467102Y5684266D01*
X2464308Y5682945D01*
X2462428Y5680811D01*
X2461361Y5677966D01*
X2461006Y5674360D01*
X2461006Y5608574D01*
X2360676Y5608574D01*
X2360676Y5649976D01*
X2384298Y5668772D01*
X2374544Y5681116D01*
X2365248Y5692241D01*
G37*
G36*
X2505100Y5700014D02*
G01*
X2502458Y5699912D01*
X2499969Y5699455D01*
X2497734Y5698693D01*
X2495753Y5697626D01*
X2494026Y5696254D01*
X2492603Y5694629D01*
X2491435Y5692749D01*
X2490622Y5690616D01*
X2490114Y5688279D01*
X2490012Y5685790D01*
X2490266Y5683046D01*
X2490927Y5680202D01*
X2491994Y5677154D01*
X2500274Y5671261D01*
X2509012Y5663996D01*
X2518003Y5655614D01*
X2527096Y5646420D01*
X2536139Y5636666D01*
X2544927Y5626557D01*
X2553309Y5616448D01*
X2561082Y5606542D01*
X2551887Y5597194D01*
X2542895Y5587441D01*
X2534107Y5577332D01*
X2525623Y5566816D01*
X2517444Y5555945D01*
X2509520Y5544769D01*
X2501950Y5533237D01*
X2494788Y5521401D01*
X2487980Y5509260D01*
X2481580Y5496814D01*
X2486406Y5492242D01*
X2493772Y5502249D01*
X2501646Y5512155D01*
X2509875Y5521960D01*
X2518511Y5531662D01*
X2527503Y5541213D01*
X2536748Y5550560D01*
X2546248Y5559653D01*
X2556002Y5568492D01*
X2565908Y5577027D01*
X2575966Y5585256D01*
X2586126Y5593080D01*
X2596337Y5600446D01*
X2606598Y5607456D01*
X2616809Y5613908D01*
X2626969Y5619902D01*
X2637028Y5625338D01*
X2637028Y5509260D01*
X2648204Y5505958D01*
X2648204Y5626354D01*
X2667000Y5646166D01*
X2638044Y5678170D01*
X2635707Y5675630D01*
X2634234Y5672277D01*
X2633319Y5667756D01*
X2632710Y5661660D01*
X2622143Y5655157D01*
X2611526Y5648045D01*
X2600909Y5640476D01*
X2590342Y5632348D01*
X2579827Y5623712D01*
X2569464Y5614670D01*
X2566517Y5624271D01*
X2563418Y5633212D01*
X2560167Y5641543D01*
X2556814Y5649214D01*
X2553360Y5656224D01*
X2549804Y5662676D01*
X2546197Y5668568D01*
X2542590Y5673852D01*
X2538882Y5678627D01*
X2535224Y5682843D01*
X2531567Y5686602D01*
X2527960Y5689803D01*
X2524353Y5692546D01*
X2520848Y5694832D01*
X2517444Y5696712D01*
X2514142Y5698134D01*
X2510993Y5699099D01*
X2507945Y5699760D01*
G37*
G36*
X2606294Y5507482D02*
G01*
X2603652Y5506110D01*
X2601823Y5503976D01*
X2600807Y5501081D01*
X2600452Y5497576D01*
X2600452Y5413756D01*
X2571546Y5404866D01*
X2543251Y5395671D01*
X2512822Y5385308D01*
X2512822Y5424678D01*
X2579878Y5424678D01*
X2575306Y5464556D01*
X2571597Y5463184D01*
X2568549Y5460796D01*
X2566212Y5456885D01*
X2564638Y5451094D01*
X2512822Y5451094D01*
X2512822Y5458714D01*
X2532380Y5474208D01*
X2524048Y5484723D01*
X2516073Y5494375D01*
X2507742Y5503672D01*
X2505100Y5502452D01*
X2503170Y5500319D01*
X2502052Y5497423D01*
X2501646Y5493766D01*
X2501646Y5451094D01*
X2443734Y5451094D01*
X2449525Y5479440D01*
X2453386Y5496814D01*
X2447544Y5497830D01*
X2426462Y5451094D01*
X2341372Y5451094D01*
X2339136Y5449366D01*
X2336190Y5444439D01*
X2333599Y5436819D01*
X2332482Y5426964D01*
X2332482Y5422392D01*
X2414016Y5422392D01*
X2394204Y5373370D01*
X2391003Y5371896D01*
X2388412Y5369915D01*
X2386380Y5367578D01*
X2385060Y5364988D01*
X2422398Y5345176D01*
X2425852Y5364835D01*
X2430983Y5391048D01*
X2437638Y5422392D01*
X2501646Y5422392D01*
X2501646Y5384800D01*
X2487422Y5371084D01*
X2510790Y5340858D01*
X2514600Y5348630D01*
X2518410Y5357876D01*
X2542692Y5366562D01*
X2570581Y5375605D01*
X2600452Y5384800D01*
X2600452Y5345938D01*
X2611374Y5342890D01*
X2611374Y5388356D01*
X2637840Y5395772D01*
X2661767Y5401919D01*
X2672283Y5404307D01*
X2681478Y5406136D01*
X2669286Y5446014D01*
X2666339Y5444439D01*
X2663850Y5441594D01*
X2662377Y5437276D01*
X2662428Y5431282D01*
X2638704Y5424982D01*
X2611374Y5416804D01*
X2611374Y5456936D01*
X2632710Y5474208D01*
X2623870Y5486196D01*
X2610764Y5502503D01*
G37*
G36*
X2387346Y5073142D02*
G01*
X2382164Y5072634D01*
X2377389Y5071211D01*
X2373071Y5068874D01*
X2369312Y5065826D01*
X2366213Y5062016D01*
X2363927Y5057597D01*
X2362454Y5052669D01*
X2361946Y5047234D01*
X2362454Y5041747D01*
X2363927Y5036769D01*
X2366213Y5032349D01*
X2369312Y5028539D01*
X2373071Y5025491D01*
X2377389Y5023205D01*
X2382164Y5021834D01*
X2387346Y5021326D01*
X2392375Y5021834D01*
X2397048Y5023256D01*
X2401316Y5025491D01*
X2405075Y5028539D01*
X2408174Y5032349D01*
X2410510Y5036769D01*
X2411984Y5041747D01*
X2412492Y5047234D01*
X2411984Y5052669D01*
X2410510Y5057597D01*
X2408174Y5062016D01*
X2405075Y5065826D01*
X2401316Y5068874D01*
X2397048Y5071211D01*
X2392375Y5072634D01*
G37*
G36*
X2627223Y5070856D02*
G01*
X2612237Y5070195D01*
X2592781Y5068722D01*
X2567838Y5066334D01*
X2507742Y5059680D01*
X2449068Y5054346D01*
X2449068Y5040122D01*
X2507742Y5034788D01*
X2574848Y5027472D01*
X2598267Y5025288D01*
X2616403Y5024018D01*
X2630424Y5023612D01*
X2637180Y5024018D01*
X2642971Y5025288D01*
X2647848Y5027269D01*
X2651760Y5030012D01*
X2654808Y5033416D01*
X2656941Y5037429D01*
X2658211Y5042052D01*
X2658618Y5047234D01*
X2658211Y5052415D01*
X2656941Y5057038D01*
X2654808Y5061051D01*
X2651760Y5064455D01*
X2647848Y5067198D01*
X2642971Y5069179D01*
X2637180Y5070449D01*
X2630424Y5070856D01*
G37*
G36*
X2445004Y4938268D02*
G01*
X2442210Y4937099D01*
X2440228Y4934915D01*
X2439060Y4931968D01*
X2438654Y4928362D01*
X2438654Y4837684D01*
X2340102Y4837684D01*
X2337409Y4835499D01*
X2334514Y4829759D01*
X2332177Y4821936D01*
X2331212Y4813300D01*
X2331212Y4807458D01*
X2438654Y4807458D01*
X2438654Y4722114D01*
X2449830Y4719320D01*
X2449830Y4807458D01*
X2492502Y4807458D01*
X2487930Y4850638D01*
X2484577Y4849571D01*
X2481732Y4847285D01*
X2479548Y4843475D01*
X2478024Y4837684D01*
X2449830Y4837684D01*
X2449830Y4883658D01*
X2474722Y4902708D01*
X2464511Y4915560D01*
X2454910Y4927142D01*
G37*
G36*
X2621788Y4931156D02*
G01*
X2618994Y4929733D01*
X2617114Y4927447D01*
X2616047Y4924450D01*
X2615692Y4920742D01*
X2615692Y4726940D01*
X2626614Y4723892D01*
X2626614Y4878324D01*
X2650236Y4896612D01*
X2631287Y4920081D01*
G37*
G36*
X2512517Y4925060D02*
G01*
X2509621Y4924907D01*
X2506929Y4924450D01*
X2504490Y4923637D01*
X2502255Y4922520D01*
X2500325Y4921097D01*
X2498699Y4919472D01*
X2497378Y4917592D01*
X2496464Y4915458D01*
X2495905Y4913223D01*
X2495804Y4910836D01*
X2496159Y4908296D01*
X2496972Y4905654D01*
X2498293Y4902911D01*
X2500122Y4900168D01*
X2506776Y4898644D01*
X2513584Y4896307D01*
X2520340Y4893208D01*
X2527096Y4889500D01*
X2533599Y4885334D01*
X2539898Y4880813D01*
X2545740Y4876038D01*
X2551176Y4871212D01*
X2540660Y4864506D01*
X2530246Y4857242D01*
X2520137Y4849469D01*
X2510383Y4841240D01*
X2501138Y4832451D01*
X2492502Y4823206D01*
X2497074Y4819142D01*
X2507132Y4825288D01*
X2518003Y4831130D01*
X2529535Y4836617D01*
X2541422Y4841697D01*
X2553563Y4846370D01*
X2565704Y4850638D01*
X2577693Y4854397D01*
X2589276Y4857648D01*
X2600350Y4860391D01*
X2610612Y4862576D01*
X2594356Y4904740D01*
X2591562Y4902962D01*
X2589682Y4900320D01*
X2588818Y4896408D01*
X2589022Y4890770D01*
X2573934Y4883607D01*
X2558288Y4875276D01*
X2555544Y4882794D01*
X2552598Y4889601D01*
X2549499Y4895748D01*
X2546248Y4901184D01*
X2542946Y4906060D01*
X2539492Y4910277D01*
X2536037Y4913884D01*
X2532532Y4916932D01*
X2529027Y4919472D01*
X2525522Y4921504D01*
X2522118Y4923078D01*
X2518816Y4924145D01*
X2515616Y4924806D01*
G37*
G36*
X2647543Y4842713D02*
G01*
X2644698Y4842662D01*
X2642006Y4842154D01*
X2639517Y4841341D01*
X2637231Y4840173D01*
X2635250Y4838700D01*
X2633522Y4836972D01*
X2632100Y4835042D01*
X2630982Y4832858D01*
X2630322Y4830470D01*
X2630017Y4827981D01*
X2630119Y4825339D01*
X2630678Y4822596D01*
X2631795Y4819751D01*
X2633370Y4816906D01*
X2635504Y4814062D01*
X2641803Y4813452D01*
X2648356Y4811979D01*
X2654858Y4809794D01*
X2661361Y4806899D01*
X2667609Y4803597D01*
X2673502Y4799888D01*
X2678938Y4795977D01*
X2683764Y4791964D01*
X2686050Y4795774D01*
X2683764Y4803292D01*
X2681224Y4810099D01*
X2678531Y4816094D01*
X2675686Y4821478D01*
X2672689Y4826152D01*
X2669590Y4830165D01*
X2666390Y4833569D01*
X2663190Y4836414D01*
X2659938Y4838649D01*
X2656738Y4840376D01*
X2653588Y4841646D01*
X2650490Y4842408D01*
G37*
G36*
X2521813Y4817872D02*
G01*
X2518867Y4817770D01*
X2516174Y4817262D01*
X2513685Y4816348D01*
X2511501Y4815078D01*
X2509570Y4813503D01*
X2507996Y4811623D01*
X2506827Y4809490D01*
X2506116Y4807204D01*
X2505811Y4804714D01*
X2506014Y4802073D01*
X2506776Y4799380D01*
X2508097Y4796586D01*
X2510028Y4793742D01*
X2514854Y4793132D01*
X2519730Y4791913D01*
X2524607Y4790236D01*
X2529484Y4788052D01*
X2534208Y4785512D01*
X2538831Y4782718D01*
X2547366Y4776470D01*
X2534767Y4769764D01*
X2522220Y4762296D01*
X2509977Y4754168D01*
X2498140Y4745329D01*
X2487015Y4735931D01*
X2476754Y4725924D01*
X2481072Y4721606D01*
X2492705Y4728210D01*
X2505100Y4734356D01*
X2518206Y4740097D01*
X2531668Y4745380D01*
X2545384Y4750206D01*
X2559050Y4754575D01*
X2572562Y4758436D01*
X2585669Y4761738D01*
X2598166Y4764582D01*
X2609850Y4766818D01*
X2594610Y4809236D01*
X2591612Y4807356D01*
X2589580Y4804562D01*
X2588514Y4800498D01*
X2588514Y4794758D01*
X2572816Y4788458D01*
X2555748Y4781042D01*
X2553208Y4787950D01*
X2550464Y4793996D01*
X2547518Y4799279D01*
X2544419Y4803851D01*
X2541219Y4807661D01*
X2537917Y4810861D01*
X2534615Y4813401D01*
X2531313Y4815332D01*
X2528062Y4816703D01*
X2524861Y4817516D01*
G37*
G36*
X2639568Y4741672D02*
G01*
X2636926Y4740452D01*
X2634996Y4738319D01*
X2633878Y4735423D01*
X2633472Y4731766D01*
X2633472Y4665472D01*
X2621534Y4663287D01*
X2609697Y4660849D01*
X2598013Y4658055D01*
X2586431Y4654956D01*
X2575102Y4651603D01*
X2563926Y4647996D01*
X2553004Y4644136D01*
X2542286Y4640072D01*
X2538984Y4647946D01*
X2538984Y4681728D01*
X2555494Y4696714D01*
X2530094Y4728718D01*
X2528112Y4726330D01*
X2526131Y4722774D01*
X2524404Y4718304D01*
X2522982Y4713224D01*
X2375916Y4713224D01*
X2373477Y4710734D01*
X2370785Y4704994D01*
X2368651Y4697526D01*
X2367788Y4689856D01*
X2367788Y4685792D01*
X2528062Y4685792D01*
X2528062Y4643374D01*
X2408936Y4643374D01*
X2408936Y4685792D01*
X2397506Y4685792D01*
X2397506Y4643374D01*
X2359152Y4643374D01*
X2356866Y4641748D01*
X2353818Y4637176D01*
X2351176Y4630064D01*
X2350008Y4621022D01*
X2350008Y4616196D01*
X2492502Y4616196D01*
X2480868Y4609287D01*
X2469591Y4601921D01*
X2458669Y4594148D01*
X2448052Y4585970D01*
X2452370Y4580128D01*
X2461971Y4585208D01*
X2471928Y4590034D01*
X2482240Y4594656D01*
X2492857Y4599076D01*
X2503779Y4603242D01*
X2514904Y4607153D01*
X2526284Y4610862D01*
X2549601Y4617669D01*
X2573426Y4623612D01*
X2591460Y4627473D01*
X2615539Y4631944D01*
X2633472Y4634738D01*
X2633472Y4589526D01*
X2644902Y4586478D01*
X2644902Y4688332D01*
X2668270Y4706874D01*
X2649220Y4730546D01*
G37*
G36*
X2479548Y4542790D02*
G01*
X2477617Y4540097D01*
X2475941Y4536592D01*
X2474671Y4532172D01*
X2473706Y4526788D01*
X2457958Y4524705D01*
X2442921Y4522368D01*
X2428646Y4519676D01*
X2415184Y4516678D01*
X2402636Y4513427D01*
X2391003Y4509871D01*
X2375458Y4504029D01*
X2366518Y4499762D01*
X2358694Y4495241D01*
X2355240Y4492904D01*
X2352090Y4490466D01*
X2346807Y4485436D01*
X2344674Y4482846D01*
X2341727Y4478274D01*
X2339136Y4473295D01*
X2336901Y4467961D01*
X2335123Y4462322D01*
X2333752Y4456379D01*
X2332786Y4450130D01*
X2332278Y4443628D01*
X2332228Y4436872D01*
X2338527Y4436516D01*
X2344318Y4435246D01*
X2349398Y4432909D01*
X2353564Y4429252D01*
X2355342Y4426508D01*
X2357120Y4422902D01*
X2358796Y4418584D01*
X2360371Y4413656D01*
X2363114Y4402582D01*
X2365248Y4390644D01*
X2371852Y4390644D01*
X2369108Y4422140D01*
X2367991Y4437227D01*
X2367534Y4447540D01*
X2367686Y4452620D01*
X2368346Y4456734D01*
X2369667Y4460290D01*
X2371852Y4463796D01*
X2373528Y4465675D01*
X2375662Y4467606D01*
X2381300Y4471365D01*
X2388717Y4475022D01*
X2397709Y4478578D01*
X2408224Y4482033D01*
X2420061Y4485284D01*
X2433116Y4488332D01*
X2447239Y4491177D01*
X2462326Y4493768D01*
X2478278Y4496054D01*
X2478278Y4458208D01*
X2467203Y4453382D01*
X2456484Y4448048D01*
X2446070Y4442206D01*
X2435961Y4435957D01*
X2426208Y4429150D01*
X2416759Y4421886D01*
X2407666Y4414113D01*
X2398877Y4405833D01*
X2390444Y4397044D01*
X2382316Y4387748D01*
X2374493Y4377944D01*
X2367076Y4367631D01*
X2359964Y4356760D01*
X2353157Y4345381D01*
X2346706Y4333443D01*
X2340610Y4320946D01*
X2334869Y4307941D01*
X2329434Y4294378D01*
X2335530Y4291076D01*
X2342032Y4302912D01*
X2348839Y4314291D01*
X2356104Y4325162D01*
X2363673Y4335526D01*
X2371598Y4345432D01*
X2379827Y4354779D01*
X2388412Y4363720D01*
X2397302Y4372152D01*
X2406446Y4380077D01*
X2415946Y4387545D01*
X2425700Y4394504D01*
X2435707Y4401007D01*
X2446020Y4407001D01*
X2456535Y4412538D01*
X2467305Y4417568D01*
X2478278Y4422140D01*
X2478278Y4385818D01*
X2469134Y4379671D01*
X2460193Y4373016D01*
X2451455Y4365955D01*
X2442972Y4358436D01*
X2434691Y4350461D01*
X2426665Y4342079D01*
X2418842Y4333290D01*
X2411323Y4324146D01*
X2404008Y4314647D01*
X2396998Y4304792D01*
X2390241Y4294581D01*
X2383790Y4284116D01*
X2377643Y4273296D01*
X2371750Y4262221D01*
X2366162Y4250842D01*
X2360930Y4239260D01*
X2366772Y4234942D01*
X2374087Y4246626D01*
X2381910Y4258005D01*
X2390241Y4269079D01*
X2398979Y4279849D01*
X2408072Y4290161D01*
X2417470Y4300118D01*
X2427173Y4309618D01*
X2437130Y4318660D01*
X2447239Y4327194D01*
X2457500Y4335221D01*
X2467864Y4342638D01*
X2478278Y4349496D01*
X2478278Y4310126D01*
X2471166Y4301794D01*
X2464155Y4293006D01*
X2457246Y4283913D01*
X2450592Y4274464D01*
X2444140Y4264710D01*
X2437993Y4254652D01*
X2432151Y4244340D01*
X2426716Y4233824D01*
X2421636Y4223054D01*
X2417064Y4212082D01*
X2420874Y4209034D01*
X2428494Y4220210D01*
X2436723Y4231182D01*
X2445512Y4241901D01*
X2454757Y4252264D01*
X2464358Y4262323D01*
X2474214Y4271873D01*
X2484221Y4280916D01*
X2494229Y4289399D01*
X2504236Y4297222D01*
X2514092Y4304334D01*
X2523642Y4310684D01*
X2532888Y4316222D01*
X2532888Y4303014D01*
X2522982Y4303014D01*
X2520137Y4300778D01*
X2516886Y4294987D01*
X2514193Y4286808D01*
X2513076Y4277614D01*
X2513076Y4273042D01*
X2673096Y4273042D01*
X2658872Y4305554D01*
X2658872Y4456176D01*
X2676652Y4472686D01*
X2649728Y4506976D01*
X2647543Y4504486D01*
X2645613Y4500880D01*
X2643936Y4496308D01*
X2642616Y4490974D01*
X2525522Y4490974D01*
X2523134Y4488230D01*
X2520086Y4481626D01*
X2517495Y4473244D01*
X2516378Y4465066D01*
X2516378Y4460240D01*
X2647950Y4460240D01*
X2647950Y4303014D01*
X2602230Y4303014D01*
X2602230Y4460240D01*
X2591054Y4460240D01*
X2591054Y4303014D01*
X2544064Y4303014D01*
X2544064Y4460240D01*
X2532888Y4460240D01*
X2532888Y4330446D01*
X2523744Y4364482D01*
X2520950Y4362805D01*
X2518765Y4359706D01*
X2517394Y4354830D01*
X2516886Y4347718D01*
X2510129Y4342079D01*
X2503271Y4335830D01*
X2489454Y4322064D01*
X2489454Y4493006D01*
X2506472Y4510278D01*
G37*
G36*
X2609850Y4181601D02*
G01*
X2606395Y4181195D01*
X2603449Y4180078D01*
X2601010Y4178147D01*
X2598978Y4175455D01*
X2597251Y4172051D01*
X2595829Y4167886D01*
X2594559Y4162958D01*
X2592425Y4150969D01*
X2589022Y4127500D01*
X2585466Y4105910D01*
X2569464Y4120896D01*
X2545283Y4145584D01*
X2540508Y4149750D01*
X2536037Y4152849D01*
X2531770Y4154779D01*
X2527554Y4155440D01*
X2522220Y4154322D01*
X2518105Y4151325D01*
X2515514Y4147210D01*
X2514600Y4142486D01*
X2514955Y4139336D01*
X2516022Y4136390D01*
X2517749Y4133646D01*
X2520137Y4131005D01*
X2523134Y4128414D01*
X2526792Y4125874D01*
X2531008Y4123283D01*
X2541168Y4117797D01*
X2560320Y4107942D01*
X2580132Y4098290D01*
X2533446Y4074617D01*
X2526893Y4070756D01*
X2521610Y4066997D01*
X2517800Y4063085D01*
X2515412Y4058920D01*
X2514600Y4054348D01*
X2515514Y4049420D01*
X2518105Y4045305D01*
X2522220Y4042460D01*
X2527554Y4041394D01*
X2531770Y4042054D01*
X2536037Y4043934D01*
X2540508Y4046982D01*
X2545283Y4051046D01*
X2585466Y4090924D01*
X2592476Y4045712D01*
X2594711Y4033723D01*
X2595981Y4028795D01*
X2597404Y4024579D01*
X2599131Y4021175D01*
X2601112Y4018483D01*
X2603500Y4016552D01*
X2606294Y4015384D01*
X2609596Y4014978D01*
X2614980Y4015892D01*
X2619603Y4018584D01*
X2622854Y4022801D01*
X2624074Y4028440D01*
X2623616Y4032148D01*
X2622346Y4036415D01*
X2620314Y4041292D01*
X2593848Y4093464D01*
X2635910Y4087063D01*
X2647442Y4085539D01*
X2656586Y4084675D01*
X2660142Y4084574D01*
X2666492Y4085640D01*
X2670860Y4088587D01*
X2673299Y4092956D01*
X2674112Y4098290D01*
X2673299Y4103674D01*
X2670860Y4108145D01*
X2666492Y4111142D01*
X2660142Y4112260D01*
X2652471Y4111701D01*
X2642006Y4110278D01*
X2594356Y4102608D01*
X2607564Y4129938D01*
X2620314Y4155643D01*
X2622346Y4160621D01*
X2623616Y4164990D01*
X2624074Y4168648D01*
X2622905Y4173880D01*
X2619806Y4177995D01*
X2615285Y4180636D01*
G37*
G36*
X2609850Y3997960D02*
G01*
X2606395Y3997553D01*
X2603449Y3996385D01*
X2601010Y3994454D01*
X2598978Y3991762D01*
X2597251Y3988358D01*
X2595829Y3984142D01*
X2594559Y3979214D01*
X2592425Y3967226D01*
X2585466Y3922014D01*
X2569464Y3937254D01*
X2556154Y3951071D01*
X2545283Y3961942D01*
X2540508Y3966006D01*
X2536037Y3969004D01*
X2531770Y3970883D01*
X2527554Y3971544D01*
X2522220Y3970477D01*
X2518105Y3967581D01*
X2515514Y3963517D01*
X2514600Y3958844D01*
X2514955Y3955694D01*
X2516022Y3952748D01*
X2517749Y3950004D01*
X2520137Y3947363D01*
X2523134Y3944823D01*
X2526792Y3942283D01*
X2531008Y3939692D01*
X2541168Y3934256D01*
X2580132Y3914394D01*
X2533446Y3890975D01*
X2526893Y3887114D01*
X2521610Y3883355D01*
X2517800Y3879443D01*
X2515412Y3875278D01*
X2514600Y3870706D01*
X2515514Y3865778D01*
X2518105Y3861663D01*
X2522220Y3858818D01*
X2527554Y3857751D01*
X2531770Y3858412D01*
X2536037Y3860342D01*
X2540508Y3863340D01*
X2545283Y3867454D01*
X2569464Y3891787D01*
X2585466Y3907282D01*
X2592476Y3862070D01*
X2594711Y3850081D01*
X2595981Y3845153D01*
X2597404Y3840937D01*
X2599131Y3837533D01*
X2601112Y3834841D01*
X2603500Y3832910D01*
X2606294Y3831742D01*
X2609596Y3831336D01*
X2614980Y3832250D01*
X2619603Y3834942D01*
X2622854Y3839159D01*
X2624074Y3844798D01*
X2623616Y3848506D01*
X2622346Y3852773D01*
X2620314Y3857650D01*
X2593848Y3909822D01*
X2635910Y3903319D01*
X2647442Y3901744D01*
X2656586Y3900779D01*
X2660142Y3900678D01*
X2666492Y3901795D01*
X2670860Y3904792D01*
X2673299Y3909161D01*
X2674112Y3914394D01*
X2673299Y3919829D01*
X2670860Y3924350D01*
X2666492Y3927449D01*
X2660142Y3928618D01*
X2652471Y3928008D01*
X2594356Y3919220D01*
X2607564Y3946296D01*
X2614625Y3960317D01*
X2620314Y3972153D01*
X2622346Y3977081D01*
X2623616Y3981399D01*
X2624074Y3985006D01*
X2622905Y3990238D01*
X2619806Y3994353D01*
X2615285Y3996994D01*
G37*
G36*
X3202686Y1537970D02*
G01*
X3197961Y1533296D01*
X3193643Y1528470D01*
X3189782Y1523542D01*
X3186328Y1518513D01*
X3183280Y1513332D01*
X3180638Y1507998D01*
X3178454Y1502511D01*
X3176625Y1496872D01*
X3175254Y1491081D01*
X3174288Y1485138D01*
X3173679Y1478991D01*
X3173476Y1472692D01*
X3173679Y1466392D01*
X3174288Y1460246D01*
X3175254Y1454302D01*
X3176625Y1448511D01*
X3178454Y1442872D01*
X3180638Y1437386D01*
X3183280Y1432052D01*
X3186328Y1426870D01*
X3189782Y1421841D01*
X3193643Y1416913D01*
X3197961Y1412087D01*
X3202686Y1407414D01*
X3205480Y1409700D01*
X3201568Y1415491D01*
X3198164Y1420977D01*
X3195167Y1426311D01*
X3192627Y1431493D01*
X3190443Y1436573D01*
X3188614Y1441602D01*
X3187141Y1446580D01*
X3186023Y1451559D01*
X3185160Y1456639D01*
X3184245Y1467154D01*
X3184245Y1478229D01*
X3184601Y1483563D01*
X3185210Y1488744D01*
X3186074Y1493824D01*
X3187242Y1498803D01*
X3188716Y1503781D01*
X3190544Y1508810D01*
X3192729Y1513890D01*
X3195269Y1519072D01*
X3198266Y1524406D01*
X3205480Y1535684D01*
G37*
G36*
X3429254Y1537970D02*
G01*
X3426206Y1535684D01*
X3430168Y1529892D01*
X3433622Y1524406D01*
X3436620Y1519072D01*
X3439210Y1513890D01*
X3441344Y1508810D01*
X3443173Y1503781D01*
X3444595Y1498803D01*
X3445713Y1493824D01*
X3446576Y1488744D01*
X3447135Y1483563D01*
X3447542Y1472692D01*
X3447440Y1467154D01*
X3446526Y1456639D01*
X3445662Y1451559D01*
X3444544Y1446580D01*
X3443071Y1441551D01*
X3441242Y1436573D01*
X3439058Y1431493D01*
X3436518Y1426311D01*
X3433521Y1420977D01*
X3430117Y1415491D01*
X3426206Y1409700D01*
X3429254Y1407414D01*
X3433927Y1412087D01*
X3438194Y1416913D01*
X3442004Y1421841D01*
X3445459Y1426870D01*
X3448456Y1432052D01*
X3451047Y1437386D01*
X3453282Y1442872D01*
X3455060Y1448511D01*
X3456432Y1454302D01*
X3457448Y1460246D01*
X3458006Y1466392D01*
X3458210Y1472692D01*
X3458006Y1478991D01*
X3457448Y1485138D01*
X3456432Y1491081D01*
X3455060Y1496872D01*
X3453282Y1502511D01*
X3451047Y1507998D01*
X3448456Y1513332D01*
X3445459Y1518513D01*
X3442004Y1523542D01*
X3438194Y1528470D01*
X3433927Y1533296D01*
G37*
G36*
X2711958Y1521714D02*
G01*
X2711958Y1455420D01*
X2709164Y1461262D01*
X2706014Y1466951D01*
X2702610Y1472488D01*
X2698953Y1477822D01*
X2694940Y1483055D01*
X2690672Y1488084D01*
X2686100Y1492859D01*
X2681224Y1497533D01*
X2676042Y1501902D01*
X2670606Y1506118D01*
X2664866Y1510080D01*
X2658872Y1513840D01*
X2657094Y1512062D01*
X2665577Y1504950D01*
X2669590Y1501089D01*
X2677109Y1492808D01*
X2683967Y1483918D01*
X2690164Y1474520D01*
X2695549Y1464716D01*
X2700223Y1454708D01*
X2704033Y1444498D01*
X2705608Y1439418D01*
X2661412Y1439418D01*
X2660396Y1435608D01*
X2711958Y1435608D01*
X2711958Y1404366D01*
X2726944Y1406144D01*
X2726588Y1407363D01*
X2725826Y1408277D01*
X2724454Y1408988D01*
X2722372Y1409446D01*
X2722372Y1435608D01*
X2756408Y1435608D01*
X2763774Y1426464D01*
X2768447Y1430223D01*
X2776728Y1437386D01*
X2776372Y1438249D01*
X2775661Y1438859D01*
X2774645Y1439265D01*
X2773426Y1439418D01*
X2725420Y1439418D01*
X2727655Y1446682D01*
X2730398Y1453591D01*
X2733598Y1460195D01*
X2737256Y1466392D01*
X2741320Y1472285D01*
X2745740Y1477772D01*
X2750515Y1482902D01*
X2755595Y1487627D01*
X2760929Y1491945D01*
X2766517Y1495856D01*
X2772308Y1499362D01*
X2778252Y1502410D01*
X2777744Y1503680D01*
X2774442Y1504492D01*
X2771444Y1506118D01*
X2768955Y1508556D01*
X2767076Y1511808D01*
X2762961Y1508912D01*
X2755239Y1502460D01*
X2748178Y1495145D01*
X2744927Y1491183D01*
X2741828Y1486966D01*
X2738932Y1482547D01*
X2733700Y1473098D01*
X2731363Y1468069D01*
X2727248Y1457248D01*
X2723946Y1445615D01*
X2722626Y1439418D01*
X2722372Y1439418D01*
X2722372Y1517650D01*
X2721610Y1518818D01*
X2719628Y1520139D01*
X2716885Y1521256D01*
X2713990Y1521714D01*
G37*
G36*
X2787142Y1521714D02*
G01*
X2786380Y1519428D01*
X2794152Y1516888D01*
X2801620Y1514094D01*
X2808782Y1511046D01*
X2815640Y1507693D01*
X2822194Y1504086D01*
X2828442Y1500225D01*
X2834386Y1496110D01*
X2839974Y1491742D01*
X2836418Y1487932D01*
X2829915Y1479651D01*
X2826969Y1475181D01*
X2824226Y1470507D01*
X2821686Y1465580D01*
X2819400Y1460500D01*
X2817368Y1455166D01*
X2819908Y1455166D01*
X2822244Y1459839D01*
X2824835Y1464259D01*
X2827731Y1468526D01*
X2830880Y1472539D01*
X2834233Y1476349D01*
X2837891Y1480007D01*
X2845816Y1486662D01*
X2852877Y1479550D01*
X2859125Y1471879D01*
X2861970Y1467866D01*
X2866999Y1459484D01*
X2869184Y1455166D01*
X2797810Y1455166D01*
X2796794Y1451356D01*
X2839212Y1451356D01*
X2839212Y1429512D01*
X2789428Y1429512D01*
X2788412Y1425956D01*
X2839212Y1425956D01*
X2839212Y1404620D01*
X2854198Y1405890D01*
X2853944Y1407210D01*
X2853182Y1408226D01*
X2851861Y1408938D01*
X2849880Y1409446D01*
X2849880Y1425956D01*
X2881630Y1425956D01*
X2888742Y1416812D01*
X2901696Y1427480D01*
X2901340Y1428445D01*
X2900629Y1429054D01*
X2899613Y1429410D01*
X2849880Y1429512D01*
X2849880Y1451356D01*
X2869438Y1451356D01*
X2876296Y1445260D01*
X2886710Y1455420D01*
X2885897Y1456182D01*
X2884779Y1456690D01*
X2881122Y1457198D01*
X2878378Y1462074D01*
X2872232Y1471320D01*
X2865221Y1480007D01*
X2857296Y1488135D01*
X2852928Y1491996D01*
X2858566Y1495298D01*
X2864510Y1498346D01*
X2870657Y1501089D01*
X2877058Y1503629D01*
X2883611Y1505864D01*
X2890367Y1507845D01*
X2897225Y1509572D01*
X2904236Y1511046D01*
X2903728Y1512570D01*
X2900629Y1513586D01*
X2897835Y1515364D01*
X2895600Y1517904D01*
X2894076Y1521206D01*
X2880715Y1516786D01*
X2874314Y1514195D01*
X2868168Y1511350D01*
X2862224Y1508302D01*
X2856585Y1504899D01*
X2851150Y1501292D01*
X2846070Y1497330D01*
X2837992Y1502562D01*
X2829255Y1507337D01*
X2819857Y1511604D01*
X2809697Y1515465D01*
X2798826Y1518818D01*
G37*
G36*
X2994914Y1521714D02*
G01*
X2994609Y1519428D01*
X2994050Y1517497D01*
X2993186Y1515872D01*
X2991866Y1514602D01*
X2990037Y1513382D01*
X2987497Y1512316D01*
X2984093Y1511452D01*
X2979674Y1510792D01*
X2979674Y1509014D01*
X2997708Y1510030D01*
X2999130Y1509877D01*
X3000095Y1509369D01*
X3000603Y1508506D01*
X3000756Y1507236D01*
X3000756Y1472946D01*
X2955544Y1472946D01*
X2954528Y1469136D01*
X3000756Y1469136D01*
X3000756Y1454912D01*
X3014980Y1456436D01*
X3014573Y1457655D01*
X3013760Y1458569D01*
X3012490Y1459280D01*
X3010662Y1459738D01*
X3010662Y1469136D01*
X3014980Y1469136D01*
X3020822Y1461262D01*
X3031236Y1470914D01*
X3030778Y1471879D01*
X3030118Y1472488D01*
X3029254Y1472844D01*
X3010662Y1472946D01*
X3010662Y1507998D01*
X3010154Y1513281D01*
X3008020Y1517345D01*
X3003245Y1520139D01*
G37*
G36*
X2546350Y1521460D02*
G01*
X2545638Y1517345D01*
X2544927Y1515668D01*
X2543810Y1514348D01*
X2542387Y1513128D01*
X2540457Y1512214D01*
X2537815Y1511401D01*
X2534412Y1510792D01*
X2534412Y1509014D01*
X2547620Y1509522D01*
X2548890Y1509420D01*
X2549652Y1509064D01*
X2550058Y1508353D01*
X2550160Y1471422D01*
X2538222Y1478788D01*
X2537917Y1479854D01*
X2536596Y1481480D01*
X2535682Y1482090D01*
X2530348Y1469644D01*
X2538425Y1467053D01*
X2550160Y1462786D01*
X2550160Y1437386D01*
X2533142Y1437386D01*
X2532126Y1433830D01*
X2550160Y1433830D01*
X2550160Y1404366D01*
X2564638Y1405890D01*
X2564231Y1407210D01*
X2563368Y1408226D01*
X2561945Y1408938D01*
X2559812Y1409446D01*
X2559812Y1433830D01*
X2563114Y1433830D01*
X2568956Y1425956D01*
X2578862Y1435354D01*
X2578506Y1436319D01*
X2577896Y1436928D01*
X2576880Y1437284D01*
X2559812Y1437386D01*
X2559812Y1458722D01*
X2567838Y1455724D01*
X2576068Y1452372D01*
X2576830Y1454150D01*
X2559812Y1465072D01*
X2559812Y1507998D01*
X2559405Y1513230D01*
X2557627Y1517192D01*
X2553614Y1519936D01*
G37*
G36*
X2564892Y1521460D02*
G01*
X2563876Y1519428D01*
X2570022Y1517142D01*
X2575915Y1514551D01*
X2581503Y1511808D01*
X2586837Y1508810D01*
X2591866Y1505559D01*
X2596540Y1502105D01*
X2600960Y1498447D01*
X2605024Y1494536D01*
X2599486Y1486814D01*
X2596997Y1482598D01*
X2594711Y1478178D01*
X2592628Y1473454D01*
X2589022Y1463344D01*
X2587498Y1457960D01*
X2590292Y1457960D01*
X2593898Y1466900D01*
X2598521Y1475079D01*
X2604058Y1482445D01*
X2610358Y1488948D01*
X2615742Y1481886D01*
X2620365Y1474419D01*
X2624277Y1466443D01*
X2627376Y1457960D01*
X2579878Y1457960D01*
X2578608Y1454404D01*
X2604770Y1454404D01*
X2604770Y1431544D01*
X2577338Y1431544D01*
X2576322Y1427988D01*
X2604770Y1427988D01*
X2604770Y1405128D01*
X2619756Y1406652D01*
X2619248Y1407871D01*
X2618384Y1408938D01*
X2617012Y1409801D01*
X2614930Y1410462D01*
X2614930Y1427988D01*
X2631186Y1427988D01*
X2637790Y1419606D01*
X2642158Y1423060D01*
X2649728Y1429512D01*
X2649372Y1430477D01*
X2648661Y1431086D01*
X2647645Y1431442D01*
X2614930Y1431544D01*
X2614930Y1454404D01*
X2627376Y1454404D01*
X2633980Y1448054D01*
X2644648Y1457960D01*
X2643936Y1458772D01*
X2642819Y1459331D01*
X2641346Y1459636D01*
X2639314Y1459738D01*
X2637332Y1464614D01*
X2632710Y1473962D01*
X2630068Y1478381D01*
X2627172Y1482648D01*
X2624023Y1486763D01*
X2620619Y1490726D01*
X2616962Y1494536D01*
X2624886Y1499870D01*
X2633421Y1504442D01*
X2642412Y1508252D01*
X2651760Y1511300D01*
X2651760Y1512570D01*
X2648508Y1513586D01*
X2645765Y1515364D01*
X2643530Y1517904D01*
X2641854Y1521206D01*
X2632862Y1517091D01*
X2624582Y1512316D01*
X2617063Y1506778D01*
X2613609Y1503680D01*
X2610358Y1500378D01*
X2605836Y1503781D01*
X2601010Y1506982D01*
X2595880Y1509979D01*
X2590393Y1512722D01*
X2584551Y1515262D01*
X2578404Y1517548D01*
X2571851Y1519631D01*
G37*
G36*
X2927858Y1521460D02*
G01*
X2926943Y1517345D01*
X2926181Y1515668D01*
X2923692Y1513128D01*
X2921711Y1512214D01*
X2919171Y1511401D01*
X2915920Y1510792D01*
X2915920Y1509014D01*
X2928874Y1509522D01*
X2930296Y1509420D01*
X2931109Y1509064D01*
X2931566Y1508353D01*
X2931668Y1472946D01*
X2918968Y1479042D01*
X2917748Y1481074D01*
X2916885Y1481836D01*
X2915920Y1482344D01*
X2911348Y1469644D01*
X2931668Y1464056D01*
X2931668Y1437386D01*
X2914142Y1437386D01*
X2913126Y1433830D01*
X2931668Y1433830D01*
X2931668Y1404366D01*
X2945892Y1405890D01*
X2945485Y1407210D01*
X2944672Y1408226D01*
X2943301Y1408938D01*
X2941320Y1409446D01*
X2941320Y1433830D01*
X2946654Y1433830D01*
X2952242Y1425702D01*
X2956001Y1429004D01*
X2962656Y1435354D01*
X2962198Y1436319D01*
X2961487Y1436928D01*
X2960573Y1437284D01*
X2941320Y1437386D01*
X2941320Y1461262D01*
X2961640Y1455166D01*
X2962148Y1456944D01*
X2941320Y1467866D01*
X2941320Y1507998D01*
X2940913Y1513230D01*
X2939084Y1517192D01*
X2935020Y1519936D01*
G37*
G36*
X3621024Y1513840D02*
G01*
X3620008Y1509522D01*
X3625697Y1507388D01*
X3630929Y1504950D01*
X3635654Y1502308D01*
X3639921Y1499362D01*
X3643680Y1496212D01*
X3647084Y1492808D01*
X3649979Y1489100D01*
X3652520Y1485188D01*
X3654653Y1481074D01*
X3656431Y1476654D01*
X3657803Y1471980D01*
X3658870Y1467104D01*
X3654958Y1470101D01*
X3650538Y1472234D01*
X3645560Y1473555D01*
X3640074Y1473962D01*
X3634689Y1473454D01*
X3629710Y1472031D01*
X3625138Y1469694D01*
X3621227Y1466443D01*
X3617976Y1462430D01*
X3615486Y1457655D01*
X3613962Y1452168D01*
X3613404Y1446022D01*
X3613514Y1444752D01*
X3625342Y1444752D01*
X3626764Y1454505D01*
X3630726Y1461312D01*
X3636721Y1465275D01*
X3644137Y1466596D01*
X3648354Y1466291D01*
X3652316Y1465326D01*
X3655974Y1463598D01*
X3659378Y1461008D01*
X3659632Y1454404D01*
X3659327Y1446530D01*
X3658362Y1439722D01*
X3656837Y1434084D01*
X3654806Y1429562D01*
X3652265Y1426057D01*
X3649370Y1423568D01*
X3646017Y1422095D01*
X3642360Y1421638D01*
X3635756Y1423111D01*
X3630320Y1427480D01*
X3626662Y1434693D01*
X3625342Y1444752D01*
X3613514Y1444752D01*
X3613962Y1439570D01*
X3615537Y1433779D01*
X3618077Y1428699D01*
X3621532Y1424381D01*
X3625799Y1420926D01*
X3630777Y1418386D01*
X3636416Y1416862D01*
X3642614Y1416304D01*
X3649065Y1416964D01*
X3654806Y1418894D01*
X3659784Y1422095D01*
X3664000Y1426362D01*
X3667353Y1431696D01*
X3669792Y1438046D01*
X3671315Y1445310D01*
X3671824Y1453388D01*
X3671671Y1458518D01*
X3671112Y1463598D01*
X3670198Y1468526D01*
X3668928Y1473301D01*
X3667251Y1477924D01*
X3665169Y1482394D01*
X3662730Y1486662D01*
X3659835Y1490776D01*
X3656584Y1494586D01*
X3652824Y1498193D01*
X3648659Y1501546D01*
X3644087Y1504645D01*
X3639007Y1507439D01*
X3633470Y1509877D01*
X3627475Y1512062D01*
G37*
G36*
X3830320Y1513840D02*
G01*
X3829304Y1509522D01*
X3834942Y1507388D01*
X3840124Y1504950D01*
X3844848Y1502308D01*
X3849065Y1499362D01*
X3852875Y1496212D01*
X3856228Y1492808D01*
X3859174Y1489100D01*
X3861663Y1485188D01*
X3863797Y1481074D01*
X3865524Y1476654D01*
X3866896Y1471980D01*
X3867912Y1467104D01*
X3864000Y1470101D01*
X3859580Y1472234D01*
X3854704Y1473555D01*
X3849370Y1473962D01*
X3843985Y1473454D01*
X3838956Y1472031D01*
X3834384Y1469694D01*
X3830370Y1466443D01*
X3827068Y1462430D01*
X3824579Y1457655D01*
X3823004Y1452168D01*
X3822446Y1446022D01*
X3822556Y1444752D01*
X3834384Y1444752D01*
X3835806Y1454505D01*
X3839768Y1461312D01*
X3845763Y1465275D01*
X3853179Y1466596D01*
X3857548Y1466291D01*
X3861460Y1465326D01*
X3865067Y1463598D01*
X3868420Y1461008D01*
X3868674Y1456080D01*
X3868369Y1446530D01*
X3867404Y1439722D01*
X3865879Y1434084D01*
X3863848Y1429562D01*
X3861308Y1426057D01*
X3858361Y1423568D01*
X3855059Y1422095D01*
X3851401Y1421638D01*
X3844798Y1423111D01*
X3839362Y1427480D01*
X3835704Y1434693D01*
X3834384Y1444752D01*
X3822556Y1444752D01*
X3823004Y1439570D01*
X3824630Y1433779D01*
X3827221Y1428699D01*
X3830675Y1424381D01*
X3834993Y1420926D01*
X3840022Y1418386D01*
X3845661Y1416862D01*
X3851910Y1416304D01*
X3858361Y1416964D01*
X3864101Y1418894D01*
X3869080Y1422095D01*
X3873296Y1426362D01*
X3876649Y1431696D01*
X3879087Y1438046D01*
X3880612Y1445310D01*
X3881120Y1453388D01*
X3880916Y1458518D01*
X3880408Y1463598D01*
X3879494Y1468526D01*
X3878173Y1473301D01*
X3876497Y1477924D01*
X3874414Y1482394D01*
X3871925Y1486662D01*
X3869029Y1490776D01*
X3865727Y1494586D01*
X3862019Y1498193D01*
X3857853Y1501546D01*
X3853281Y1504645D01*
X3848201Y1507439D01*
X3842715Y1509877D01*
X3836771Y1512062D01*
G37*
G36*
X3317748Y1513078D02*
G01*
X3311651Y1512722D01*
X3306114Y1511554D01*
X3301288Y1509725D01*
X3297123Y1507185D01*
X3293821Y1503934D01*
X3291332Y1500022D01*
X3289808Y1495450D01*
X3289300Y1490218D01*
X3289515Y1488948D01*
X3300476Y1488948D01*
X3301746Y1496720D01*
X3305352Y1502613D01*
X3310991Y1506423D01*
X3318256Y1507744D01*
X3325215Y1506524D01*
X3330600Y1503019D01*
X3334054Y1497584D01*
X3335274Y1490472D01*
X3334207Y1484376D01*
X3330701Y1478737D01*
X3324148Y1473301D01*
X3313937Y1467612D01*
X3307994Y1472031D01*
X3303778Y1476857D01*
X3301288Y1482344D01*
X3300476Y1488948D01*
X3289515Y1488948D01*
X3290570Y1482750D01*
X3294430Y1476298D01*
X3300780Y1470609D01*
X3309620Y1465580D01*
X3301746Y1460093D01*
X3296259Y1453946D01*
X3293110Y1447038D01*
X3292094Y1439418D01*
X3292348Y1436878D01*
X3302762Y1436878D01*
X3303574Y1442720D01*
X3306470Y1448409D01*
X3312109Y1453946D01*
X3321050Y1459230D01*
X3326231Y1454505D01*
X3329686Y1449628D01*
X3331616Y1444193D01*
X3332226Y1437894D01*
X3331260Y1431798D01*
X3328466Y1426616D01*
X3323996Y1423009D01*
X3318001Y1421638D01*
X3312210Y1422704D01*
X3307334Y1425752D01*
X3303981Y1430528D01*
X3302762Y1436878D01*
X3292348Y1436878D01*
X3292601Y1434338D01*
X3294126Y1429816D01*
X3296564Y1425854D01*
X3299764Y1422552D01*
X3303625Y1419860D01*
X3308045Y1417929D01*
X3312972Y1416710D01*
X3318256Y1416304D01*
X3323488Y1416710D01*
X3328212Y1417929D01*
X3332276Y1419860D01*
X3335731Y1422450D01*
X3338474Y1425600D01*
X3340455Y1429258D01*
X3341725Y1433372D01*
X3342132Y1437894D01*
X3341319Y1443736D01*
X3338626Y1449679D01*
X3333445Y1455572D01*
X3325368Y1461262D01*
X3330346Y1463954D01*
X3334613Y1466748D01*
X3338220Y1469694D01*
X3341115Y1472844D01*
X3343351Y1476248D01*
X3344926Y1479956D01*
X3345891Y1483969D01*
X3346196Y1488440D01*
X3345637Y1493723D01*
X3344062Y1498498D01*
X3341573Y1502714D01*
X3338169Y1506270D01*
X3334004Y1509166D01*
X3329178Y1511300D01*
X3323691Y1512620D01*
G37*
G36*
X3388360Y1513078D02*
G01*
X3381806Y1512417D01*
X3375964Y1510385D01*
X3370834Y1507083D01*
X3366515Y1502562D01*
X3363061Y1496872D01*
X3360521Y1490014D01*
X3358946Y1482140D01*
X3358387Y1473200D01*
X3358562Y1468628D01*
X3370579Y1468628D01*
X3370884Y1479905D01*
X3371850Y1487271D01*
X3373374Y1493520D01*
X3375456Y1498650D01*
X3378047Y1502613D01*
X3381197Y1505458D01*
X3384804Y1507185D01*
X3388868Y1507744D01*
X3395472Y1506270D01*
X3400602Y1501851D01*
X3403955Y1494586D01*
X3405124Y1484376D01*
X3403955Y1474317D01*
X3400551Y1467256D01*
X3395268Y1463141D01*
X3388360Y1461770D01*
X3383889Y1462176D01*
X3379266Y1463395D01*
X3374796Y1465529D01*
X3370579Y1468628D01*
X3358562Y1468628D01*
X3359302Y1462684D01*
X3360420Y1457655D01*
X3361944Y1452778D01*
X3363925Y1448104D01*
X3366312Y1443634D01*
X3369106Y1439468D01*
X3372307Y1435506D01*
X3375964Y1431848D01*
X3379978Y1428546D01*
X3384346Y1425498D01*
X3389122Y1422857D01*
X3394303Y1420622D01*
X3399840Y1418742D01*
X3405733Y1417320D01*
X3411982Y1416304D01*
X3412744Y1420114D01*
X3406343Y1421790D01*
X3400551Y1423873D01*
X3395319Y1426260D01*
X3390595Y1429004D01*
X3386429Y1432102D01*
X3382772Y1435557D01*
X3379622Y1439316D01*
X3376980Y1443482D01*
X3374796Y1447952D01*
X3373120Y1452829D01*
X3371900Y1458010D01*
X3371087Y1463548D01*
X3375609Y1459636D01*
X3380587Y1456791D01*
X3386023Y1455013D01*
X3391662Y1454404D01*
X3397046Y1454912D01*
X3401923Y1456385D01*
X3406190Y1458772D01*
X3409848Y1461973D01*
X3412794Y1466037D01*
X3414979Y1470812D01*
X3416350Y1476248D01*
X3416808Y1482344D01*
X3416249Y1489303D01*
X3414725Y1495399D01*
X3412236Y1500682D01*
X3408883Y1505051D01*
X3404717Y1508506D01*
X3399891Y1511046D01*
X3394405Y1512570D01*
G37*
G36*
X3570478Y1513078D02*
G01*
X3565448Y1512773D01*
X3560927Y1511858D01*
X3556863Y1510385D01*
X3553358Y1508302D01*
X3550310Y1505559D01*
X3547821Y1502257D01*
X3545890Y1498346D01*
X3544570Y1493774D01*
X3545687Y1491945D01*
X3547211Y1490573D01*
X3549040Y1489760D01*
X3551174Y1489456D01*
X3553815Y1489862D01*
X3555847Y1491284D01*
X3557422Y1493977D01*
X3558794Y1498092D01*
X3560826Y1506474D01*
X3565245Y1507388D01*
X3569715Y1507744D01*
X3574491Y1507286D01*
X3578707Y1506067D01*
X3582314Y1503984D01*
X3585311Y1501190D01*
X3587699Y1497736D01*
X3589375Y1493621D01*
X3590442Y1488897D01*
X3590798Y1483614D01*
X3590391Y1478483D01*
X3589223Y1473911D01*
X3587343Y1469999D01*
X3584854Y1466748D01*
X3581654Y1464157D01*
X3577945Y1462278D01*
X3573678Y1461160D01*
X3568954Y1460754D01*
X3562350Y1461211D01*
X3559048Y1461820D01*
X3555746Y1462786D01*
X3552190Y1461770D01*
X3554984Y1418336D01*
X3600450Y1418336D01*
X3600450Y1429004D01*
X3560318Y1429004D01*
X3558540Y1455420D01*
X3561943Y1454454D01*
X3565347Y1453845D01*
X3568801Y1453489D01*
X3572510Y1453388D01*
X3579012Y1453896D01*
X3584905Y1455369D01*
X3590086Y1457756D01*
X3594506Y1461058D01*
X3598113Y1465224D01*
X3600754Y1470202D01*
X3602431Y1475994D01*
X3602990Y1482598D01*
X3602380Y1489151D01*
X3600704Y1495094D01*
X3597910Y1500276D01*
X3594150Y1504696D01*
X3589477Y1508252D01*
X3583940Y1510893D01*
X3577539Y1512519D01*
G37*
G36*
X3783076Y1513078D02*
G01*
X3776979Y1512722D01*
X3771442Y1511554D01*
X3766616Y1509725D01*
X3762451Y1507185D01*
X3759149Y1503934D01*
X3756660Y1500022D01*
X3755136Y1495450D01*
X3754628Y1490218D01*
X3754843Y1488948D01*
X3765804Y1488948D01*
X3767074Y1496720D01*
X3770680Y1502613D01*
X3776319Y1506423D01*
X3783584Y1507744D01*
X3790492Y1506524D01*
X3795776Y1503019D01*
X3799179Y1497584D01*
X3800348Y1490472D01*
X3799332Y1484376D01*
X3795877Y1478737D01*
X3789324Y1473301D01*
X3779012Y1467612D01*
X3773220Y1472031D01*
X3769055Y1476857D01*
X3766616Y1482344D01*
X3765804Y1488948D01*
X3754843Y1488948D01*
X3755898Y1482750D01*
X3759708Y1476298D01*
X3766007Y1470609D01*
X3774694Y1465580D01*
X3766972Y1460093D01*
X3761587Y1453946D01*
X3758437Y1447038D01*
X3757422Y1439418D01*
X3757676Y1436878D01*
X3768090Y1436878D01*
X3768851Y1442720D01*
X3771696Y1448409D01*
X3777284Y1453946D01*
X3786378Y1459230D01*
X3791559Y1454505D01*
X3795014Y1449628D01*
X3796944Y1444193D01*
X3797554Y1437894D01*
X3796588Y1431798D01*
X3793794Y1426616D01*
X3789324Y1423009D01*
X3783329Y1421638D01*
X3777538Y1422704D01*
X3772662Y1425752D01*
X3769309Y1430528D01*
X3768090Y1436878D01*
X3757676Y1436878D01*
X3757929Y1434338D01*
X3759454Y1429816D01*
X3761892Y1425854D01*
X3765092Y1422552D01*
X3768953Y1419860D01*
X3773373Y1417929D01*
X3778300Y1416710D01*
X3783584Y1416304D01*
X3788816Y1416710D01*
X3793540Y1417929D01*
X3797604Y1419860D01*
X3801059Y1422450D01*
X3803802Y1425600D01*
X3805783Y1429258D01*
X3807053Y1433372D01*
X3807460Y1437894D01*
X3806647Y1443736D01*
X3803954Y1449679D01*
X3798773Y1455572D01*
X3790696Y1461262D01*
X3795674Y1463954D01*
X3799941Y1466748D01*
X3803548Y1469694D01*
X3806444Y1472844D01*
X3808679Y1476248D01*
X3810254Y1479956D01*
X3811219Y1483969D01*
X3811524Y1488440D01*
X3810965Y1493723D01*
X3809390Y1498498D01*
X3806901Y1502714D01*
X3803497Y1506270D01*
X3799332Y1509166D01*
X3794506Y1511300D01*
X3789019Y1512620D01*
G37*
G36*
X4062222Y1513078D02*
G01*
X4058513Y1512773D01*
X4054856Y1511909D01*
X4051350Y1510436D01*
X4047998Y1508302D01*
X4044848Y1505508D01*
X4042003Y1502003D01*
X4039463Y1497736D01*
X4037279Y1492707D01*
X4035450Y1486814D01*
X4034129Y1480108D01*
X4033316Y1472539D01*
X4033012Y1464056D01*
X4045204Y1464056D01*
X4045559Y1475943D01*
X4046626Y1485544D01*
X4048251Y1493164D01*
X4050385Y1498955D01*
X4052925Y1503121D01*
X4055821Y1505813D01*
X4058920Y1507286D01*
X4062222Y1507744D01*
X4065422Y1507286D01*
X4068470Y1505762D01*
X4071264Y1503019D01*
X4073702Y1498854D01*
X4075785Y1493062D01*
X4077360Y1485442D01*
X4078376Y1475841D01*
X4078732Y1464056D01*
X4078376Y1452626D01*
X4077360Y1443329D01*
X4075785Y1435963D01*
X4073702Y1430426D01*
X4071264Y1426413D01*
X4068470Y1423771D01*
X4065422Y1422349D01*
X4062222Y1421892D01*
X4058920Y1422349D01*
X4055821Y1423771D01*
X4052925Y1426413D01*
X4050385Y1430426D01*
X4048251Y1435963D01*
X4046626Y1443329D01*
X4045559Y1452626D01*
X4045204Y1464056D01*
X4033012Y1464056D01*
X4033316Y1455826D01*
X4034129Y1448460D01*
X4035450Y1441907D01*
X4037279Y1436217D01*
X4039463Y1431290D01*
X4042003Y1427124D01*
X4044848Y1423670D01*
X4047998Y1420926D01*
X4051350Y1418894D01*
X4054856Y1417421D01*
X4058513Y1416558D01*
X4062222Y1416304D01*
X4065879Y1416558D01*
X4069486Y1417421D01*
X4072940Y1418894D01*
X4076293Y1420926D01*
X4079392Y1423670D01*
X4082237Y1427124D01*
X4084777Y1431290D01*
X4086961Y1436217D01*
X4088739Y1441907D01*
X4090060Y1448460D01*
X4090873Y1455826D01*
X4091178Y1464056D01*
X4090873Y1472539D01*
X4090060Y1480108D01*
X4088739Y1486814D01*
X4086961Y1492707D01*
X4084777Y1497736D01*
X4082237Y1502003D01*
X4079392Y1505508D01*
X4076293Y1508302D01*
X4072940Y1510436D01*
X4069486Y1511909D01*
X4065879Y1512773D01*
G37*
G36*
X4132072Y1513078D02*
G01*
X4128363Y1512773D01*
X4124706Y1511909D01*
X4121150Y1510436D01*
X4117797Y1508302D01*
X4114596Y1505508D01*
X4111701Y1502003D01*
X4109161Y1497736D01*
X4106926Y1492707D01*
X4105097Y1486814D01*
X4103725Y1480108D01*
X4102912Y1472539D01*
X4102608Y1464056D01*
X4115054Y1464056D01*
X4115409Y1475943D01*
X4116476Y1485544D01*
X4118101Y1493164D01*
X4120235Y1498955D01*
X4122775Y1503121D01*
X4125671Y1505813D01*
X4128770Y1507286D01*
X4132072Y1507744D01*
X4135170Y1507286D01*
X4138168Y1505762D01*
X4140962Y1503019D01*
X4143451Y1498854D01*
X4145584Y1493062D01*
X4147159Y1485442D01*
X4148226Y1475841D01*
X4148582Y1464056D01*
X4148226Y1452626D01*
X4147159Y1443329D01*
X4145584Y1435963D01*
X4143451Y1430426D01*
X4140962Y1426413D01*
X4138168Y1423771D01*
X4135170Y1422349D01*
X4132072Y1421892D01*
X4128770Y1422349D01*
X4125671Y1423771D01*
X4122775Y1426413D01*
X4120235Y1430426D01*
X4118101Y1435963D01*
X4116476Y1443329D01*
X4115409Y1452626D01*
X4115054Y1464056D01*
X4102608Y1464056D01*
X4102912Y1455826D01*
X4103725Y1448460D01*
X4105097Y1441907D01*
X4106926Y1436217D01*
X4109161Y1431290D01*
X4111701Y1427124D01*
X4114596Y1423670D01*
X4117797Y1420926D01*
X4121150Y1418894D01*
X4124706Y1417421D01*
X4128363Y1416558D01*
X4132072Y1416304D01*
X4135678Y1416558D01*
X4139234Y1417421D01*
X4142689Y1418894D01*
X4145991Y1420926D01*
X4149140Y1423670D01*
X4151985Y1427124D01*
X4154525Y1431290D01*
X4156760Y1436217D01*
X4158538Y1441907D01*
X4159910Y1448460D01*
X4160723Y1455826D01*
X4161028Y1464056D01*
X4160723Y1472539D01*
X4159910Y1480108D01*
X4158538Y1486814D01*
X4156760Y1492707D01*
X4154525Y1497736D01*
X4151985Y1502003D01*
X4149140Y1505508D01*
X4145991Y1508302D01*
X4142689Y1510436D01*
X4139234Y1511909D01*
X4135678Y1512773D01*
G37*
G36*
X3480054Y1511300D02*
G01*
X3480054Y1506982D01*
X3499612Y1504188D01*
X3500120Y1481836D01*
X3500120Y1427480D01*
X3481578Y1429004D01*
X3481578Y1424178D01*
X3510026Y1416812D01*
X3512058Y1418336D01*
X3511296Y1438402D01*
X3511346Y1487525D01*
X3511804Y1504188D01*
X3531362Y1506982D01*
X3531362Y1511300D01*
G37*
G36*
X3685540Y1511300D02*
G01*
X3685540Y1502664D01*
X3706622Y1478788D01*
X3715562Y1468018D01*
X3719017Y1463192D01*
X3721811Y1458620D01*
X3723944Y1454251D01*
X3725468Y1450035D01*
X3726383Y1445869D01*
X3726687Y1441704D01*
X3725468Y1433423D01*
X3721963Y1427124D01*
X3716629Y1423060D01*
X3709670Y1421638D01*
X3706164Y1421942D01*
X3702050Y1422654D01*
X3699256Y1432814D01*
X3697833Y1436878D01*
X3696106Y1439621D01*
X3694074Y1441196D01*
X3691636Y1441704D01*
X3689604Y1441399D01*
X3687724Y1440484D01*
X3686098Y1439113D01*
X3684778Y1437386D01*
X3685997Y1432407D01*
X3688079Y1428089D01*
X3690924Y1424482D01*
X3694379Y1421536D01*
X3698443Y1419199D01*
X3702964Y1417574D01*
X3707841Y1416608D01*
X3712972Y1416304D01*
X3719169Y1416761D01*
X3724503Y1418132D01*
X3728923Y1420266D01*
X3732479Y1423212D01*
X3735171Y1426768D01*
X3737101Y1430985D01*
X3738270Y1435709D01*
X3738626Y1440942D01*
X3738270Y1445310D01*
X3737203Y1449578D01*
X3735273Y1453946D01*
X3732479Y1458569D01*
X3728720Y1463649D01*
X3723944Y1469390D01*
X3710940Y1483614D01*
X3694429Y1500378D01*
X3742690Y1500378D01*
X3742690Y1511300D01*
G37*
G36*
X3929379Y1511300D02*
G01*
X3929379Y1482344D01*
X3891534Y1482344D01*
X3891534Y1475486D01*
X3892430Y1474216D01*
X3929379Y1474216D01*
X3929379Y1430020D01*
X3898646Y1474216D01*
X3892430Y1474216D01*
X3932936Y1416812D01*
X3940556Y1416812D01*
X3940556Y1474216D01*
X3955287Y1474216D01*
X3955287Y1482344D01*
X3940556Y1482344D01*
X3940556Y1511300D01*
G37*
G36*
X3964432Y1511300D02*
G01*
X3964432Y1502664D01*
X3985514Y1478788D01*
X3990238Y1473200D01*
X3994302Y1468018D01*
X3997706Y1463192D01*
X4000449Y1458620D01*
X4002582Y1454251D01*
X4004106Y1450035D01*
X4005021Y1445869D01*
X4005326Y1441704D01*
X4004106Y1433423D01*
X4000703Y1427124D01*
X3995369Y1423060D01*
X3988308Y1421638D01*
X3984904Y1421942D01*
X3980942Y1422654D01*
X3978148Y1432814D01*
X3976725Y1436878D01*
X3974998Y1439621D01*
X3972966Y1441196D01*
X3970528Y1441704D01*
X3968394Y1441399D01*
X3966514Y1440484D01*
X3964940Y1439113D01*
X3963670Y1437386D01*
X3964889Y1432407D01*
X3966972Y1428089D01*
X3969765Y1424482D01*
X3973271Y1421536D01*
X3977284Y1419199D01*
X3981754Y1417574D01*
X3986529Y1416608D01*
X3991610Y1416304D01*
X3997909Y1416761D01*
X4003243Y1418132D01*
X4007713Y1420266D01*
X4011320Y1423212D01*
X4014063Y1426768D01*
X4015994Y1430985D01*
X4017162Y1435709D01*
X4017518Y1440942D01*
X4017162Y1445310D01*
X4016095Y1449578D01*
X4014165Y1453946D01*
X4011371Y1458569D01*
X4007561Y1463649D01*
X4002735Y1469390D01*
X3982516Y1491030D01*
X3973322Y1500378D01*
X4021582Y1500378D01*
X4021582Y1511300D01*
G37*
G36*
X4173474Y1511300D02*
G01*
X4173474Y1502664D01*
X4194556Y1478788D01*
X4203496Y1468018D01*
X4206951Y1463192D01*
X4209745Y1458620D01*
X4211878Y1454251D01*
X4213402Y1450035D01*
X4214317Y1445869D01*
X4214622Y1441704D01*
X4213402Y1433423D01*
X4209999Y1427124D01*
X4204665Y1423060D01*
X4197604Y1421638D01*
X4194200Y1421942D01*
X4189984Y1422654D01*
X4187190Y1432814D01*
X4185869Y1436878D01*
X4184142Y1439621D01*
X4182059Y1441196D01*
X4179570Y1441704D01*
X4177537Y1441399D01*
X4175709Y1440484D01*
X4174134Y1439113D01*
X4172965Y1437386D01*
X4174083Y1432407D01*
X4176115Y1428089D01*
X4178909Y1424482D01*
X4182364Y1421536D01*
X4186377Y1419199D01*
X4190898Y1417574D01*
X4195775Y1416608D01*
X4200906Y1416304D01*
X4207103Y1416761D01*
X4212437Y1418132D01*
X4216908Y1420266D01*
X4220514Y1423212D01*
X4223308Y1426768D01*
X4225290Y1430985D01*
X4226407Y1435709D01*
X4226814Y1440942D01*
X4226458Y1445310D01*
X4225391Y1449578D01*
X4223461Y1453946D01*
X4220667Y1458569D01*
X4216857Y1463649D01*
X4212031Y1469390D01*
X4198874Y1483614D01*
X4182364Y1500378D01*
X4230624Y1500378D01*
X4230624Y1511300D01*
G37*
G36*
X3066034Y1506728D02*
G01*
X3062478Y1506067D01*
X3059684Y1504238D01*
X3057804Y1501597D01*
X3057144Y1498346D01*
X3057804Y1494942D01*
X3059684Y1492097D01*
X3062478Y1490167D01*
X3066034Y1489456D01*
X3069590Y1490167D01*
X3072384Y1492097D01*
X3074263Y1494942D01*
X3074924Y1498346D01*
X3074263Y1501597D01*
X3072384Y1504238D01*
X3069590Y1506067D01*
G37*
G36*
X2981502Y1500835D02*
G01*
X2979166Y1500632D01*
X2976626Y1499362D01*
X2974848Y1494028D01*
X2971800Y1488541D01*
X2967990Y1483512D01*
X2963926Y1479296D01*
X2965196Y1478788D01*
X2972003Y1480616D01*
X2977337Y1482953D01*
X2981299Y1485595D01*
X2984042Y1488490D01*
X2985617Y1491335D01*
X2986227Y1494129D01*
X2986024Y1496618D01*
X2985058Y1498650D01*
X2983534Y1500124D01*
G37*
G36*
X3242564Y1500378D02*
G01*
X3242564Y1468628D01*
X3213608Y1468628D01*
X3213608Y1462024D01*
X3242564Y1462024D01*
X3242564Y1431036D01*
X3249930Y1431036D01*
X3249930Y1462024D01*
X3279140Y1462024D01*
X3279140Y1468628D01*
X3249930Y1468628D01*
X3249930Y1500378D01*
G37*
G36*
X3066034Y1457452D02*
G01*
X3062478Y1456740D01*
X3059684Y1454861D01*
X3057804Y1452118D01*
X3057144Y1448816D01*
X3057804Y1445412D01*
X3059684Y1442669D01*
X3062478Y1440840D01*
X3066034Y1440180D01*
X3069590Y1440840D01*
X3072384Y1442669D01*
X3074263Y1445412D01*
X3074924Y1448816D01*
X3074263Y1452118D01*
X3072384Y1454861D01*
X3069590Y1456740D01*
G37*
G36*
X2954528Y1451356D02*
G01*
X2953512Y1447546D01*
X2986532Y1447546D01*
X2986532Y1428750D01*
X2962656Y1428750D01*
X2961640Y1425194D01*
X2986532Y1425194D01*
X2986532Y1405128D01*
X3001264Y1406652D01*
X3000857Y1407871D01*
X3000044Y1408785D01*
X2998673Y1409598D01*
X2996692Y1410208D01*
X2996692Y1425194D01*
X3007360Y1425194D01*
X3013964Y1416558D01*
X3025648Y1426718D01*
X3025140Y1427581D01*
X3024428Y1428191D01*
X3023412Y1428597D01*
X3022092Y1428750D01*
X2996692Y1428750D01*
X2996692Y1447546D01*
X3013456Y1447546D01*
X3019806Y1439164D01*
X3024174Y1442669D01*
X3031744Y1449578D01*
X3031388Y1450390D01*
X3030677Y1450949D01*
X3028442Y1451356D01*
G37*
G36*
X2750718Y1427175D02*
G01*
X2748280Y1426210D01*
X2745587Y1421638D01*
X2741726Y1417218D01*
X2737104Y1413256D01*
X2732278Y1409954D01*
X2733548Y1408684D01*
X2740507Y1409801D01*
X2745994Y1411427D01*
X2750261Y1413510D01*
X2753309Y1415897D01*
X2755239Y1418336D01*
X2756255Y1420774D01*
X2756408Y1423009D01*
X2755798Y1424940D01*
X2754579Y1426362D01*
X2752852Y1427175D01*
G37*
G36*
X2889758Y2030222D02*
G01*
X2889758Y2022856D01*
X2827020Y2022856D01*
X2822956Y2027936D01*
X2811272Y2021078D01*
X2813253Y2019554D01*
X2815844Y2018030D01*
X2815844Y1990852D01*
X2830576Y1992630D01*
X2830271Y1993849D01*
X2829458Y1994865D01*
X2827985Y1995678D01*
X2826004Y1996186D01*
X2826004Y2019046D01*
X2852674Y2019046D01*
X2852674Y1985010D01*
X2866898Y1986280D01*
X2866542Y1987499D01*
X2865780Y1988515D01*
X2864510Y1989328D01*
X2862580Y1989836D01*
X2862580Y2019046D01*
X2889758Y2019046D01*
X2889758Y1990852D01*
X2904744Y1992122D01*
X2904388Y1993442D01*
X2903626Y1994458D01*
X2902254Y1995170D01*
X2900172Y1995678D01*
X2900172Y2027682D01*
X2899410Y2028494D01*
X2897428Y2029358D01*
X2894685Y2029968D01*
G37*
G36*
X2548991Y2029714D02*
G01*
X2546451Y2029206D01*
X2544572Y2027428D01*
X2543860Y2025142D01*
X2544216Y2022856D01*
X2545384Y2020773D01*
X2549601Y2016201D01*
X2551887Y2012137D01*
X2553563Y2007412D01*
X2554224Y2002536D01*
X2556256Y2002536D01*
X2557780Y2010765D01*
X2557678Y2017826D01*
X2556306Y2023465D01*
X2553970Y2027428D01*
X2551684Y2029053D01*
G37*
G36*
X2593086Y2029714D02*
G01*
X2591054Y2027428D01*
X2596438Y2023008D01*
X2601163Y2018385D01*
X2605227Y2013508D01*
X2608783Y2008428D01*
X2611780Y2003094D01*
X2614320Y1997405D01*
X2616403Y1991461D01*
X2618130Y1985213D01*
X2619451Y1978609D01*
X2620467Y1971649D01*
X2621788Y1956562D01*
X2605278Y1956562D01*
X2604262Y1952752D01*
X2622042Y1952752D01*
X2622499Y1934362D01*
X2622550Y1913636D01*
X2637028Y1915160D01*
X2636621Y1916430D01*
X2635808Y1917547D01*
X2634437Y1918411D01*
X2632456Y1918970D01*
X2632252Y1936546D01*
X2631694Y1952752D01*
X2645664Y1952752D01*
X2651506Y1945386D01*
X2655316Y1948434D01*
X2662174Y1954530D01*
X2661818Y1955393D01*
X2661107Y1956003D01*
X2660091Y1956409D01*
X2658872Y1956562D01*
X2633980Y1956562D01*
X2634945Y1963674D01*
X2636215Y1970481D01*
X2637739Y1976932D01*
X2639568Y1983028D01*
X2641650Y1988820D01*
X2644038Y1994255D01*
X2646730Y1999335D01*
X2649677Y2004060D01*
X2652877Y2008479D01*
X2656382Y2012492D01*
X2660142Y2016201D01*
X2664206Y2019554D01*
X2663698Y2020570D01*
X2660751Y2021332D01*
X2658059Y2022805D01*
X2655722Y2025040D01*
X2653792Y2027936D01*
X2650388Y2023922D01*
X2647340Y2019604D01*
X2644597Y2015032D01*
X2642158Y2010105D01*
X2640025Y2004872D01*
X2638145Y1999284D01*
X2636520Y1993392D01*
X2635097Y1987092D01*
X2633878Y1980438D01*
X2632100Y1965960D01*
X2631440Y1958086D01*
X2630373Y1969973D01*
X2628646Y1980895D01*
X2627477Y1986025D01*
X2626055Y1990902D01*
X2624328Y1995576D01*
X2622346Y2000097D01*
X2620060Y2004364D01*
X2617419Y2008479D01*
X2614422Y2012442D01*
X2611018Y2016201D01*
X2607208Y2019807D01*
X2602941Y2023262D01*
X2598267Y2026564D01*
G37*
G36*
X2702052Y2029714D02*
G01*
X2700274Y2027428D01*
X2705963Y2022805D01*
X2711094Y2018080D01*
X2715666Y2013204D01*
X2719679Y2008174D01*
X2723235Y2002993D01*
X2726334Y1997710D01*
X2728976Y1992325D01*
X2731211Y1986838D01*
X2733090Y1981200D01*
X2734665Y1975510D01*
X2735935Y1969668D01*
X2737662Y1957730D01*
X2738577Y1945487D01*
X2738983Y1932939D01*
X2739136Y1913636D01*
X2753868Y1915414D01*
X2753512Y1916531D01*
X2752750Y1917547D01*
X2751378Y1918411D01*
X2749296Y1918970D01*
X2749042Y1935988D01*
X2750515Y1948586D01*
X2752750Y1960727D01*
X2754172Y1966518D01*
X2755849Y1972208D01*
X2757779Y1977745D01*
X2760014Y1983079D01*
X2762554Y1988210D01*
X2765399Y1993188D01*
X2768600Y1997964D01*
X2772206Y2002536D01*
X2776118Y2006854D01*
X2780487Y2011019D01*
X2785262Y2014880D01*
X2790444Y2018538D01*
X2790190Y2020062D01*
X2786735Y2020976D01*
X2783941Y2022703D01*
X2781960Y2025396D01*
X2780792Y2029206D01*
X2775712Y2024684D01*
X2771190Y2019757D01*
X2767126Y2014423D01*
X2763570Y2008784D01*
X2760370Y2002789D01*
X2757627Y1996541D01*
X2755290Y1989988D01*
X2753258Y1983282D01*
X2751531Y1976323D01*
X2750108Y1969160D01*
X2748940Y1961896D01*
X2748026Y1954530D01*
X2746552Y1965096D01*
X2744317Y1975510D01*
X2741066Y1985619D01*
X2738983Y1990547D01*
X2736545Y1995373D01*
X2733802Y2000097D01*
X2730652Y2004720D01*
X2727045Y2009241D01*
X2723083Y2013610D01*
X2718562Y2017877D01*
X2713583Y2021941D01*
X2708097Y2025904D01*
G37*
G36*
X3016250Y2029714D02*
G01*
X3016148Y2027682D01*
X3015742Y2025853D01*
X3014980Y2024278D01*
X3013710Y2023110D01*
X3012033Y2022043D01*
X3006445Y2020316D01*
X3003042Y2019554D01*
X3003296Y2017522D01*
X3011982Y2018233D01*
X3018790Y2018538D01*
X3021431Y2018334D01*
X3023108Y2017522D01*
X3024378Y2015845D01*
X3025546Y2013153D01*
X3026562Y2009444D01*
X3027527Y2004771D01*
X3029051Y1992426D01*
X3030220Y1976374D01*
X2991612Y1976374D01*
X2987294Y1981200D01*
X2977134Y1974088D01*
X2979369Y1972716D01*
X2981960Y1971548D01*
X2983534Y1961896D01*
X2986328Y1940204D01*
X2987040Y1931670D01*
X3000756Y1934972D01*
X3000197Y1935988D01*
X2999282Y1936800D01*
X2997911Y1937308D01*
X2995930Y1937512D01*
X2993948Y1954580D01*
X2991358Y1972564D01*
X3014726Y1972564D01*
X3016351Y1960168D01*
X3018891Y1934768D01*
X3019806Y1923796D01*
X2977896Y1923796D01*
X2976880Y1919986D01*
X3018790Y1919986D01*
X3023362Y1914906D01*
X3034538Y1923288D01*
X3033725Y1924050D01*
X3030778Y1925269D01*
X3028950Y1925574D01*
X3027121Y1947621D01*
X3025851Y1960473D01*
X3024378Y1972564D01*
X3028950Y1972564D01*
X3034284Y1967230D01*
X3044444Y1975612D01*
X3042564Y1976831D01*
X3039364Y1977643D01*
X3038094Y1996084D01*
X3037179Y2003653D01*
X3036062Y2010105D01*
X3034792Y2015489D01*
X3033268Y2019807D01*
X3031591Y2023110D01*
X3029712Y2025396D01*
X3027019Y2027377D01*
X3023920Y2028698D01*
X3020364Y2029460D01*
G37*
G36*
X2570835Y2025142D02*
G01*
X2568194Y2024938D01*
X2565654Y2022856D01*
X2566416Y2017471D01*
X2566568Y2011781D01*
X2566060Y2006346D01*
X2565146Y2001520D01*
X2566924Y2001012D01*
X2571800Y2006752D01*
X2574493Y2012137D01*
X2575356Y2016963D01*
X2574747Y2020874D01*
X2573121Y2023719D01*
G37*
G36*
X2937510Y2024634D02*
G01*
X2937510Y2006854D01*
X2961132Y2006854D01*
X2961132Y1966722D01*
X2946654Y1966722D01*
X2946654Y2006854D01*
X2937510Y2006854D01*
X2937510Y1976628D01*
X2932480Y1984552D01*
X2926842Y1992122D01*
X2924810Y1990598D01*
X2929483Y1981657D01*
X2933598Y1971903D01*
X2937205Y1961540D01*
X2940202Y1950821D01*
X2942691Y1939848D01*
X2944622Y1928875D01*
X2927096Y1928875D01*
X2926080Y1925066D01*
X2960624Y1925066D01*
X2966974Y1917446D01*
X2971190Y1920595D01*
X2978658Y1926843D01*
X2978150Y1927707D01*
X2977388Y1928317D01*
X2976422Y1928723D01*
X2975356Y1928875D01*
X2955036Y1928875D01*
X2953258Y1937512D01*
X2950921Y1945843D01*
X2948228Y1953971D01*
X2945130Y1961896D01*
X2948178Y1962912D01*
X2959862Y1962912D01*
X2964942Y1957832D01*
X2975610Y1965960D01*
X2973527Y1967433D01*
X2970276Y1968500D01*
X2970276Y2016252D01*
X2969514Y2017014D01*
X2967634Y2017928D01*
X2965145Y2018741D01*
X2961132Y2019046D01*
X2961132Y2010410D01*
X2946654Y2010410D01*
X2946654Y2021586D01*
X2946095Y2022398D01*
X2944571Y2023414D01*
X2942285Y2024278D01*
X2939288Y2024634D01*
G37*
G36*
X2690876Y2022856D02*
G01*
X2683764Y2010664D01*
X2686507Y2009139D01*
X2688031Y2007870D01*
X2688691Y2006600D01*
X2688844Y2005075D01*
X2688844Y1950720D01*
X2672588Y1950720D01*
X2671318Y1946910D01*
X2689098Y1946910D01*
X2693924Y1941830D01*
X2703576Y1949704D01*
X2703118Y1950466D01*
X2702153Y1951177D01*
X2699004Y1952243D01*
X2699004Y2001774D01*
X2718054Y1986788D01*
X2719070Y1988312D01*
X2702204Y2009393D01*
X2694432Y2018284D01*
X2693822Y2019858D01*
X2692958Y2021128D01*
G37*
G36*
X3347212Y2021078D02*
G01*
X3342182Y2020824D01*
X3337509Y2019960D01*
X3333292Y2018538D01*
X3329584Y2016455D01*
X3326434Y2013813D01*
X3323793Y2010460D01*
X3321862Y2006447D01*
X3320542Y2001774D01*
X3321812Y1999792D01*
X3323386Y1998472D01*
X3325164Y1997710D01*
X3327146Y1997456D01*
X3329940Y1997964D01*
X3332022Y1999538D01*
X3333648Y2002282D01*
X3335020Y2006346D01*
X3337306Y2014728D01*
X3341268Y2015540D01*
X3345179Y2015743D01*
X3354019Y2014169D01*
X3360572Y2009749D01*
X3364636Y2002993D01*
X3366008Y1994407D01*
X3364687Y1985670D01*
X3360674Y1979015D01*
X3354019Y1974799D01*
X3344672Y1973325D01*
X3337814Y1973325D01*
X3337814Y1967230D01*
X3343401Y1967230D01*
X3351834Y1965909D01*
X3358235Y1962099D01*
X3362299Y1956003D01*
X3363722Y1947672D01*
X3362553Y1939950D01*
X3359200Y1934260D01*
X3353765Y1930806D01*
X3346450Y1929638D01*
X3343401Y1929841D01*
X3339592Y1930654D01*
X3336188Y1942338D01*
X3334664Y1945030D01*
X3332530Y1946656D01*
X3329686Y1947164D01*
X3327552Y1946910D01*
X3325723Y1946097D01*
X3324199Y1944573D01*
X3323082Y1942338D01*
X3326434Y1934362D01*
X3332226Y1928774D01*
X3339947Y1925421D01*
X3348990Y1924304D01*
X3354781Y1924710D01*
X3359962Y1925929D01*
X3364484Y1927910D01*
X3368294Y1930603D01*
X3371342Y1933905D01*
X3373577Y1937816D01*
X3374948Y1942236D01*
X3375406Y1947164D01*
X3374085Y1954580D01*
X3370275Y1961083D01*
X3364026Y1966417D01*
X3355594Y1970278D01*
X3361029Y1971598D01*
X3365703Y1973529D01*
X3369614Y1975916D01*
X3372815Y1978863D01*
X3375304Y1982216D01*
X3377082Y1985975D01*
X3378098Y1990140D01*
X3378454Y1994662D01*
X3377895Y2000148D01*
X3376168Y2005228D01*
X3373475Y2009698D01*
X3369767Y2013559D01*
X3365246Y2016760D01*
X3359912Y2019096D01*
X3353866Y2020570D01*
G37*
G36*
X3185414Y2019300D02*
G01*
X3185414Y2014982D01*
X3205226Y2012188D01*
X3205429Y1995525D01*
X3205480Y1935480D01*
X3186938Y1937004D01*
X3186938Y1932178D01*
X3215640Y1924812D01*
X3217418Y1926336D01*
X3216910Y1946402D01*
X3216960Y2001113D01*
X3217164Y2012188D01*
X3236722Y2014982D01*
X3236722Y2019300D01*
G37*
G36*
X3251708Y2019300D02*
G01*
X3251708Y2010664D01*
X3262629Y1998065D01*
X3272790Y1986788D01*
X3277514Y1981200D01*
X3281578Y1976018D01*
X3284982Y1971192D01*
X3287725Y1966620D01*
X3289858Y1962251D01*
X3291382Y1958035D01*
X3292297Y1953869D01*
X3292601Y1949704D01*
X3291382Y1941423D01*
X3287979Y1935124D01*
X3282645Y1931060D01*
X3275584Y1929638D01*
X3272129Y1929942D01*
X3267964Y1930654D01*
X3265424Y1940814D01*
X3263950Y1944878D01*
X3262172Y1947621D01*
X3260140Y1949196D01*
X3257803Y1949704D01*
X3255670Y1949399D01*
X3253790Y1948484D01*
X3252215Y1947113D01*
X3250946Y1945386D01*
X3252114Y1940407D01*
X3254146Y1936089D01*
X3256940Y1932482D01*
X3260445Y1929536D01*
X3264509Y1927199D01*
X3268979Y1925574D01*
X3273806Y1924608D01*
X3278886Y1924304D01*
X3285185Y1924761D01*
X3290519Y1926132D01*
X3294989Y1928266D01*
X3298596Y1931212D01*
X3301339Y1934768D01*
X3303270Y1938985D01*
X3304438Y1943709D01*
X3304794Y1948942D01*
X3304438Y1953310D01*
X3303371Y1957578D01*
X3301441Y1961946D01*
X3298647Y1966569D01*
X3294837Y1971649D01*
X3290011Y1977389D01*
X3276854Y1991614D01*
X3260344Y2008378D01*
X3308858Y2008378D01*
X3308858Y2019300D01*
G37*
G36*
X3425698Y2019300D02*
G01*
X3425698Y1990343D01*
X3387851Y1990343D01*
X3387851Y1983486D01*
X3388748Y1982216D01*
X3425698Y1982216D01*
X3425698Y1938020D01*
X3394964Y1982216D01*
X3388748Y1982216D01*
X3429254Y1924812D01*
X3436874Y1924812D01*
X3436874Y1982216D01*
X3451606Y1982216D01*
X3451606Y1990343D01*
X3436874Y1990343D01*
X3436874Y2019300D01*
G37*
G36*
X2585618Y2018690D02*
G01*
X2582926Y2017014D01*
X2582468Y2012391D01*
X2581198Y2007616D01*
X2579370Y2002993D01*
X2577338Y1998980D01*
X2578862Y1998218D01*
X2585110Y2002383D01*
X2588971Y2006650D01*
X2590850Y2010714D01*
X2591104Y2014270D01*
X2590038Y2017014D01*
X2588107Y2018588D01*
G37*
G36*
X3078734Y2014728D02*
G01*
X3075178Y2014067D01*
X3072384Y2012238D01*
X3070504Y2009597D01*
X3069844Y2006346D01*
X3070504Y2002942D01*
X3072384Y2000097D01*
X3075178Y1998167D01*
X3078734Y1997456D01*
X3082290Y1998167D01*
X3085084Y2000097D01*
X3086963Y2002942D01*
X3087624Y2006346D01*
X3086963Y2009597D01*
X3085084Y2012238D01*
X3082290Y2014067D01*
G37*
G36*
X2600147Y2010816D02*
G01*
X2597404Y2009393D01*
X2596692Y2005634D01*
X2595118Y2001824D01*
X2592984Y1998218D01*
X2590546Y1995170D01*
X2592070Y1994407D01*
X2598572Y1997049D01*
X2602738Y2000199D01*
X2604871Y2003501D01*
X2605328Y2006549D01*
X2604465Y2009038D01*
X2602585Y2010613D01*
G37*
G36*
X2548890Y2001520D02*
G01*
X2544826Y1990343D01*
X2571242Y1988312D01*
X2571242Y1976628D01*
X2549398Y1976628D01*
X2548636Y1972564D01*
X2571242Y1972564D01*
X2571242Y1960372D01*
X2558288Y1960372D01*
X2558288Y1963928D01*
X2557729Y1964791D01*
X2556205Y1965706D01*
X2554020Y1966417D01*
X2550160Y1966722D01*
X2550160Y1956816D01*
X2593848Y1956816D01*
X2593848Y1934972D01*
X2592070Y1934972D01*
X2588209Y1942693D01*
X2583180Y1951228D01*
X2581656Y1950720D01*
X2583992Y1939543D01*
X2585720Y1929130D01*
X2593848Y1932178D01*
X2593848Y1923542D01*
X2579624Y1923542D01*
X2579624Y1956816D01*
X2572258Y1956816D01*
X2572258Y1923542D01*
X2558288Y1923542D01*
X2558288Y1956816D01*
X2550160Y1956816D01*
X2550160Y1915922D01*
X2559050Y1919986D01*
X2592832Y1919986D01*
X2597404Y1914906D01*
X2607056Y1922525D01*
X2605074Y1923745D01*
X2601976Y1924812D01*
X2601976Y1961896D01*
X2601315Y1962759D01*
X2599639Y1963674D01*
X2597454Y1964385D01*
X2595372Y1964689D01*
X2593848Y1964689D01*
X2593848Y1960372D01*
X2580640Y1960372D01*
X2580640Y1972564D01*
X2590546Y1972564D01*
X2595880Y1966214D01*
X2599436Y1968957D01*
X2606040Y1974596D01*
X2605532Y1975459D01*
X2604770Y1976069D01*
X2603804Y1976475D01*
X2602738Y1976628D01*
X2580640Y1976628D01*
X2580640Y1987296D01*
X2593543Y1986229D01*
X2606802Y1984756D01*
X2607310Y1987042D01*
X2584043Y1992325D01*
X2552192Y1998725D01*
X2551531Y1999792D01*
X2549855Y2001215D01*
G37*
G36*
X2973832Y1997710D02*
G01*
X2972816Y1994154D01*
X3009392Y1994154D01*
X3015234Y1986025D01*
X3019145Y1989328D01*
X3025902Y1995678D01*
X3025444Y1996643D01*
X3024733Y1997252D01*
X3023819Y1997608D01*
G37*
G36*
X2802382Y1988057D02*
G01*
X2801620Y1985772D01*
X2809087Y1983536D01*
X2816504Y1980996D01*
X2823819Y1978202D01*
X2830830Y1975104D01*
X2830830Y1941830D01*
X2844038Y1943100D01*
X2843530Y1944319D01*
X2842768Y1945233D01*
X2841599Y1945944D01*
X2839974Y1946402D01*
X2839974Y1970278D01*
X2846476Y1966569D01*
X2852623Y1962657D01*
X2858414Y1958543D01*
X2863799Y1954326D01*
X2868777Y1949957D01*
X2873349Y1945436D01*
X2877464Y1940864D01*
X2881122Y1936242D01*
X2892298Y1943862D01*
X2891485Y1944522D01*
X2890418Y1944878D01*
X2888945Y1944878D01*
X2886964Y1944370D01*
X2883509Y1948332D01*
X2879598Y1952193D01*
X2875229Y1956003D01*
X2870504Y1959660D01*
X2865424Y1963216D01*
X2860040Y1966671D01*
X2848356Y1973072D01*
X2874264Y1973021D01*
X2880360Y1972818D01*
X2882239Y1972360D01*
X2883408Y1971293D01*
X2885287Y1967280D01*
X2887726Y1960372D01*
X2888996Y1960372D01*
X2889504Y1971802D01*
X2891586Y1972411D01*
X2892907Y1973224D01*
X2893618Y1974291D01*
X2893822Y1975612D01*
X2892653Y1978355D01*
X2888234Y1980133D01*
X2879039Y1981149D01*
X2863596Y1981454D01*
X2841142Y1981352D01*
X2837738Y1980996D01*
X2835198Y1980387D01*
X2833370Y1979422D01*
X2825902Y1981962D01*
X2818231Y1984298D01*
X2810459Y1986330D01*
G37*
G36*
X2907487Y1974850D02*
G01*
X2905201Y1974646D01*
X2902712Y1973325D01*
X2900781Y1967077D01*
X2897327Y1960829D01*
X2892907Y1955038D01*
X2887980Y1950212D01*
X2889504Y1949196D01*
X2896616Y1951786D01*
X2902204Y1954784D01*
X2906369Y1957984D01*
X2909316Y1961337D01*
X2911043Y1964588D01*
X2911805Y1967636D01*
X2911703Y1970328D01*
X2910840Y1972564D01*
X2909417Y1974088D01*
G37*
G36*
X2809443Y1974443D02*
G01*
X2807055Y1973681D01*
X2805430Y1971802D01*
X2805074Y1969414D01*
X2805734Y1967382D01*
X2807157Y1965655D01*
X2809240Y1964436D01*
X2812796Y1961794D01*
X2815894Y1957984D01*
X2818079Y1953158D01*
X2818892Y1947672D01*
X2820924Y1947672D01*
X2822448Y1956866D01*
X2821381Y1964182D01*
X2818587Y1969617D01*
X2814828Y1973072D01*
X2812186Y1974189D01*
G37*
G36*
X3078734Y1965452D02*
G01*
X3075178Y1964740D01*
X3072384Y1962861D01*
X3070504Y1960118D01*
X3069844Y1956816D01*
X3070504Y1953412D01*
X3072384Y1950669D01*
X3075178Y1948840D01*
X3078734Y1948180D01*
X3082290Y1948840D01*
X3085084Y1950669D01*
X3086963Y1953412D01*
X3087624Y1956816D01*
X3086963Y1960118D01*
X3085084Y1962861D01*
X3082290Y1964740D01*
G37*
G36*
X2857855Y1953056D02*
G01*
X2854706Y1951736D01*
X2853639Y1947214D01*
X2851454Y1942693D01*
X2848610Y1938477D01*
X2845562Y1934972D01*
X2847086Y1934464D01*
X2854706Y1937054D01*
X2859684Y1940407D01*
X2862376Y1944065D01*
X2863189Y1947570D01*
X2862427Y1950516D01*
X2860548Y1952498D01*
G37*
G36*
X2804617Y1951024D02*
G01*
X2802077Y1950212D01*
X2800350Y1948180D01*
X2799943Y1945944D01*
X2800502Y1943912D01*
X2801874Y1942185D01*
X2807563Y1937918D01*
X2810560Y1933702D01*
X2812542Y1928520D01*
X2813050Y1922780D01*
X2815082Y1922780D01*
X2816047Y1925777D01*
X2816606Y1928622D01*
X2898648Y1928622D01*
X2904490Y1922780D01*
X2915158Y1933193D01*
X2914497Y1933702D01*
X2910586Y1934464D01*
X2907944Y1937715D01*
X2901238Y1944370D01*
X2897886Y1947164D01*
X2896362Y1946402D01*
X2897987Y1939848D01*
X2899410Y1932686D01*
X2816860Y1932686D01*
X2816656Y1938477D01*
X2815183Y1943252D01*
X2812897Y1946960D01*
X2810256Y1949450D01*
X2807512Y1950720D01*
G37*
G36*
X2566162Y1950770D02*
G01*
X2564130Y1949450D01*
X2563723Y1944522D01*
X2562707Y1939340D01*
X2561234Y1934362D01*
X2559558Y1930146D01*
X2561590Y1929384D01*
X2566162Y1934413D01*
X2568956Y1939086D01*
X2570276Y1943252D01*
X2570378Y1946656D01*
X2569565Y1949196D01*
X2568041Y1950618D01*
G37*
G36*
X2649321Y1941830D02*
G01*
X2646172Y1940306D01*
X2644800Y1935327D01*
X2642514Y1930196D01*
X2639720Y1925269D01*
X2636774Y1921002D01*
X2638298Y1920239D01*
X2646222Y1924151D01*
X2651353Y1928418D01*
X2654096Y1932635D01*
X2654909Y1936445D01*
X2654096Y1939493D01*
X2652115Y1941423D01*
G37*
G36*
X2701696Y1937613D02*
G01*
X2699461Y1937562D01*
X2696972Y1936496D01*
X2694432Y1930704D01*
X2690723Y1924659D01*
X2686456Y1918970D01*
X2682240Y1914143D01*
X2683510Y1913128D01*
X2690368Y1915617D01*
X2695803Y1918462D01*
X2699918Y1921510D01*
X2702864Y1924659D01*
X2704693Y1927758D01*
X2705557Y1930603D01*
X2705608Y1933193D01*
X2704896Y1935276D01*
X2703525Y1936800D01*
G37*
G36*
X2859684Y1928418D02*
G01*
X2855976Y1927098D01*
X2854756Y1923135D01*
X2852470Y1919173D01*
X2849524Y1915566D01*
X2846324Y1912620D01*
X2847594Y1911604D01*
X2855976Y1913128D01*
X2861513Y1915820D01*
X2864612Y1919122D01*
X2865577Y1922576D01*
X2864866Y1925624D01*
X2862783Y1927758D01*
G37*
D10*
X990137Y7402367D02*
G01*
X979746Y7407564D01*
X969355Y7417955D01*
X964161Y7428344D01*
X964161Y7449126D01*
X969355Y7459517D01*
X979746Y7469908D01*
X990137Y7475105D01*
X1005725Y7480300D01*
X1031702Y7480300D01*
X1047287Y7475105D01*
X1057678Y7469908D01*
X1068070Y7459517D01*
X1073264Y7449126D01*
X1073264Y7428344D01*
X1068070Y7417955D01*
X1057678Y7407564D01*
X1047287Y7402367D01*
X1031702Y7402367D01*
X1031702Y7428344D02*
G01*
X1031702Y7402367D01*
X964161Y7368077D02*
G01*
X1073264Y7368077D01*
X964161Y7368077D02*
G01*
X1073264Y7295342D01*
X964161Y7295342D02*
G01*
X1073264Y7295342D01*
X964161Y7261052D02*
G01*
X1073264Y7261052D01*
X964161Y7261052D02*
G01*
X964161Y7224684D01*
X969355Y7209096D01*
X979746Y7198705D01*
X990137Y7193511D01*
X1005725Y7188314D01*
X1031702Y7188314D01*
X1047287Y7193511D01*
X1057678Y7198705D01*
X1068070Y7209096D01*
X1073264Y7224684D01*
X1073264Y7261052D01*
X1741746Y7407564D02*
G01*
X1731355Y7417955D01*
X1726161Y7433541D01*
X1726161Y7454323D01*
X1731355Y7469908D01*
X1741746Y7480300D01*
X1752137Y7480300D01*
X1762528Y7475105D01*
X1767725Y7469908D01*
X1772920Y7459517D01*
X1783311Y7428344D01*
X1788505Y7417955D01*
X1793702Y7412758D01*
X1804093Y7407564D01*
X1819678Y7407564D01*
X1830070Y7417955D01*
X1835264Y7433541D01*
X1835264Y7454323D01*
X1830070Y7469908D01*
X1819678Y7480300D01*
X1752137Y7295342D02*
G01*
X1741746Y7300536D01*
X1731355Y7310927D01*
X1726161Y7321318D01*
X1726161Y7342101D01*
X1731355Y7352492D01*
X1741746Y7362883D01*
X1752137Y7368077D01*
X1767725Y7373274D01*
X1793702Y7373274D01*
X1809287Y7368077D01*
X1819678Y7362883D01*
X1830070Y7352492D01*
X1835264Y7342101D01*
X1835264Y7321318D01*
X1830070Y7310927D01*
X1819678Y7300536D01*
X1809287Y7295342D01*
X1726161Y7261052D02*
G01*
X1835264Y7261052D01*
X1835264Y7261052D02*
G01*
X1835264Y7198705D01*
X1487746Y7407564D02*
G01*
X1477355Y7417955D01*
X1472161Y7433541D01*
X1472161Y7454323D01*
X1477355Y7469908D01*
X1487746Y7480300D01*
X1498137Y7480300D01*
X1508528Y7475105D01*
X1513725Y7469908D01*
X1518920Y7459517D01*
X1529311Y7428344D01*
X1534505Y7417955D01*
X1539702Y7412758D01*
X1550093Y7407564D01*
X1565678Y7407564D01*
X1576070Y7417955D01*
X1581264Y7433541D01*
X1581264Y7454323D01*
X1576070Y7469908D01*
X1565678Y7480300D01*
X1472161Y7373274D02*
G01*
X1581264Y7373274D01*
X1472161Y7373274D02*
G01*
X1472161Y7336904D01*
X1477355Y7321318D01*
X1487746Y7310927D01*
X1498137Y7305733D01*
X1513725Y7300536D01*
X1539702Y7300536D01*
X1555287Y7305733D01*
X1565678Y7310927D01*
X1576070Y7321318D01*
X1581264Y7336904D01*
X1581264Y7373274D01*
X1472161Y7224684D02*
G01*
X1581264Y7266246D01*
X1472161Y7224684D02*
G01*
X1581264Y7183120D01*
X1544896Y7250661D02*
G01*
X1544896Y7198705D01*
X1218161Y7480300D02*
G01*
X1327264Y7438735D01*
X1218161Y7397173D02*
G01*
X1327264Y7438735D01*
X1244137Y7284951D02*
G01*
X1233746Y7290145D01*
X1223355Y7300536D01*
X1218161Y7310927D01*
X1218161Y7331710D01*
X1223355Y7342101D01*
X1233746Y7352492D01*
X1244137Y7357686D01*
X1259725Y7362883D01*
X1285702Y7362883D01*
X1301287Y7357686D01*
X1311678Y7352492D01*
X1322070Y7342101D01*
X1327264Y7331710D01*
X1327264Y7310927D01*
X1322070Y7300536D01*
X1311678Y7290145D01*
X1301287Y7284951D01*
X1244137Y7172728D02*
G01*
X1233746Y7177925D01*
X1223355Y7188314D01*
X1218161Y7198705D01*
X1218161Y7219487D01*
X1223355Y7229878D01*
X1233746Y7240270D01*
X1244137Y7245464D01*
X1259725Y7250661D01*
X1285702Y7250661D01*
X1301287Y7245464D01*
X1311678Y7240270D01*
X1322070Y7229878D01*
X1327264Y7219487D01*
X1327264Y7198705D01*
X1322070Y7188314D01*
X1311678Y7177925D01*
X1301287Y7172728D01*
M02*
